<?xml version="1.0" encoding="utf-8"?>
<!-- Generator: Adobe Illustrator 17.1.0, SVG Export Plug-In . SVG Version: 6.00 Build 0)  -->
<!DOCTYPE svg PUBLIC "-//W3C//DTD SVG 1.1//EN" "http://www.w3.org/Graphics/SVG/1.1/DTD/svg11.dtd">
<svg version="1.1" id="Layer_1" xmlns="http://www.w3.org/2000/svg" xmlns:xlink="http://www.w3.org/1999/xlink" x="0px" y="0px"
	 viewBox="0 0 612 792" enable-background="new 0 0 612 792" xml:space="preserve">
<g>
	<g>
		<path fill="#231F20" d="M87.4,778.6l3.3-0.5c0,1.1,0.5,2.7,1.1,3.3c0.5,1.1,1.6,1.6,2.7,2.2c1.1,0.5,2.7,1.1,4.3,1.1
			c1.6,0,2.7,0,3.7-0.5c1.1-0.5,1.6-1.1,2.2-1.6c0.6-0.5,0.5-1.6,0.5-2.2c0-1.1,0-1.6-0.5-2.2c-0.5-0.5-1.1-1.1-2.2-1.6
			c-0.5-0.5-2.2-0.5-4.8-1.1c-2.7-0.5-4.3-1.1-5.4-1.6s-2.2-1.6-2.7-2.7c-0.5-1.1-1.1-2.2-1.1-3.3c0-1.6,0.5-2.7,1.1-3.7
			c0.5-1.1,2.2-2.2,3.3-2.7c1.6-0.5,3.3-1.1,4.8-1.1c2.2,0,3.7,0.5,5.4,1.1c1.6,0.5,2.7,1.6,3.3,2.7c1.1,1.1,1.1,2.7,1.1,4.3h-3.3
			c0-1.6-0.5-2.7-1.6-3.7s-2.7-1.1-4.8-1.1c-2.2,0-3.7,0.5-4.8,1.1c-1.1,0.5-1.6,1.6-1.6,2.7c0,1.1,0.5,1.6,1.1,2.2
			c0.5,0.5,2.7,1.1,5.4,2.2c2.7,0.5,4.8,1.1,5.9,1.6c1.6,0.5,2.7,1.6,3.3,2.7c0.5,1.1,1.1,2.2,1.1,3.7s-0.5,2.7-1.1,3.7
			c-1.1,1.1-2.2,2.2-3.7,2.7c-1.6,0.5-3.3,1.1-5.4,1.1s-4.3-0.5-5.9-1.1c-1.6-0.5-2.7-1.6-3.7-3.3C88,781.8,87.4,780.2,87.4,778.6z"
			/>
		<path fill="#231F20" d="M123.7,774.2c0-4.3,1.1-8.1,3.7-10.3c2.2-2.7,5.4-3.7,9.2-3.7c2.7,0,4.8,0.5,6.5,1.6
			c2.2,1.1,3.7,2.7,4.3,4.8c1.1,2.2,1.6,4.3,1.6,7s-0.5,5.4-1.6,7.6c-1.1,2.2-2.7,3.7-4.8,4.8c-2.2,1.1-4.3,1.6-6.5,1.6
			c-2.7,0-4.8-0.5-7-1.6c-2.2-1.1-3.3-2.7-4.3-4.8C124.2,778.6,123.7,776.4,123.7,774.2z M127.4,774.2c0,3.3,1.1,5.9,2.7,7.6
			c1.6,1.6,3.7,2.7,6.5,2.7c2.7,0,4.8-1.1,6.5-2.7c1.6-1.6,2.7-4.3,2.7-8.1c0-2.2-0.5-4.3-1.1-5.9c-0.5-1.6-1.6-2.7-3.3-3.7
			c-1.6-1.1-3.3-1.1-4.8-1.1c-2.7,0-4.8,1.1-6.5,2.7C128,767.1,127.4,769.9,127.4,774.2z"/>
		<path fill="#231F20" d="M183.8,777.5l3.7,1.1c-0.5,2.7-2.2,5.4-3.7,6.5c-2.2,1.6-4.3,2.2-7,2.2s-5.4-0.5-7-1.6
			c-1.6-1.1-3.3-2.7-4.3-4.8c-1.1-2.2-1.6-4.8-1.6-7c0-2.7,0.5-5.4,1.6-7.6c1.1-2.2,2.7-3.7,4.3-4.8c2.2-1.1,4.3-1.6,6.5-1.6
			c2.7,0,4.8,0.5,7,2.2c1.6,1.6,3.3,3.3,3.7,5.9l-3.3,1.1c-0.5-2.2-1.6-3.3-2.7-4.3c-1.1-1.1-2.7-1.1-4.3-1.1
			c-2.2,0-3.7,0.5-5.4,1.6s-2.2,2.2-2.7,3.7s-1.1,3.3-1.1,5.4c0,2.2,0.5,4.3,1.1,5.9c0.5,1.6,1.6,3.3,3.3,3.7
			c1.6,1.1,2.7,1.1,4.3,1.1c2.2,0,3.7-0.5,4.8-1.6C182.7,781.8,183.3,779.7,183.8,777.5z"/>
		<path fill="#231F20" d="M203.3,787.3v-27.1h3.7v27L203.3,787.3L203.3,787.3z"/>
		<path fill="#231F20" d="M221.1,787.3l10.3-27h3.7l10.8,27h-3.7l-3.3-8.1h-11.3l-2.7,8.1H221.1z M228.7,775.8h9.2l-2.7-7.6
			c-1.1-2.2-1.6-4.3-2.2-5.4c-0.5,1.6-1.1,3.3-1.6,4.8L228.7,775.8z"/>
		<path fill="#231F20" d="M259.6,787.3v-27.1h3.7V784h13v3.3H259.6z"/>
		<path fill="#231F20" d="M292.1,787.3v-27.1h3.7v27L292.1,787.3L292.1,787.3z"/>
		<path fill="#231F20" d="M311,787.3V784l13.5-17.4c1.1-1.1,2.2-2.2,2.7-3.3H312v-3.3h19.5v3.3l-15.1,18.4l-1.6,1.6h17.4v3.3h-21.1
			L311,787.3L311,787.3z"/>
		<path fill="#231F20" d="M346.7,787.3v-27.1h19.5v3.3h-15.7v8.1h14.6v3.3h-14.6v9.2h16.3v3.3L346.7,787.3L346.7,787.3z"/>
		<path fill="#231F20" d="M408.4,787.3l-7-27.1h3.7l4.3,17.4c0.5,1.6,1.1,3.7,1.1,5.4c0.5-2.7,1.1-4.3,1.1-4.8l4.8-17.9h4.3
			l3.7,13.5c1.1,3.3,1.6,6.5,2.2,9.8c0.5-1.6,0.5-3.7,1.1-5.9l4.3-17.4h3.7l-7.6,27h-3.3l-5.4-20.6c-0.5-1.6-0.5-2.7-1.1-3.3
			c-0.5,1.1-0.5,2.2-0.5,3.3l-5.9,20.6L408.4,787.3L408.4,787.3z"/>
		<path fill="#231F20" d="M450.6,787.3v-27.1h3.7v27L450.6,787.3L450.6,787.3z"/>
		<path fill="#231F20" d="M470.2,778.6l3.3-0.5c0,1.1,0.5,2.7,1.1,3.3c0.5,1.1,1.6,1.6,2.7,2.2c1.1,0.5,2.7,1.1,4.3,1.1
			c1.6,0,2.7,0,3.7-0.5c1.1-0.5,1.6-1.1,2.2-1.6c0.6-0.5,0.5-1.6,0.5-2.2c0-1.1,0-1.6-0.5-2.2c-0.5-0.5-1.1-1.1-2.2-1.6
			c-0.5-0.5-2.2-0.5-4.8-1.1c-2.7-0.5-4.3-1.1-5.4-1.6c-1.1-0.5-2.2-1.6-2.7-2.7c-0.5-1.1-1.1-2.2-1.1-3.3c0-1.6,0.5-2.7,1.1-3.7
			c0.5-1.1,1.6-2.2,3.3-2.7s3.3-1.1,4.8-1.1c2.2,0,3.7,0.5,5.4,1.1c1.6,0.5,2.7,1.6,3.3,2.7c1.1,1.1,1.1,2.7,1.1,4.3h-3.3
			c0-1.6-0.5-2.7-1.6-3.7s-2.7-1.1-4.8-1.1c-2.2,0-3.7,0.5-4.8,1.1c-1.1,0.5-1.6,1.6-1.6,2.7c0,1.1,0.5,1.6,1.1,2.2
			c0.5,0.5,2.7,1.1,5.4,2.2c2.7,0.5,4.8,1.1,5.9,1.6c1.6,0.5,2.7,1.6,3.3,2.7c0.5,1.1,1.1,2.2,1.1,3.7s-0.5,2.7-1.1,3.7
			c-0.5,1.1-2.2,2.2-3.7,2.7c-1.6,0.5-3.3,1.1-5.4,1.1c-2.7,0-4.3-0.5-5.9-1.1c-1.6-0.5-2.7-1.6-3.7-3.3
			C470.7,781.8,470.2,780.2,470.2,778.6z"/>
		<path fill="#231F20" d="M507.5,787.3v-27.1H527v3.3h-15.7v8.1h14.6v3.3h-14.6v9.2h16.3v3.3L507.5,787.3L507.5,787.3z"/>
	</g>
	<g>
		<path fill="#231F20" d="M103.7,576.2l-11.9,54.1h1.6c20.6,0,36.8-21.1,36.8-39.6c0-14.1-9.2-26.5-33.5-26.5
			c-29.8,0-63.9,18.9-63.9,59c0,12.4,3.3,14.6,3.7,16.8c-16.8,0-27.6-5.9-27.6-22.2c0-33.5,44.4-64.4,93.1-64.4
			c37.4,0,54.6,18.9,54.6,38.5c0,14.1-9.2,29.8-25.4,38.5c21.7,4.3,30.3,21.1,30.3,39c0,23.3-13.5,69.8-55.7,69.8
			c-10.8,0-25.4-3.3-25.4-17.9c0-3.7,1.1-8.7,3.3-14.1c6.5,6.5,11.3,8.7,17.4,8.7c18.9,0,25.4-25.4,25.4-43.9
			c0-16.8-5.4-30.9-24.4-30.9c-2.2,0-7,0-11.9,0.5l-22.2,93.7H31.2l34.6-154.8L103.7,576.2z"/>
		<path fill="#231F20" d="M292.1,614.2l-18.4,82.3c-0.5,3.3-1.1,5.4-1.1,7.6c0,7,3.3,10.3,10.3,10.3c9.8,0,16.8-10.8,20.6-22.8h10.8
			c-14.6,39.6-37.9,45-51.4,45c-14.6,0-23.9-7.6-24.9-22.2c-8.3,11.3-20.1,22.2-38.1,22.2c-17.4,0-34.1-10.3-34.1-39
			c0-33,21.1-85,65.5-85c14.6,0,20.6,5.4,20.6,12.4v1.6l2.7-13h37.4L292.1,614.2L292.1,614.2z M203.9,694.3c0,18.9,8.1,18.9,13,18.9
			c7.6,0,18.4-7,21.1-21.7l12.4-54.6c0-2.7-2.2-9.2-10.3-9.2C218,627.7,203.9,671.5,203.9,694.3z"/>
		<path fill="#231F20" d="M358.1,614.2l-3.3,15.2c9.2-7,18.9-15.2,30.9-15.2c11.3,0,17.9,9.2,17.9,18.4c0,8.7-5.9,17.9-18.4,17.9
			c-14.1,0-7-16.3-14.6-16.3s-12.4,3.7-18.9,9.2l-20.6,92h-36.8l27-121.8H358L358.1,614.2L358.1,614.2z"/>
		<path fill="#231F20" d="M427.5,570.3l37.9-4.8l-12.4,54.6c10.3-5.9,15.7-7,21.1-7c17.9,0,30.3,10.8,30.3,41.7
			c0,28.1-15.7,82.3-70.4,82.3c-23.3,0-35.7-11.9-35.7-30.9c0-4.3,0.5-8.7,1.6-14.1L427.5,570.3z M464.8,630.3
			c-3.7,0-12.4,1.1-15.2,4.3l-14.1,61.7c-0.5,2.2-0.5,3.7-0.5,5.4c0,7,4.3,11.3,13.5,11.3c16.8,0,29.8-34.1,29.8-59.6
			C478.4,641.8,474,630.3,464.8,630.3z"/>
		<path fill="#231F20" d="M612,644.4c0,0,1.1,3.7,0,15.7c-3.7,46.6-28.7,76.3-60.7,76.3c-23.9,0-41.1-10.8-41.1-38.5
			c0-28.1,16.8-86.1,69.3-86.1C599.6,612,610.4,622.7,612,644.4z M590.4,664c0.5-3.7,1.6-14.6,1.1-23.9c-0.5-10.3-3.3-14.1-9.8-14.1
			c-18.4,0-33,44.4-33,68.3c0,16.3,3.3,19.5,13,19.5C573.6,714.9,586.1,692.6,590.4,664z"/>
	</g>
	<g>
		<g id="top_1_" display="none">
			<path display="inline" fill="#231F20" d="M416,80.9c-0.5,0-1.6,0.5-2.2,0.5c-2.2-15.2-5.4-30.9-9.2-47.1h-40.6
				c3.7,14.6,5.9,29.2,9.2,50.9c-3.3-2.2-5.9-0.5-6.5-4.8c-0.5-0.5-1.6-0.5-2.2-0.5c-3.3-0.5-7.6-3.3-10.3-3.7
				c-3.3-1.1-5.9-1.1-9.2-2.2c-3.3-1.1-7,2.2-9.8,1.1c-3.3-0.5-4.8-3.3-8.1-3.3c-1.6-0.5-5.4-0.5-7-0.5s-8.7,2.2-9.8,2.2
				c-1.6,0-9.2-3.3-10.8-3.3c-3.3,0.5-5.9,3.3-8.7,3.7c-2.7,0.5-5.4-2.2-8.7-1.6c-2.7,0.5-6.5,4.8-9.8,5.4c-0.5-3.7-3.7-6.5-7.6-6.5
				c-2.7,0-5.4,1.6-7,3.7c-1.1-3.3-4.3-5.4-8.1-5.4c-3.3,0-6.5,1.6-7.6,4.8c-2.7-3.3-5.4-4.8-8.1-4.8s-5.4,1.6-7,4.3
				c-0.5,0-3.7-0.5-5.4-2.7c-0.5-1.1-1.6-1.1-2.2-1.6c2.7-13,5.4-24.9,8.7-36.3h-13c-2.7,8.7-4.8,18.9-7,29.2c0,0-0.5-1.1-1.1-1.1
				c-3.7-3.3-11.9-4.8-13-2.7c3.3-15.2,11.3-37.9,11.3-37.9h209c0,0,13.5,37.9,15.7,65C426.9,80.4,418.8,79.8,416,80.9z M263.4,73.9
				c-2.2,0-4.3,2.2-4.3,4.3c0,2.2,2.2,4.3,4.3,4.3c2.2,0,4.3-2.2,4.3-4.3C267.8,75.4,266.1,73.9,263.4,73.9z M253.7,77.1
				c0,2.7-2.2,5.4-5.4,5.4c-2.7,0-5.4-2.2-5.4-5.4c0-2.7,2.2-5.4,5.4-5.4S253.7,73.9,253.7,77.1z M238,76.5c0,2.2-1.6,4.3-4.3,4.3
				c-2.2,0-4.3-1.6-4.3-4.3c0-2.2,1.6-4.3,4.3-4.3S238,74.4,238,76.5z"/>
			<path display="inline" fill="#231F20" d="M240.7,78.2c0,2.2-1.6,4.3-4.3,4.3c-2.2,0-4.3-1.6-4.3-4.3c0-2.2,1.6-4.3,4.3-4.3
				C238.5,73.9,240.7,75.4,240.7,78.2z M250.9,73.3c-2.7,0-5.4,2.2-5.4,5.4c0,2.7,2.2,5.4,5.4,5.4c2.7,0,5.4-2.2,5.4-5.4
				C255.9,75.4,253.7,73.3,250.9,73.3z M415.5,23H208.2c-1.1,2.7-8.7,23.3-10.8,37.9c1.1-2.2,9.2-1.1,13,2.7c0,0,0.5,1.1,1.1,1.1
				c2.2-10.8,4.3-20.6,7-29.2h13c-3.3,10.8-6.5,23.3-8.7,35.7c1.1,0,1.6,0.5,2.2,1.1c1.6,2.2,4.3,2.2,5.4,2.7
				c1.1-2.7,3.7-4.3,6.5-4.3c2.7,0,5.4,1.6,6.5,4.3c1.6-2.7,4.3-4.8,7.6-4.8c3.7,0,7,2.2,8.1,5.4c1.1-2.2,3.7-3.7,7-3.7
				c3.7,0,7,2.7,7.6,6.5c3.3-0.5,7-4.8,9.8-5.4c3.3-0.5,5.4,2.2,8.7,1.6c3.3-0.5,5.4-3.3,8.7-3.7c1.6,0,9.2,3.3,10.8,3.3
				s8.7-2.7,9.8-2.2c1.6,0,5.4,0,7,0.5c2.7,0.5,4.8,2.7,8.1,3.3c2.7,0.5,6.5-2.2,9.8-1.1c2.7,1.1,5.9,1.1,8.7,2.2
				c2.7,1.1,7,3.3,10.3,3.7c0.5,0,1.6,0.5,2.2,0.5c0.5,4.3,3.3,2.7,6.5,4.8c-2.7-21.7-5.4-36.3-9.2-50.9h40.6
				c4.3,16.3,7,32,9.2,46.6c0.5,0,1.6-0.5,2.2-0.5c2.7-1.1,10.8-0.5,14.1,4.8C429,61.4,416,25.6,415.5,23z M265.6,75
				c-2.2,0-4.3,1.6-4.3,4.3c0,2.2,2.2,4.3,4.3,4.3s4.3-2.2,4.3-4.3S268.3,75,265.6,75z"/>
			<path display="inline" fill="#231F20" d="M364.6,36c3.7,14.6,7,33.5,9.8,55.2c4.3,2.7,9.8,3.7,9.8,3.7
				c4.3,16.8,24.4-2.2,26.5-10.8c1.6-0.5,3.3-1.1,4.8-1.1c-2.2-14.6-5.4-30.3-9.2-46.6h-41.7V36z"/>
			<path display="inline" fill="#231F20" d="M218,35.4c-2.7,8.7-4.8,18.4-7,28.7c1.6,2.2,2.2,5.4,4.3,7c1.6,1.6,4.8,0,7,0
				c2.7-12.4,5.4-24.9,8.7-35.7C230.9,35.4,218,35.4,218,35.4z"/>
		</g>
		<g id="owl_body_1_" display="none">
			<path display="inline" fill="#231F20" d="M360.9,465.8c-16.8,4.3-37.4,6.5-56.3,6.5c-46.6-2.7-59.6-9.8-59.6-9.8
				c10.8-52.5,0.5-122.3-24.9-179.2c-36.3-78.5-30.3-153.8-21.1-210.1c0,0,4.3,6.5,9.8,11.9c-6.5,40.6-8.1,90.9,2.7,140.3
				c10.8,47.6,60.7,148.8,48.7,231.2c14.1-83.3-23.3-161.4-40-232.8c-10.3-42.8-8.7-89.9-2.2-131c4.3,2.2,11.3,4.3,17.4,4.3
				c11.9,0,55.2-10.3,74.7-10.3c15.7,0,42.8,2.7,68.3,13.5c6.5,55.2,8.7,122.9-1.6,167.9C358.7,342.3,356.6,412.2,360.9,465.8z
				 M427.5,95.5L427.5,95.5L427.5,95.5c0-0.5,0-0.5,0-0.5s-5.4,3.3-10.8,5.9c4.8,47.6,1.6,83.9-0.5,98.5
				c-7,44.4-25.9,74.2-35.2,113.7c-5.4,21.7-16.3,80.7-8.1,147.7c0.5,0,2.2-0.5,2.2-0.5l1.1-0.5v-1.1
				c-8.7-53.1,2.2-119.1,28.7-175.4C430.7,226.5,438.2,165.3,427.5,95.5z"/>
			<path display="inline" fill="#231F20" d="M417.7,100.9c-5.4,2.7-12.4,5.4-19.5,5.4c-4.3,0-10.8-1.1-14.6-2.7
				c-2.7-1.6-5.4-2.7-8.1-3.7c1.6,11.9,2.7,24.9,3.7,37.4c21.1,3.7,36.8,22.2,36.8,44.4c0,21.7-15.7,40-35.7,43.9
				c-1.1,15.2-2.7,29.2-5.9,41.7c-17.4,75.3-19.5,144-15.2,197.6c4.8-1.6,10.3-2.7,14.6-4.3c-8.1-66.6,2.7-125.1,8.1-147.3
				c9.2-39.6,28.1-69.3,35.2-113.7C419.3,184.8,423.1,148,417.7,100.9z"/>
			<path display="inline" fill="#231F20" d="M209.8,224.4c10.8,47.6,59,144,49.8,231.7c16.8-85-22.2-161.4-39-232.8
				c-10.3-42.8-8.7-89.9-2.2-131c-4.8-2.2-8.1-5.4-11.3-8.1C200.6,124.8,198.9,175.7,209.8,224.4z"/>
		</g>
		<g id="foam_1_" display="none">
			<path display="inline" fill="#231F20" d="M210.4,63l0.5,1.1c-1.1,5.9-2.2,12.4-3.3,18.9c-3.7-3.7-7-9.2-11.3-15.7
				c0.5-2.2,1.1-4.3,1.6-7C198.9,58.2,206.5,59.8,210.4,63z M431.2,89.6c0-0.5-1.1-2.7-1.1-2.7c-1.1-4.8-10.3-5.4-13-4.3
				c-0.5,0-1.6,0.5-2.2,0.5c0.5,2.2,1.1,8.1,2.2,16.8C423.1,96.6,428.6,92.2,431.2,89.6z M374.4,85.8c0.5,3.7,1.1,8.1,1.6,12.4
				c-2.2-1.1-4.8-2.2-7-3.3l0,0c-19.5-8.1-35.7-10.3-56.8-10.3c-41.7-0.5-62.8,12.4-82.8,8.7c-4.3-0.5-7.6-1.6-10.8-2.7
				c1.1-6.5,2.2-13,3.7-19.5c1.1,0,1.6,0.5,2.2,1.1c1.6,2.2,4.3,2.2,5.4,2.7c1.1-2.7,3.7-4.3,6.5-4.3s5.4,1.6,6.5,4.3
				c1.6-2.7,4.3-4.8,7.6-4.8c3.7,0,7,2.2,8.1,5.4c1.1-2.2,3.7-3.7,7-3.7c3.7,0,7,2.7,7.6,6.5c3.3-0.5,7-4.8,9.8-5.4
				c3.3-0.5,5.4,2.2,8.7,1.6c3.3-0.5,5.4-3.3,8.7-3.7c1.6,0,9.2,3.3,10.8,3.3s8.7-2.7,9.8-2.2c1.6,0,5.4,0.5,7,0.5
				c2.7,0.5,4.8,2.7,8.1,3.3c2.7,0.5,6.5-2.2,9.8-1.1c2.7,1.1,5.9,1.1,8.7,2.2c2.7,1.1,7,3.3,10.3,3.7c0.5,0,1.1,0.5,1.6,0.5l0,0
				l0,0l0,0l0,0c1.6,1.1,2.7,2.7,4.8,3.3C372.7,85.2,373.8,85.2,374.4,85.8z M240.2,78.2c0-2.2-1.6-3.7-3.7-3.7s-3.7,1.6-3.7,3.7
				c0,2.2,1.6,3.7,3.7,3.7C238.5,82,240.2,80.4,240.2,78.2z M255.9,78.7c0-2.7-2.2-4.8-4.8-4.8c-2.7,0-4.8,2.2-4.8,4.8
				c0,2.7,2.2,4.8,4.8,4.8C253.7,83.6,255.9,81.5,255.9,78.7z M269.9,79.3c0-2.2-1.6-4.3-4.3-4.3c-2.2,0-4.3,1.6-4.3,4.3
				c0,2.2,1.6,4.3,4.3,4.3C267.8,83.6,269.9,81.5,269.9,79.3z"/>
			<path display="inline" fill="#231F20" d="M410.7,84.1L410.7,84.1c-1.1,0-1.6,0.5-2.7,0.5c-3.3,0.5-5.4,5.4-8.7,5.4
				c-3.3,0.5-6.5-3.3-9.2-3.3c-3.3,0-5.9,0.5-9.2,0.5c-2.7,0-5.4-1.1-7.6-2.2c0.5,3.7,1.1,8.1,1.6,12.4c2.7,1.1,5.4,2.7,8.7,3.7
				c9.8,4.8,20.6,3.7,29.8-0.5l0,0c1.6-0.5,2.7-1.1,4.3-2.2c-0.5-5.4-1.1-10.8-2.2-16.8C413.9,83,412.3,83.6,410.7,84.1z"/>
			<path display="inline" fill="#231F20" d="M215.2,71.1c-2.2-1.6-2.7-4.8-4.3-7c-1.1,5.9-2.2,12.4-3.3,18.9
				c3.3,3.3,6.5,5.9,11.3,8.1c1.1-6.5,2.2-13,3.7-19.5C220.1,71.1,216.9,72.2,215.2,71.1z"/>
		</g>
		<g id="line_1_" display="none">
			<path display="inline" fill="#231F20" d="M195.8,67.4c4.8,6.5,8.1,11.3,11.3,15.7c0,1.1,0,1.6-0.5,2.7
				c-3.3-3.7-6.5-8.7-11.3-15.2v-3.3L195.8,67.4L195.8,67.4z M368.4,94.4c-19.5-8.1-35.2-9.8-56.3-10.3
				c-41.7-0.5-63.3,12.4-83.3,8.7c-4.3-0.5-7.6-1.6-10.3-2.7c0,1.1-0.5,2.2-0.5,2.7c2.7,1.1,6.5,2.2,10.8,2.7
				c20,3.3,41.7-9.2,83.3-8.7C333.3,87.3,349,89,369,97c2.2,1.1,4.3,1.6,6.5,2.7c0-1.1,0-2.2-0.5-3.3
				C372.7,96.6,370.6,95.5,368.4,94.4z M417.7,99.3c0,1.1,0,2.2,0.5,2.7c5.4-2.7,9.2-5.9,11.3-8.1v-2.7
				C427.5,93.3,423.1,96.6,417.7,99.3z"/>
			<path display="inline" fill="#231F20" d="M413.4,100.9c-9.2,3.7-20,5.4-29.2,0.5c-3.3-1.6-5.9-2.7-8.7-4.3c0,1.1,0,2.2,0.5,3.3
				c2.7,1.1,5.4,2.7,8.1,3.7c9.8,4.8,20.6,3.3,29.8-0.5c1.6-0.5,2.7-1.1,4.3-2.2c0-1.1,0-2.2-0.5-2.7
				C416,99.8,414.9,100.4,413.4,100.9z"/>
			<path display="inline" fill="#231F20" d="M207.6,82.5c0,1.1,0,1.6-0.5,2.7c3.3,3.7,6.5,5.9,11.3,8.1c0-1.1,0.5-2.2,0.5-2.7
				C213.6,88.5,210.4,86.3,207.6,82.5z"/>
		</g>
		<g id="bottom_1_">
			<path fill="#231F20" d="M377.7,523.7c-5.4,2.2-9.2,2.7-9.2,2.7c-3.7-16.3-7-36.3-8.7-59.6c-37.9,9.2-88.3,7-118.1-5.4
				c-2.7,9.8-9.8,22.8-9.8,23.3c-1.1,3.7-1.6,8.1-2.7,12.4c-2.2,8.1-1.1,14.6,3.3,20c5.4,7,16.8,11.9,34.6,14.6
				c11.9,1.6,27,2.2,45,2.2c20,0,36.3-1.1,48.7-2.7c16.3-2.7,26.5-7.6,31.4-14.1c4.3-5.4,5.4-11.9,3.3-20c-0.5-2.7-1.6-5.4-2.2-8.1
				c-3.3-4.8-8.7-13.5-12.4-28.7c-2.2,1.1-5.4,2.2-7.6,3.3c2.2,18.4,5.9,37.4,11.9,56.8C385.3,519.4,382.5,522.1,377.7,523.7z
				 M256.9,507c-8.1-1.6-14.6-6.5-14.1-11.3c0.5-4.8,8.1-7.6,16.3-5.9c8.1,1.6,14.6,6.5,14.1,11.3C272.6,505.9,265,508.5,256.9,507z
				"/>
			<path fill="#231F20" d="M359.2,466.3c2.2,23.3,4.8,43.9,8.7,60.1c0,0,4.3-0.5,9.8-2.7c4.3-1.6,8.1-4.3,8.1-4.3
				c-5.9-19.5-9.8-38.5-11.9-57.4C373.8,462.6,359.2,466.3,359.2,466.3z"/>
			<path fill="#231F20" d="M256.9,507.4c8.7,1.6,16.3-1.1,17.4-6.5c0.5-4.8-5.9-10.3-14.6-11.9c-8.7-1.6-16.3,1.1-17.4,6.5
				C241.3,500.4,248.3,505.9,256.9,507.4z"/>
		</g>
		<g id="edge_1_">
			<path id="edge_3_" display="none" fill="#231F20" d="M197.4,21.3h8.7l-1.1,3.3c-16.8,45.5-27.6,128.3-11.3,201.9
				c2.7,12.4,8.1,28.1,15.2,46.1c21.7,56.3,56.3,158.6,20.6,213.3c17.9-87.2-8.7-159.2-27.6-212.3c-6.5-17.9-12.4-33.5-15.2-47.1
				C170.3,151.8,180.6,67.9,197.4,21.3z M413.4,21.3l1.1,3.3c16.8,45.5,27,127.7,11.3,201.9c-2.7,12.4-8.1,28.7-15.2,47.1
				c-21.7,58.5-56.3,164.6-18.9,216.6c-3.3-15.2-5.4-30.3-6.5-44.4c-2.2-28.1,0-54.6,5.4-78.5c7-35.2,18.4-66.6,28.1-93.1
				c6.5-18.4,12.4-34.1,15.2-47.1c16.3-74.7,5.4-158.6-11.3-205.7C422.5,21.3,413.4,21.3,413.4,21.3z"/>
			<path id="edge_2_" fill="#231F20" d="M198.5,23h10.3l-1.1,3.3c-16.8,45-27,127.2-11.3,200.3c2.7,12.4,8.1,27.6,15.2,46.1
				c21.1,55.7,55.7,157.5,20.6,211.7c17.9-86.6-9.8-158.1-29.2-210.6c-6.5-17.9-12.4-35.7-15.7-48.2
				C166.5,154.5,181.7,69.5,198.5,23z M414.5,23l1.1,3.3c16.8,45,27,127.2,11.3,200.3c-2.7,12.4-8.1,28.1-15.2,46.6
				C390,331,356,436.6,392.8,488c-3.3-15.2-5.4-29.8-6.5-44.4c-2.2-28.1,0-54.1,5.4-77.9c7-35.2,19.5-66.1,29.2-92
				c6.5-17.9,11.9-33.5,15.2-46.6C455,152.5,442,69.6,425.2,23.1L414.5,23L414.5,23z"/>
			<path display="none" fill="#231F20" d="M422,21.3H198.5c-1.1,0-1.6-0.5-1.6-1.1c0-0.5,0.5-1.1,1.6-1.1H422c1.1,0,1.6,0.5,1.6,1.1
				C423.6,20.8,423.1,21.3,422,21.3L422,21.3z"/>
			<path fill="#231F20" d="M423.1,23H201.2c-1.1,0-1.6-0.5-1.6-1.1c0-0.5,0.5-1.1,1.6-1.1h221.9c1.1,0,1.6,0.5,1.6,1.1
				C424.7,22.4,424.2,23,423.1,23L423.1,23z"/>
		</g>
		<g id="wings_1_">
			<path fill="#231F20" d="M358.7,463.1c0,1.6,0.5,3.3,0.5,5.4l0,0c-14.6,3.3-30.9,4.8-47.6,4.8c-25.9,0-50.3-3.7-70.4-11.3
				c9.2-36.8,2.7-81.8-7.6-121.8c-22.2,17.9-70.9,27-108.3,9.8c-37.9-17.4-38.5-41.1-13.5-35.7c0.5,0,21.1,7,21.7,7
				c-63.9-23.9-85.5-75.7-37.9-54.1c0.5,0,21.1,8.7,21.1,8.7c-53.1-27-65.5-86.1-35.7-65.5c26.5,18.4,83.3,47.6,123.4,44.4
				c-3.7-10.8-6.5-20.6-8.7-28.1c-14.6-54.6-10.8-105,0-159.2c1.6,2.2,2.7,3.7,4.3,5.4c-10.8,66.6-11.9,137.5,21.1,209.5
				c25.9,56.8,37.9,130.5,25.9,179.7C265.6,469.1,313.3,476.1,358.7,463.1z M528.7,267.7c-0.5,0-21.1,8.7-21.1,8.7
				c53.1-27,65.5-86.1,35.7-65.5c-27,18.4-84.4,48.2-124,43.9c3.7-10.8,7-20,8.7-28.1c11.9-50.3,10.3-91.5,3.3-137
				c-2.7,2.2-4.3,3.7-4.8,4.3c8.7,55.7,7.6,121.2-23.3,188.4c-23.3,49.8-33.5,105-30.9,154.8c0.5,7,1.1,14.1,2.2,21.7l0,0l0,0
				c0,2.2,0.5,3.7,0.5,5.9l0,0c2.2-0.5,4.8-1.6,7-2.2c-8.7-36.3-2.2-81.2,8.7-121.8c22.2,17.9,70.9,27,108.8,9.8
				c37.9-17.4,38.5-41.1,13.5-35.7c-0.5,0-21.1,7-21.7,7C554.7,298,576.3,246,528.7,267.7z"/>
			<path fill="#231F20" d="M359.2,463.1C359.2,463.1,358.7,463.1,359.2,463.1c0,1.6,0,3.3,0.5,5.4c5.4-1.1,10.3-2.2,15.2-3.7
				c0-2.2-0.5-3.7-0.5-5.9C369,460.4,364.1,462,359.2,463.1z"/>
		</g>
		<g id="shine_wings_1_">
			<g>
				<path fill="#231F20" d="M443.2,296.4c12.4,24.4-2.2,42.8-31.4,24.4C442.1,347.3,463.2,318.6,443.2,296.4z"/>
				<path fill="#231F20" d="M181.7,296.4c-11.9,24.4,2.2,42.8,31.4,24.4C182.8,347.3,161.7,318.6,181.7,296.4z"/>
			</g>
			<g>
				<path fill="#231F20" d="M150.2,277.4c-7.6,16.8,20,22.2,30.9,18.9C168.7,296.9,149.7,293.1,150.2,277.4z"/>
				<path fill="#231F20" d="M474.5,277.4c7.6,16.8-20,22.2-30.9,18.9C456.2,296.9,475.6,293.1,474.5,277.4z"/>
			</g>
			<g>
				<path fill="#231F20" d="M438.8,295.8c15.2,23.9-4.3,39.6-29.8,21.1C439.9,342.9,458.8,318,438.8,295.8z"/>
				<path fill="#231F20" d="M186,295.8c-15.2,23.9,4.3,39.6,29.8,21.1C185.4,342.9,166.5,318,186,295.8z"/>
			</g>
			<g>
				<path fill="#231F20" d="M472.3,275.3c7.6,17.4-20,22.2-30.9,18.4C451.8,294.7,472.9,289.9,472.3,275.3z"/>
				<path fill="#231F20" d="M153,275.3c-7.6,17.4,20,22.2,30.9,18.4C173,294.7,151.9,289.9,153,275.3z"/>
			</g>
			<g>
				<path fill="#231F20" d="M391.2,336.9c9.8,8.7,58.5,32.4,106.6,10.8C457.3,359.7,414.5,349.9,391.2,336.9z"/>
				<path fill="#231F20" d="M232.6,336.9c-9.8,8.7-58.5,32.4-106.6,10.8C167.1,359.7,209.3,349.9,232.6,336.9z"/>
			</g>
			<g>
				<path fill="#231F20" d="M495.6,323.4c4.3-1.6,8.7-3.3,13.5-4.3c28.1-5.9,12.4,9.2,10.3,12.4
					C522.7,322.3,516.7,318.6,495.6,323.4z"/>
				<path fill="#231F20" d="M128,323.4c-4.3-1.6-8.7-3.3-13.5-4.3c-28.1-5.9-12.4,9.2-10.3,12.4C101,322.3,107.5,318.6,128,323.4z"
					/>
			</g>
			<g>
				<path fill="#231F20" d="M504.3,280.7c9.2-1.6,19.5-7,29.8-11.3c26.5-10.8,14.1,7,11.9,10.3c1.6-4.3,0-9.2-15.2-3.7
					C523.2,278.5,510.8,281.2,504.3,280.7z"/>
				<path fill="#231F20" d="M119.4,280.7c-9.2-1.6-19.5-7-29.8-11.3c-26.5-10.8-14.1,7-11.9,10.3c-1.6-4.3,0-9.2,15.2-3.7
					C101,278.5,113.4,281.2,119.4,280.7z"/>
			</g>
			<g>
				<path fill="#231F20" d="M421.5,258.4c36.3,0,75.7-14.1,117-42.2c23.9-16.3,14.1,5.9,13,9.2c1.6-4.3-0.5-12.4-14.1-2.7
					C508.1,242.7,456.2,262.7,421.5,258.4z"/>
				<path fill="#231F20" d="M202.8,258.4c-36.3,0-75.7-14.1-117-42.2c-23.9-16.3-14.1,5.9-13,9.2c-1.6-4.3,0.5-12.4,14.1-2.7
					C116.2,242.7,168.2,262.7,202.8,258.4z"/>
			</g>
		</g>
		<g id="face_1_">
			<g>
				<g>
					<path fill="#231F20" d="M370.6,135.6c-25.4,0-46.1,20.6-46.1,46.1s20.6,46.1,46.1,46.1s46.1-20.6,46.1-46.1
						C417.1,156.1,396,135.6,370.6,135.6z M370.6,222.7c-21.7,0-39-17.4-39-39s17.4-39,39-39c21.6,0,39,17.4,39,39
						S392.3,222.7,370.6,222.7z"/>
					<path fill="#231F20" d="M410.1,183.7c0,22.2-17.9,40-40,40s-40-17.9-40-40s17.9-40,40-40C392.3,143.7,410.1,161.6,410.1,183.7z
						"/>
					<path fill="#231F20" d="M367.3,204.4c-11.3,0-20.6-9.2-20.6-20.6c0-11.3,9.2-20.6,20.6-20.6c11.3,0,20.6,9.2,20.6,20.6
						C387.9,195.1,378.7,204.4,367.3,204.4L367.3,204.4z M367.3,167c-9.2,0-16.8,7.6-16.8,16.8s7.6,16.8,16.8,16.8
						c9.2,0,16.8-7.6,16.8-16.8C383.6,174.6,376,167,367.3,167L367.3,167z"/>
					<circle fill="#231F20" cx="367.3" cy="183.7" r="16.8"/>
					<path fill="#231F20" d="M374.9,170.2c0,4.3-3.3,7.6-7.6,7.6s-7.6-3.3-7.6-7.6s3.3-7.6,7.6-7.6
						C371.2,162.6,374.9,166.4,374.9,170.2z"/>
					<path fill="#231F20" d="M371.2,196.2c0,2.2-1.6,3.7-3.7,3.7c-2.2,0-3.7-1.6-3.7-3.7s1.6-3.7,3.7-3.7
						C369.5,192.4,371.2,194,371.2,196.2z"/>
				</g>
				<g>
					<path fill="#231F20" d="M266.7,131.8c-27.6,0-49.8,22.2-49.8,49.8s22.2,49.8,49.8,49.8s49.8-22.2,49.8-49.8
						C315.9,154,293.7,131.8,266.7,131.8z M267.8,225.5c-23.3,0-41.7-18.4-41.7-41.7c0-22.8,18.4-41.7,41.7-41.7
						c23.3,0,41.7,18.9,41.7,41.7C309.4,207,291.1,225.5,267.8,225.5z"/>
					<circle fill="#231F20" cx="267.8" cy="183.7" r="42.2"/>
					<path fill="#231F20" d="M264.5,205.4c-11.9,0-21.7-9.8-21.7-21.7s9.8-21.7,21.7-21.7c11.9,0,21.7,9.8,21.7,21.7
						C286.1,195.7,276.4,205.4,264.5,205.4L264.5,205.4z M264.5,165.9c-9.8,0-17.9,8.1-17.9,17.9c0,9.8,8.1,17.9,17.9,17.9
						c9.8,0,17.9-8.1,17.9-17.9C282.4,174,274.2,165.9,264.5,165.9L264.5,165.9z"/>
					<path fill="#231F20" d="M282.4,183.7c0,9.8-8.1,17.9-17.9,17.9c-9.8,0-17.9-8.1-17.9-17.9s8.1-17.9,17.9-17.9
						C274.2,165.9,282.4,174,282.4,183.7z"/>
					<path fill="#231F20" d="M272.6,169.6c0,4.3-3.7,8.1-8.1,8.1c-4.3,0-8.1-3.7-8.1-8.1s3.7-8.1,8.1-8.1
						C268.8,161.6,272.6,165.3,272.6,169.6z"/>
					<path fill="#231F20" d="M268.8,196.8c0,2.2-1.6,4.3-4.3,4.3c-2.2,0-4.3-1.6-4.3-4.3c0-2.2,1.6-4.3,4.3-4.3
						C267.2,192.9,268.8,194.6,268.8,196.8z"/>
				</g>
			</g>
			<g>
				<path fill="#231F20" d="M344,214c-7-7-15.7-10.3-23.9-8.7c-8.1,1.6-12.4,5.9-16.3,10.3c-8.1,11.9-4.8,28.1,2.7,37.9
					c6.5,8.7,15.7,14.1,30.9,14.6c-1.6-9.8-0.5-22.8,1.1-28.7c7.6,1.1,13,4.8,15.7,9.2C357.6,233.1,351.1,221.6,344,214z
					 M332.7,264.4c-18.4-2.2-27.6-16.3-28.7-28.7c3.7,4.8,7.6,5.4,13,5.4c2.2,0,4.8-0.5,6.5-0.5c3.7-1.1,5.9-1.6,9.8-1.6l0,0
					C332.7,246.6,331.1,254.2,332.7,264.4z M347.9,237.9c-4.3-3.3-11.3-4.8-24.4-2.2c-14.6,3.3-22.8-7-17.9-15.2
					c0.5-1.1,1.6-2.2,2.2-3.3l0,0l0,0c2.7-3.3,6.5-5.9,12.4-7c15.7-3.3,30.3,14.1,29.2,29.8C350,239.5,347.9,237.9,347.9,237.9z"/>
				<path fill="#231F20" d="M334.4,238.4L334.4,238.4c-4.3,0-6.5,1.1-10.3,1.6c-2.2,0.5-4.8,1.1-7,0.5c-5.9-0.5-9.8-1.1-13.5-5.9
					c1.1,13.5,10.8,27.6,29.8,30.3C332.2,254.7,333.3,246.6,334.4,238.4z"/>
				<path fill="#231F20" d="M328.9,258.4c-0.5-4.8,0.5-16.8,1.6-20l-2.2,0.5c-1.6,0.5-2.7,0.5-4.3,1.1c-2.2,0.5-6.5,1.1-11.3,0
					C313.7,248.1,319.2,255.7,328.9,258.4z"/>
				<path fill="#231F20" d="M305.1,220c-4.8,8.7,4.8,18.4,18.4,15.7c16.3-3.7,24.4,2.2,28.1,5.4c0.5-16.3-14.6-35.2-30.9-32
					C312.2,210.8,307.8,215.7,305.1,220z"/>
				<path fill="#231F20" d="M350.5,240.6c-2.7-7-12.4-10.3-27-7.6c-7.6,1.6-12.4-1.1-14.6-3.3c-2.2-2.2-4.3-7.6-1.1-13
					c-1.1,1.1-1.6,2.2-2.2,3.3c-4.8,8.7,3.3,18.9,18.4,15.7C338.7,232.5,346.8,236.8,350.5,240.6z"/>
			</g>
		</g>
		<g id="eyebrows_1_">
			<path fill="#231F20" d="M382.5,123.7c26.5,1.1,39-7.6,42.8-21.1c-8.1,9.2-15.7,11.3-24.4,11.9c-1.6,0,1.6-3.7,0-3.7
				c-5.9,2.7-11.3,4.3-14.6,4.3c1.6-1.6,1.6-4.3,1.1-7c-8.1,6.5-13.5,7-17.4,7c0.5-1.6-0.5-3.3-1.6-5.9c-7,8.1-13.5,9.2-17.9,10.3
				c-1.6,1.1-1.6-2.2-1.1-4.8c-14.1,5.9-19.5,23.9-22.2,33C332.7,140.9,346.2,122,382.5,123.7z"/>
			<path fill="#231F20" d="M248.3,119.3c-32,1.6-47.1-12.4-48.2-33c5.9,11.3,13,15.7,22.8,18.4c1.1,0.5-1.6-4.8,0-4.8
				c4.3,3.7,12.4,5.9,18.9,6.5c-1.1-1.1-2.2-4.3-1.1-7c9.8,8.1,17.9,8.7,21.7,9.2c-0.5-2.2-1.6-4.8,0.5-7.6
				c8.7,9.2,17.9,11.3,23.3,13c1.6,1.1,1.6-2.7,0.5-5.9c16.8,7.6,23.9,28.7,27,39.6C307.8,139.4,291.6,117.2,248.3,119.3z"/>
		</g>
		<g id="bubbles_1_">
			<g>
				<path fill="#231F20" d="M293.7,405.7c-2.7,0-5.4,2.2-5.4,5.4c0,3.3,2.7,5.4,5.4,5.4c3.3,0,5.4-2.2,5.4-5.4
					C299.2,408.4,296.4,405.7,293.7,405.7z M293.7,415.4c-2.2,0-4.3-2.2-4.3-4.3c0-2.2,2.2-4.3,4.3-4.3c2.7,0,4.3,2.2,4.3,4.3
					C298.1,413.8,295.9,415.4,293.7,415.4z"/>
				<path fill="#231F20" d="M282.9,304.5c-2.7,0-5.4,2.2-5.4,5.4c0,2.7,2.2,5.4,5.4,5.4c3.3,0,5.4-2.7,5.4-5.4
					S285.6,304.5,282.9,304.5z M282.9,314.7c-2.2,0-4.3-2.2-4.3-4.3c0-2.7,2.2-4.3,4.3-4.3c2.7,0,4.3,2.2,4.3,4.3
					C287.2,312.6,285,314.7,282.9,314.7z"/>
				<path fill="#231F20" d="M298.6,338c-4.3,0-7.6,3.3-7.6,7.6c0,4.3,3.3,7.6,7.6,7.6c4.3,0,7.6-3.3,7.6-7.6
					C306.2,341.3,302.9,338,298.6,338z M298.6,352.1c-3.3,0-6.5-2.7-6.5-6.5c0-3.3,2.7-6.5,6.5-6.5c3.3,0,6.5,2.7,6.5,6.5
					C305.1,348.9,302.4,352.1,298.6,352.1z"/>
				<path fill="#231F20" d="M286.7,377.1c-2.7,0-5.4,2.2-5.4,5.4c0,2.7,2.2,5.4,5.4,5.4c2.7,0,5.4-2.2,5.4-5.4
					C292.1,379.1,289.4,377.1,286.7,377.1z M286.7,386.7c-2.7,0-4.3-2.2-4.3-4.3c0-2.2,2.2-4.3,4.3-4.3c2.7,0,4.3,2.2,4.3,4.3
					C291.1,384.6,288.9,386.7,286.7,386.7z"/>
				<path fill="#231F20" d="M293.1,433.9c-2.2,0-3.7,1.6-3.7,3.7c0,2.2,1.6,3.7,3.7,3.7c2.2,0,3.7-1.6,3.7-3.7
					C297.5,436,295.3,433.9,293.1,433.9z M293.1,440.9c-1.6,0-2.7-1.1-2.7-2.7s1.1-3.3,2.7-3.3s2.7,1.1,2.7,3.3
					C296.4,439.3,294.8,440.9,293.1,440.9z"/>
			</g>
			<g>
				<path fill="#231F20" d="M294.8,368.9c0,0.5-0.5,1.6-1.6,1.6c-0.5,0-1.6-0.5-1.6-1.6c0-0.5,0.5-1.6,1.6-1.6
					C294.2,367.8,294.8,368.4,294.8,368.9z"/>
				<path fill="#231F20" d="M319.2,352.7c0,1.1-0.5,1.6-1.6,1.6s-1.6-0.5-1.6-1.6c0-0.5,0.5-1.6,1.6-1.6
					C318.6,351,319.2,351.6,319.2,352.7z"/>
				<circle fill="#231F20" cx="302.4" cy="298" r="1.6"/>
				<path fill="#231F20" d="M303.5,426.3c0,0.5-0.5,1.1-1.1,1.1c-0.5,0-1.1-0.5-1.1-1.1c0-0.5,0.5-1.1,1.1-1.1
					C302.9,425.2,303.5,425.8,303.5,426.3z"/>
				<path fill="#231F20" d="M288.3,427.4c0,1.1-0.5,1.6-1.6,1.6s-1.6-0.5-1.6-1.6s0.5-1.6,1.6-1.6S288.3,426.3,288.3,427.4z"/>
				<circle fill="#231F20" cx="302.9" cy="381.9" r="1.6"/>
				<circle fill="#231F20" cx="317.5" cy="307.1" r="1.6"/>
				<path fill="#231F20" d="M295.3,453.3c0,1.1-0.5,1.6-1.6,1.6s-1.6-0.5-1.6-1.6c0-1.1,0.5-1.6,1.6-1.6S295.3,452.2,295.3,453.3z"
					/>
				<path fill="#231F20" d="M306.2,394.9c0,0.5-0.5,1.6-1.6,1.6c-0.5,0-1.6-0.5-1.6-1.6s0.5-1.6,1.6-1.6
					C305.1,393.2,306.2,393.8,306.2,394.9z"/>
				<circle fill="#231F20" cx="306.2" cy="324.5" r="1.6"/>
				<path fill="#231F20" d="M287.2,398.2c0,1.1-0.5,1.6-1.6,1.6c-1.1,0-1.6-0.5-1.6-1.6c0-1.1,0.5-1.6,1.6-1.6
					C286.7,396.5,287.2,397.1,287.2,398.2z"/>
				<path fill="#231F20" d="M310,365.1c0,0.5-0.5,1.1-1.1,1.1c-0.5,0-1.1-0.5-1.1-1.1c0-0.5,0.5-1.1,1.1-1.1
					C309.4,364,310,364.5,310,365.1z"/>
				<path fill="#231F20" d="M304,396.5c0,0.5-0.5,1.1-1.1,1.1c-0.6,0-1.1-0.5-1.1-1.1c0-0.5,0.5-1.1,1.1-1.1
					C303.5,395.4,304,396,304,396.5z"/>
				<path fill="#231F20" d="M281.8,336.4c0,1.1-0.5,1.6-1.6,1.6c-0.5,0-1.6-0.5-1.6-1.6c0-0.5,0.5-1.6,1.6-1.6
					C281.3,334.8,281.8,335.8,281.8,336.4z"/>
				<path fill="#231F20" d="M280.2,337.5c0,0.5-0.5,1.1-1.1,1.1c-0.6,0-1.1-0.5-1.1-1.1c0-0.6,0.5-1.1,1.1-1.1
					C279.6,336.4,280.2,336.9,280.2,337.5z"/>
				<path fill="#231F20" d="M308.3,365.1c0,1.1-0.5,1.6-1.6,1.6c-1.1,0-1.6-0.5-1.6-1.6s0.5-1.6,1.6-1.6
					C307.2,363.4,308.3,364,308.3,365.1z"/>
				<circle fill="#231F20" cx="281.3" cy="353.8" r="1.6"/>
			</g>
		</g>
	</g>
	<g>
		
			<linearGradient id="SVGID_1_" gradientUnits="userSpaceOnUse" x1="17.4173" y1="143.0551" x2="17.4173" y2="137.9253" gradientTransform="matrix(5.4136 0 0 5.4136 6.849319e-03 10.8139)">
			<stop  offset="0" style="stop-color:#D1D0CD"/>
			<stop  offset="0.9944" style="stop-color:#D1D0CD"/>
			<stop  offset="1" style="stop-color:#D1D0CD"/>
		</linearGradient>
		<path fill="url(#SVGID_1_)" d="M83.9,776.3l3.3-0.5c0,1.1,0.5,2.7,1.1,3.3c0.5,1.1,1.6,1.6,2.7,2.2c1.1,0.5,2.7,1.1,4.3,1.1
			c1.6,0,2.7,0,3.7-0.5c1.1-0.5,1.6-1.1,2.2-1.6c0.5-0.5,0.5-1.6,0.5-2.2c0-1.1,0-1.6-0.5-2.2c-0.5-0.5-1.1-1.1-2.2-1.6
			c-0.5-0.5-2.2-0.5-4.8-1.1c-2.7-0.5-4.3-1.1-5.4-1.6c-1.1-0.5-2.2-1.6-2.7-2.7c-0.5-1.1-1.1-2.2-1.1-3.3c0-1.6,0.5-2.7,1.1-3.7
			c0.5-1.1,2.2-2.2,3.3-2.7c1.6-0.5,3.3-1.1,4.8-1.1c2.2,0,3.7,0.5,5.4,1.1c1.6,0.5,2.7,1.6,3.3,2.7c1.1,1.1,1.1,2.7,1.1,4.3h-3.3
			c0-1.6-0.5-2.7-1.6-3.7s-2.7-1.1-4.8-1.1c-2.2,0-3.7,0.5-4.8,1.1c-1.1,0.5-1.6,1.6-1.6,2.7c0,1.1,0.5,1.6,1.1,2.2
			c0.5,0.5,2.7,1.1,5.4,2.2c2.7,0.5,4.8,1.1,5.9,1.6c1.6,0.5,2.7,1.6,3.3,2.7c0.6,1.1,1.1,2.2,1.1,3.7s-0.5,2.7-1.1,3.7
			c-1.1,1.1-2.2,2.2-3.7,2.7c-1.6,0.5-3.3,1.1-5.4,1.1s-4.3-0.5-5.9-1.1c-1.6-0.5-2.7-1.6-3.7-3.3C84.4,779.6,83.9,777.9,83.9,776.3
			z"/>
		
			<linearGradient id="SVGID_2_" gradientUnits="userSpaceOnUse" x1="24.55" y1="143.0551" x2="24.55" y2="137.9223" gradientTransform="matrix(5.4136 0 0 5.4136 6.849319e-03 10.8139)">
			<stop  offset="0" style="stop-color:#D1D0CD"/>
			<stop  offset="0.9944" style="stop-color:#D1D0CD"/>
			<stop  offset="1" style="stop-color:#D1D0CD"/>
		</linearGradient>
		<path fill="url(#SVGID_2_)" d="M120.2,772c0-4.3,1.1-8.1,3.7-10.3c2.2-2.7,5.4-3.7,9.2-3.7c2.7,0,4.8,0.5,6.5,1.6
			c2.2,1.1,3.7,2.7,4.3,4.8c1.1,2.2,1.6,4.3,1.6,7s-0.5,5.4-1.6,7.6c-1.1,2.2-2.7,3.7-4.8,4.8s-4.3,1.6-6.5,1.6
			c-2.7,0-4.8-0.5-7-1.6s-3.3-2.7-4.3-4.8C120.7,776.3,120.2,774.1,120.2,772z M124,772c0,3.3,1.1,5.9,2.7,7.6
			c1.6,1.6,3.7,2.7,6.5,2.7c2.7,0,4.8-1.1,6.5-2.7s2.7-4.3,2.7-8.1c0-2.2-0.5-4.3-1.1-5.9c-0.5-1.6-1.6-2.7-3.3-3.7
			c-1.6-1.1-3.3-1.1-4.8-1.1c-2.7,0-4.8,1.1-6.5,2.7C124.5,765,124,767.6,124,772z"/>
		
			<linearGradient id="SVGID_3_" gradientUnits="userSpaceOnUse" x1="31.8102" y1="143.0551" x2="31.8102" y2="137.9253" gradientTransform="matrix(5.4136 0 0 5.4136 6.849319e-03 10.8139)">
			<stop  offset="0" style="stop-color:#D1D0CD"/>
			<stop  offset="0.9944" style="stop-color:#D1D0CD"/>
			<stop  offset="1" style="stop-color:#D1D0CD"/>
		</linearGradient>
		<path fill="url(#SVGID_3_)" d="M180.3,775.2l3.7,1.1c-0.5,2.7-2.2,5.4-3.7,6.5c-2.2,1.6-4.3,2.2-7,2.2c-2.7,0-5.4-0.5-7-1.6
			c-1.6-1.1-3.3-2.7-4.3-4.8c-1.1-2.2-1.6-4.8-1.6-7c0-2.7,0.5-5.4,1.6-7.6c1.1-2.2,2.7-3.7,4.3-4.8c2.2-1.1,4.3-1.6,6.5-1.6
			c2.7,0,4.8,0.5,7,2.2c1.6,1.6,3.3,3.3,3.7,5.9l-3.3,1.1c-0.5-2.2-1.6-3.3-2.7-4.3c-1.1-1.1-2.7-1.1-4.3-1.1
			c-2.2,0-3.7,0.5-5.4,1.6c-1.6,1.1-2.2,2.2-2.7,3.7s-1.1,3.3-1.1,5.4c0,2.2,0.5,4.3,1.1,5.9c0.5,1.6,1.6,3.3,3.3,3.7
			c1.6,1.1,2.7,1.1,4.3,1.1c2.2,0,3.7-0.5,4.8-1.6C179.2,779.6,179.7,777.4,180.3,775.2z"/>
		
			<linearGradient id="SVGID_4_" gradientUnits="userSpaceOnUse" x1="37.2395" y1="142.9692" x2="37.2395" y2="138.0102" gradientTransform="matrix(5.4136 0 0 5.4136 6.849319e-03 10.8139)">
			<stop  offset="0" style="stop-color:#D1D0CD"/>
			<stop  offset="0.9944" style="stop-color:#D1D0CD"/>
			<stop  offset="1" style="stop-color:#D1D0CD"/>
		</linearGradient>
		<path fill="url(#SVGID_4_)" d="M199.7,785v-27h3.7v27H199.7z"/>
		
			<linearGradient id="SVGID_5_" gradientUnits="userSpaceOnUse" x1="42.4865" y1="142.9692" x2="42.4865" y2="138.0102" gradientTransform="matrix(5.4136 0 0 5.4136 6.849319e-03 10.8139)">
			<stop  offset="0" style="stop-color:#D1D0CD"/>
			<stop  offset="0.9944" style="stop-color:#D1D0CD"/>
			<stop  offset="1" style="stop-color:#D1D0CD"/>
		</linearGradient>
		<path fill="url(#SVGID_5_)" d="M217.6,785l10.3-27h3.7l10.8,27h-3.7l-3.3-8.1h-11.3l-2.7,8.1H217.6z M225.2,773.6h9.2l-2.7-7.6
			c-1.1-2.2-1.6-4.3-2.2-5.4c-0.5,1.6-1.1,3.3-1.6,4.8L225.2,773.6z"/>
		
			<linearGradient id="SVGID_6_" gradientUnits="userSpaceOnUse" x1="48.8449" y1="142.9692" x2="48.8449" y2="138.0102" gradientTransform="matrix(5.4136 0 0 5.4136 6.849319e-03 10.8139)">
			<stop  offset="0" style="stop-color:#D1D0CD"/>
			<stop  offset="0.9944" style="stop-color:#D1D0CD"/>
			<stop  offset="1" style="stop-color:#D1D0CD"/>
		</linearGradient>
		<path fill="url(#SVGID_6_)" d="M256.1,785v-27h3.7v23.9h13v3.3L256.1,785L256.1,785z"/>
		
			<linearGradient id="SVGID_7_" gradientUnits="userSpaceOnUse" x1="53.6547" y1="142.9692" x2="53.6547" y2="138.0102" gradientTransform="matrix(5.4136 0 0 5.4136 6.849319e-03 10.8139)">
			<stop  offset="0" style="stop-color:#D1D0CD"/>
			<stop  offset="0.9944" style="stop-color:#D1D0CD"/>
			<stop  offset="1" style="stop-color:#D1D0CD"/>
		</linearGradient>
		<path fill="url(#SVGID_7_)" d="M288.6,785v-27h3.7v27H288.6z"/>
		
			<linearGradient id="SVGID_8_" gradientUnits="userSpaceOnUse" x1="58.756" y1="142.9692" x2="58.756" y2="138.0102" gradientTransform="matrix(5.4136 0 0 5.4136 6.849319e-03 10.8139)">
			<stop  offset="0" style="stop-color:#D1D0CD"/>
			<stop  offset="0.9944" style="stop-color:#D1D0CD"/>
			<stop  offset="1" style="stop-color:#D1D0CD"/>
		</linearGradient>
		<path fill="url(#SVGID_8_)" d="M307.5,785v-3.3l13.5-17.4c1.1-1.1,2.2-2.2,2.7-3.3h-15.2v-3.3h19.5v3.3l-15.2,18.4l-1.6,1.6h17.4
			v3.3h-21.1L307.5,785L307.5,785z"/>
		
			<linearGradient id="SVGID_9_" gradientUnits="userSpaceOnUse" x1="65.2602" y1="142.9692" x2="65.2602" y2="138.0102" gradientTransform="matrix(5.4136 0 0 5.4136 6.849319e-03 10.8139)">
			<stop  offset="0" style="stop-color:#D1D0CD"/>
			<stop  offset="0.9944" style="stop-color:#D1D0CD"/>
			<stop  offset="1" style="stop-color:#D1D0CD"/>
		</linearGradient>
		<path fill="url(#SVGID_9_)" d="M343.2,785v-27h19.5v3.3h-15.7v8.1h14.6v3.3h-14.6v9.2h16.3v3.3L343.2,785L343.2,785z"/>
		
			<linearGradient id="SVGID_10_" gradientUnits="userSpaceOnUse" x1="76.7016" y1="142.9692" x2="76.7016" y2="138.0102" gradientTransform="matrix(5.4136 0 0 5.4136 6.849319e-03 10.8139)">
			<stop  offset="0" style="stop-color:#D1D0CD"/>
			<stop  offset="0.9944" style="stop-color:#D1D0CD"/>
			<stop  offset="1" style="stop-color:#D1D0CD"/>
		</linearGradient>
		<path fill="url(#SVGID_10_)" d="M405,785l-7-27h3.7l4.3,17.4c0.5,1.6,1.1,3.7,1.1,5.4c0.5-2.7,1.1-4.3,1.1-4.8l4.8-17.9h4.3
			l3.7,13.5c1.1,3.3,1.6,6.5,2.2,9.8c0.5-1.6,0.5-3.7,1.1-5.9l4.3-17.4h3.7l-7.6,27h-3.3l-5.4-20.6c-0.5-1.6-0.5-2.7-1.1-3.3
			c-0.5,1.1-0.5,2.2-0.5,3.3l-5.9,20.6L405,785L405,785z"/>
		
			<linearGradient id="SVGID_11_" gradientUnits="userSpaceOnUse" x1="82.9507" y1="142.9692" x2="82.9507" y2="138.0102" gradientTransform="matrix(5.4136 0 0 5.4136 6.849319e-03 10.8139)">
			<stop  offset="0" style="stop-color:#D1D0CD"/>
			<stop  offset="0.9944" style="stop-color:#D1D0CD"/>
			<stop  offset="1" style="stop-color:#D1D0CD"/>
		</linearGradient>
		<path fill="url(#SVGID_11_)" d="M447.2,785v-27h3.7v27H447.2z"/>
		
			<linearGradient id="SVGID_12_" gradientUnits="userSpaceOnUse" x1="88.1067" y1="143.0551" x2="88.1067" y2="137.9253" gradientTransform="matrix(5.4136 0 0 5.4136 6.849319e-03 10.8139)">
			<stop  offset="0" style="stop-color:#D1D0CD"/>
			<stop  offset="0.9944" style="stop-color:#D1D0CD"/>
			<stop  offset="1" style="stop-color:#D1D0CD"/>
		</linearGradient>
		<path fill="url(#SVGID_12_)" d="M466.6,776.3l3.3-0.5c0,1.1,0.5,2.7,1.1,3.3c0.5,1.1,1.6,1.6,2.7,2.2c1.1,0.5,2.7,1.1,4.3,1.1
			c1.6,0,2.7,0,3.7-0.5c1.1-0.5,1.6-1.1,2.2-1.6c0.5-0.5,0.5-1.6,0.5-2.2c0-1.1,0-1.6-0.5-2.2c-0.5-0.5-1.1-1.1-2.2-1.6
			c-0.5-0.5-2.2-0.5-4.8-1.1c-2.7-0.5-4.3-1.1-5.4-1.6c-1.1-0.5-2.2-1.6-2.7-2.7c-0.5-1.1-1.1-2.2-1.1-3.3c0-1.6,0.5-2.7,1.1-3.7
			c0.5-1.1,1.6-2.2,3.3-2.7c1.6-0.5,3.3-1.1,4.8-1.1c2.2,0,3.7,0.5,5.4,1.1c1.6,0.5,2.7,1.6,3.3,2.7c1.1,1.1,1.1,2.7,1.1,4.3h-3.3
			c0-1.6-0.5-2.7-1.6-3.7s-2.7-1.1-4.8-1.1c-2.2,0-3.7,0.5-4.8,1.1c-1.1,0.5-1.6,1.6-1.6,2.7c0,1.1,0.5,1.6,1.1,2.2
			c0.5,0.5,2.7,1.1,5.4,2.2c2.7,0.5,4.8,1.1,5.9,1.6c1.6,0.5,2.7,1.6,3.3,2.7c0.5,1.1,1.1,2.2,1.1,3.7s-0.5,2.7-1.1,3.7
			c-0.5,1.1-2.2,2.2-3.7,2.7c-1.6,0.5-3.3,1.1-5.4,1.1c-2.7,0-4.3-0.5-5.9-1.1c-1.6-0.5-2.7-1.6-3.7-3.3
			C467.2,779.6,466.6,777.9,466.6,776.3z"/>
		
			<linearGradient id="SVGID_13_" gradientUnits="userSpaceOnUse" x1="94.957" y1="142.9692" x2="94.957" y2="138.0102" gradientTransform="matrix(5.4136 0 0 5.4136 6.849319e-03 10.8139)">
			<stop  offset="0" style="stop-color:#D1D0CD"/>
			<stop  offset="0.9944" style="stop-color:#D1D0CD"/>
			<stop  offset="1" style="stop-color:#D1D0CD"/>
		</linearGradient>
		<path fill="url(#SVGID_13_)" d="M504,785v-27h19.5v3.3h-15.7v8.1h14.6v3.3h-14.6v9.2h16.3v3.3L504,785L504,785z"/>
	</g>
	<g>
		
			<linearGradient id="SVGID_14_" gradientUnits="userSpaceOnUse" x1="14.1652" y1="132.7837" x2="14.1652" y2="98.3452" gradientTransform="matrix(5.4136 0 0 5.4136 6.849319e-03 10.8139)">
			<stop  offset="0" style="stop-color:#9E938B"/>
			<stop  offset="4.603624e-02" style="stop-color:#A69C95"/>
			<stop  offset="0.2067" style="stop-color:#C0B8B3"/>
			<stop  offset="0.376" style="stop-color:#D3CECB"/>
			<stop  offset="0.5557" style="stop-color:#E1DEDC"/>
			<stop  offset="0.7527" style="stop-color:#E9E7E6"/>
			<stop  offset="1" style="stop-color:#ECEAE9"/>
		</linearGradient>
		<path fill="url(#SVGID_14_)" d="M95.3,566.2l-11.9,54.1h1.6c20.6,0,36.8-21.1,36.8-39.6c0-14.1-9.2-26.5-33.5-26.5
			c-29.8,0-63.9,18.9-63.9,59c0,12.4,3.3,14.6,3.7,16.8c-16.8,0-27.6-5.9-27.6-22.2c0-33.5,44.4-64.4,93.1-64.4
			c37.4,0,54.6,18.9,54.6,38.5c0,14.1-9.2,29.8-25.4,38.5c21.7,4.3,30.3,21.1,30.3,39c0,23.3-13.5,69.8-55.7,69.8
			c-10.8,0-25.4-3.3-25.4-17.9c0-3.7,1.1-8.7,3.3-14.1c6.5,6.5,11.3,8.7,17.4,8.7c18.9,0,25.4-25.4,25.4-43.9
			c0-16.8-5.4-30.9-24.4-30.9c-2.2,0-7,0-11.9,0.5l-22.2,93.7H22.8l34.6-154.8L95.3,566.2z"/>
		
			<linearGradient id="SVGID_15_" gradientUnits="userSpaceOnUse" x1="42.8236" y1="132.2856" x2="42.8236" y2="109.3432" gradientTransform="matrix(5.4136 0 0 5.4136 6.849319e-03 10.8139)">
			<stop  offset="0" style="stop-color:#9E938B"/>
			<stop  offset="4.603624e-02" style="stop-color:#A69C95"/>
			<stop  offset="0.2067" style="stop-color:#C0B8B3"/>
			<stop  offset="0.376" style="stop-color:#D3CECB"/>
			<stop  offset="0.5557" style="stop-color:#E1DEDC"/>
			<stop  offset="0.7527" style="stop-color:#E9E7E6"/>
			<stop  offset="1" style="stop-color:#ECEAE9"/>
		</linearGradient>
		<path fill="url(#SVGID_15_)" d="M283.7,604.1l-18.3,82.4c-0.5,3.3-1.1,5.4-1.1,7.6c0,7,3.3,10.3,10.3,10.3
			c9.8,0,16.8-10.8,20.6-22.8H306c-14.6,39.6-37.9,45-51.4,45c-14.6,0-23.9-7.6-24.9-22.2c-8.1,11.3-20,22.2-37.9,22.2
			c-17.4,0-34.1-10.3-34.1-39c0-33,21.1-85,65.5-85c14.6,0,20.6,5.4,20.6,12.4v1.6l2.7-13h37.4v0.6H283.7z M195.4,684.3
			c0,18.9,8.1,18.9,13,18.9c7.6,0,18.4-7,21.1-21.7l12.4-54.6c0-2.7-2.2-9.2-10.3-9.2C209.5,617.7,195.4,661.5,195.4,684.3z"/>
		
			<linearGradient id="SVGID_16_" gradientUnits="userSpaceOnUse" x1="62.9008" y1="131.9836" x2="62.9008" y2="109.5266" gradientTransform="matrix(5.4136 0 0 5.4136 6.849319e-03 10.8139)">
			<stop  offset="0" style="stop-color:#9E938B"/>
			<stop  offset="4.603624e-02" style="stop-color:#A69C95"/>
			<stop  offset="0.2067" style="stop-color:#C0B8B3"/>
			<stop  offset="0.376" style="stop-color:#D3CECB"/>
			<stop  offset="0.5557" style="stop-color:#E1DEDC"/>
			<stop  offset="0.7527" style="stop-color:#E9E7E6"/>
			<stop  offset="1" style="stop-color:#ECEAE9"/>
		</linearGradient>
		<path fill="url(#SVGID_16_)" d="M349.7,604.1l-3.3,15.2c9.2-7,18.9-15.2,30.9-15.2c11.3,0,17.9,9.2,17.9,18.4
			c0,8.7-5.9,17.9-18.4,17.9c-14.1,0-7-16.3-14.6-16.3c-7.6,0-12.4,3.7-18.9,9.2l-20.6,92h-36.8l27-121.8h36.8L349.7,604.1
			L349.7,604.1z"/>
		
			<linearGradient id="SVGID_17_" gradientUnits="userSpaceOnUse" x1="81.7847" y1="132.3116" x2="81.7847" y2="100.6106" gradientTransform="matrix(5.4136 0 0 5.4136 6.849319e-03 10.8139)">
			<stop  offset="0" style="stop-color:#9E938B"/>
			<stop  offset="4.603624e-02" style="stop-color:#A69C95"/>
			<stop  offset="0.2067" style="stop-color:#C0B8B3"/>
			<stop  offset="0.376" style="stop-color:#D3CECB"/>
			<stop  offset="0.5557" style="stop-color:#E1DEDC"/>
			<stop  offset="0.7527" style="stop-color:#E9E7E6"/>
			<stop  offset="1" style="stop-color:#ECEAE9"/>
		</linearGradient>
		<path fill="url(#SVGID_17_)" d="M419,560.3l37.9-4.8l-12.4,54.6c10.3-5.9,15.7-7,21.1-7c17.9,0,30.3,10.8,30.3,41.7
			c0,28.1-15.7,82.3-70.4,82.3c-23.3,0-35.7-11.9-35.7-30.9c0-4.3,0.5-8.7,1.6-14.1L419,560.3z M456.4,620.4
			c-3.7,0-12.4,1.1-15.2,4.3l-14.1,61.7c-0.5,2.2-0.5,3.7-0.5,5.4c0,7,4.3,11.3,13.5,11.3c16.8,0,29.8-34.1,29.8-59.6
			C469.9,631.7,465.5,620.4,456.4,620.4z"/>
		
			<linearGradient id="SVGID_18_" gradientUnits="userSpaceOnUse" x1="102.1433" y1="132.2023" x2="102.1433" y2="109.1918" gradientTransform="matrix(5.4136 0 0 5.4136 6.849319e-03 10.8139)">
			<stop  offset="0" style="stop-color:#9E938B"/>
			<stop  offset="4.603624e-02" style="stop-color:#A69C95"/>
			<stop  offset="0.2067" style="stop-color:#C0B8B3"/>
			<stop  offset="0.376" style="stop-color:#D3CECB"/>
			<stop  offset="0.5557" style="stop-color:#E1DEDC"/>
			<stop  offset="0.7527" style="stop-color:#E9E7E6"/>
			<stop  offset="1" style="stop-color:#ECEAE9"/>
		</linearGradient>
		<path fill="url(#SVGID_18_)" d="M603.6,634.5c0,0,1.1,3.7,0,15.7c-3.7,46.6-28.7,76.3-60.7,76.3c-23.9,0-41.1-10.8-41.1-38.5
			c0-28.1,16.8-86.1,69.3-86.1C591.2,602,602,612.8,603.6,634.5z M581.9,653.9c0.5-3.7,1.6-14.6,1.1-23.9
			c-0.5-10.3-3.3-14.1-9.8-14.1c-18.4,0-33,44.4-33,68.3c0,16.3,3.3,19.5,13,19.5C565.2,704.8,577.7,682.6,581.9,653.9z"/>
	</g>
	<g>
		<g id="top_9_">
			
				<linearGradient id="SVGID_19_" gradientUnits="userSpaceOnUse" x1="34.3727" y1="6.0271" x2="77.861" y2="6.0271" gradientTransform="matrix(5.4136 0 0 5.4136 6.849319e-03 10.8139)">
				<stop  offset="0" style="stop-color:#F2F0E8"/>
				<stop  offset="0.102" style="stop-color:#B7B4AE"/>
				<stop  offset="0.1995" style="stop-color:#87827E"/>
				<stop  offset="0.2909" style="stop-color:#615C58"/>
				<stop  offset="0.3745" style="stop-color:#46403D"/>
				<stop  offset="0.4479" style="stop-color:#362F2D"/>
				<stop  offset="0.503" style="stop-color:#302927"/>
				<stop  offset="0.5582" style="stop-color:#362F2D"/>
				<stop  offset="0.6303" style="stop-color:#463F3C"/>
				<stop  offset="0.7118" style="stop-color:#605A57"/>
				<stop  offset="0.8001" style="stop-color:#85807B"/>
				<stop  offset="0.894" style="stop-color:#B4B0AA"/>
				<stop  offset="0.9912" style="stop-color:#ECEAE2"/>
				<stop  offset="1" style="stop-color:#F2F0E8"/>
			</linearGradient>
			<path display="none" fill="url(#SVGID_19_)" d="M407.6,70.9c-0.5,0-1.6,0.5-2.2,0.5c-2.2-15.2-5.4-30.9-9.2-47.1h-40.6
				c3.7,14.6,5.9,29.2,9.2,50.9c-3.3-2.2-5.9-0.5-6.5-4.8c-0.5-0.5-1.6-0.5-2.2-0.5c-3.3-0.5-7.6-3.3-10.3-3.7
				c-3.3-1.1-5.9-1.1-9.2-2.2c-3.3-1.1-7,2.2-9.8,1.1c-3.3-0.5-4.8-3.3-8.1-3.3c-1.6-0.5-5.4-0.5-7-0.5c-1.6,0-8.7,2.2-9.8,2.2
				c-1.6,0-9.2-3.3-10.8-3.3c-3.3,0.5-5.9,3.3-8.7,3.7c-2.7,0.5-5.4-2.2-8.7-1.6c-2.7,0.5-6.5,4.8-9.8,5.4c-0.5-3.7-3.7-6.5-7.6-6.5
				c-2.7,0-5.4,1.6-7,3.7c-1.1-3.3-4.3-5.4-8.1-5.4c-3.3,0-6.5,1.6-7.6,4.8c-2.7-3.3-5.4-4.8-8.1-4.8s-5.4,1.6-7,4.3
				c-0.5,0-3.7-0.5-5.4-2.7c-0.5-1.1-1.6-1.1-2.2-1.6c2.7-13,5.4-24.9,8.7-36.3h-13c-2.7,8.7-4.8,18.9-7,29.2c0,0-0.5-1.1-1.1-1.1
				c-3.7-3.3-11.9-4.8-13-2.7c3.3-15.2,11.3-37.9,11.3-37.9h209c0,0,13.5,37.9,15.7,65C418.5,70.4,410.4,69.8,407.6,70.9z M255,63.9
				c-2.2,0-4.3,2.2-4.3,4.3s2.2,4.3,4.3,4.3c2.2,0,4.3-2.2,4.3-4.3C259.3,65.5,257.7,63.9,255,63.9z M245.2,67.2
				c0,2.7-2.2,5.4-5.4,5.4c-2.7,0-5.4-2.2-5.4-5.4c0-2.7,2.2-5.4,5.4-5.4C243,61.7,245.2,63.9,245.2,67.2z M229.5,66.6
				c0,2.2-1.6,4.3-4.3,4.3c-2.2,0-4.3-1.6-4.3-4.3c0-2.2,1.6-4.3,4.3-4.3C227.9,62.2,229.5,64.4,229.5,66.6z"/>
			
				<linearGradient id="SVGID_20_" gradientUnits="userSpaceOnUse" x1="34.8892" y1="6.1911" x2="78.0134" y2="6.1911" gradientTransform="matrix(5.4136 0 0 5.4136 6.849319e-03 10.8139)">
				<stop  offset="0" style="stop-color:#F2F0E8"/>
				<stop  offset="4.271757e-03" style="stop-color:#F2F0E8;stop-opacity:0.9915"/>
				<stop  offset="0.2887" style="stop-color:#FCFBF9;stop-opacity:0.426"/>
				<stop  offset="0.503" style="stop-color:#FFFFFF;stop-opacity:0"/>
				<stop  offset="0.7133" style="stop-color:#FCFBF9;stop-opacity:0.4231"/>
				<stop  offset="0.9871" style="stop-color:#F3F1E9;stop-opacity:0.9741"/>
				<stop  offset="1" style="stop-color:#F2F0E8"/>
			</linearGradient>
			<path fill="url(#SVGID_20_)" d="M232.3,68.2c0,2.2-1.6,4.3-4.3,4.3c-2.2,0-4.3-1.6-4.3-4.3c0-2.2,1.6-4.3,4.3-4.3
				C230.1,63.9,232.3,65.5,232.3,68.2z M242.5,63.3c-2.7,0-5.4,2.2-5.4,5.4c0,2.7,2.2,5.4,5.4,5.4c2.7,0,5.4-2.2,5.4-5.4
				C247.4,65.5,245.2,63.3,242.5,63.3z M407.2,13H199.7c-1.1,2.7-8.7,23.3-10.8,37.9c1.1-2.2,9.2-1.1,13,2.7c0,0,0.5,1.1,1.1,1.1
				c2.2-10.8,4.3-20.6,7-29.2h13c-3.3,10.8-6.5,23.3-8.7,35.7c1.1,0,1.6,0.5,2.2,1.1c1.6,2.2,4.3,2.2,5.4,2.7
				c1.1-2.7,3.7-4.3,6.5-4.3c2.7,0,5.4,1.6,6.5,4.3c1.6-2.7,4.3-4.8,7.6-4.8c3.7,0,7,2.2,8.1,5.4c1.1-2.2,3.7-3.7,7-3.7
				c3.7,0,7,2.7,7.6,6.5c3.3-0.5,7-4.8,9.8-5.4c3.3-0.5,5.4,2.2,8.7,1.6c3.3-0.5,5.4-3.3,8.7-3.7c1.6,0,9.2,3.3,10.8,3.3
				s8.7-2.7,9.8-2.2c1.6,0,5.4,0,7,0.5c2.7,0.5,4.8,2.7,8.1,3.3c2.7,0.5,6.5-2.2,9.8-1.1c2.7,1.1,5.9,1.1,8.7,2.2
				c2.7,1.1,7,3.3,10.3,3.7c0.5,0,1.6,0.5,2.2,0.5c0.5,4.3,3.3,2.7,6.5,4.8c-2.7-21.7-5.4-36.3-9.2-50.9h40.6
				c4.3,16.3,7,32,9.2,46.6c0.5,0,1.6-0.5,2.2-0.5c2.7-1.1,10.8-0.5,14.1,4.8C420.7,51.4,407.6,15.7,407.2,13z M257.1,65
				c-2.2,0-4.3,1.6-4.3,4.3c0,2.2,2.2,4.3,4.3,4.3c2.2,0,4.3-2.2,4.3-4.3S259.9,65,257.1,65z"/>
			
				<linearGradient id="SVGID_21_" gradientUnits="userSpaceOnUse" x1="70.5072" y1="54.9522" x2="70.5072" y2="-0.8708" gradientTransform="matrix(5.4136 0 0 5.4136 6.849319e-03 10.8139)">
				<stop  offset="0" style="stop-color:#C6C4C3"/>
				<stop  offset="0.1049" style="stop-color:#C9C6C5"/>
				<stop  offset="1" style="stop-color:#DDD8D5"/>
			</linearGradient>
			<path fill="url(#SVGID_21_)" d="M356.3,25.9c3.7,14.6,7,33.5,9.8,55.2c4.3,2.7,9.8,3.7,9.8,3.7c4.3,16.8,24.4-2.2,26.5-10.8
				c1.6-0.5,3.3-1.1,4.8-1.1c-2.2-14.6-5.4-30.3-9.2-46.6h-41.7V25.9z"/>
			
				<linearGradient id="SVGID_22_" gradientUnits="userSpaceOnUse" x1="39.2527" y1="8.7896" x2="39.2527" y2="4.33" gradientTransform="matrix(5.4136 0 0 5.4136 6.849319e-03 10.8139)">
				<stop  offset="0" style="stop-color:#EAE4E0"/>
				<stop  offset="1" style="stop-color:#EAE4E0"/>
			</linearGradient>
			<path fill="url(#SVGID_22_)" d="M209.5,25.4c-2.7,8.7-4.8,18.4-7,28.7c1.6,2.2,2.2,5.4,4.3,7c1.6,1.6,4.8,0,7,0
				c2.7-12.4,5.4-24.9,8.7-35.7C222.5,25.4,209.5,25.4,209.5,25.4z"/>
		</g>
		<g id="owl_body_15_">
			
				<linearGradient id="SVGID_23_" gradientUnits="userSpaceOnUse" x1="56.093" y1="83.412" x2="56.093" y2="9.6982" gradientTransform="matrix(5.4136 0 0 5.4136 6.849319e-03 10.8139)">
				<stop  offset="0" style="stop-color:#E8A223"/>
				<stop  offset="2.812459e-02" style="stop-color:#ECAE30"/>
				<stop  offset="9.454300e-02" style="stop-color:#F3C648"/>
				<stop  offset="0.1557" style="stop-color:#F7D457"/>
				<stop  offset="0.2061" style="stop-color:#F9D95C"/>
				<stop  offset="0.3159" style="stop-color:#F3CB46"/>
				<stop  offset="0.4667" style="stop-color:#E8B321"/>
				<stop  offset="0.5726" style="stop-color:#D59824"/>
				<stop  offset="0.7008" style="stop-color:#C17C27"/>
				<stop  offset="0.7758" style="stop-color:#BA7228"/>
				<stop  offset="0.8399" style="stop-color:#BC7527"/>
				<stop  offset="0.8882" style="stop-color:#C37F26"/>
				<stop  offset="0.9314" style="stop-color:#D08F22"/>
				<stop  offset="0.9713" style="stop-color:#E1A61E"/>
				<stop  offset="1" style="stop-color:#F1BB1A"/>
			</linearGradient>
			<path fill="url(#SVGID_23_)" d="M352.4,455.9c-16.8,4.3-37.4,6.5-56.3,6.5c-46.6-2.7-59.6-9.8-59.6-9.8
				c10.8-52.5,0.5-122.3-24.9-179.2c-36.3-78.5-30.3-153.8-21.1-210.1c0,0,4.3,6.5,9.8,11.9c-6.5,40.6-8.1,90.9,2.7,140.3
				c10.8,47.6,60.7,148.8,48.7,231.2c14.1-83.3-23.3-161.4-40-232.8c-10.3-42.8-8.7-89.9-2.2-131c4.3,2.2,11.3,4.3,17.4,4.3
				c11.9,0,55.2-10.3,74.7-10.3c15.7,0,42.8,2.7,68.3,13.5c6.5,55.2,8.7,122.9-1.6,167.9C350.2,332.4,348.1,402.2,352.4,455.9z
				 M419,85.5L419,85.5L419,85.5c0-0.5,0-0.5,0-0.5s-5.4,3.3-10.8,5.9c4.8,47.6,1.6,83.9-0.5,98.5c-7,44.4-25.9,74.2-35.2,113.7
				c-5.4,21.7-16.3,80.7-8.1,147.7c0.5,0,2.2-0.5,2.2-0.5l1.1-0.5v-1.1c-8.7-53.1,2.2-119.1,28.7-175.4
				C422.2,216.6,429.8,155.3,419,85.5z"/>
			
				<linearGradient id="SVGID_24_" gradientUnits="userSpaceOnUse" x1="70.2806" y1="83.3265" x2="70.2806" y2="9.6901" gradientTransform="matrix(5.4136 0 0 5.4136 6.849319e-03 10.8139)">
				<stop  offset="0" style="stop-color:#EFDCC6"/>
				<stop  offset="4.773070e-02" style="stop-color:#F1DCB7"/>
				<stop  offset="0.1476" style="stop-color:#F5DC9B"/>
				<stop  offset="0.2061" style="stop-color:#F7DC91"/>
				<stop  offset="0.3677" style="stop-color:#F4D07B"/>
				<stop  offset="0.4667" style="stop-color:#F1C76B"/>
				<stop  offset="0.6459" style="stop-color:#EBC081"/>
				<stop  offset="0.7627" style="stop-color:#E9BD89"/>
				<stop  offset="0.8934" style="stop-color:#F2D29D"/>
				<stop  offset="1" style="stop-color:#F8DEA8"/>
			</linearGradient>
			<path fill="url(#SVGID_24_)" d="M409.3,90.9c-5.4,2.7-12.4,5.4-19.5,5.4c-4.3,0-10.8-1.1-14.6-2.7c-2.7-1.6-5.4-2.7-8.1-3.7
				c1.6,11.9,2.7,24.9,3.7,37.4c21.1,3.7,36.8,22.2,36.8,44.4c0,21.7-15.7,40-35.7,43.9c-1.1,15.2-2.7,29.2-5.9,41.7
				c-17.4,75.3-19.5,144-15.2,197.6c4.8-1.6,10.3-2.7,14.6-4.3c-8.1-66.6,2.7-125.1,8.1-147.3c9.2-39.6,28.1-69.3,35.2-113.7
				C410.9,174.9,414.6,138.1,409.3,90.9z"/>
			
				<linearGradient id="SVGID_25_" gradientUnits="userSpaceOnUse" x1="41.4575" y1="83.4104" x2="41.4575" y2="9.684" gradientTransform="matrix(5.4136 0 0 5.4136 6.849319e-03 10.8139)">
				<stop  offset="0" style="stop-color:#F0B534"/>
				<stop  offset="4.431041e-02" style="stop-color:#F2C047"/>
				<stop  offset="0.1509" style="stop-color:#F7D76F"/>
				<stop  offset="0.2061" style="stop-color:#F9E07F"/>
				<stop  offset="0.4114" style="stop-color:#F3CA6E"/>
				<stop  offset="0.4667" style="stop-color:#F1C369"/>
				<stop  offset="0.6459" style="stop-color:#E2B87F"/>
				<stop  offset="0.7627" style="stop-color:#DDB487"/>
				<stop  offset="0.8606" style="stop-color:#E2BB8C"/>
				<stop  offset="1" style="stop-color:#EFCE9A"/>
			</linearGradient>
			<path fill="url(#SVGID_25_)" d="M201.4,214.4c10.8,47.6,59,144,49.8,231.7c16.8-85-22.2-161.4-39-232.8
				c-10.3-42.8-8.7-89.9-2.2-131c-4.8-2.2-8.1-5.4-11.3-8.1C192.2,114.8,190.6,165.7,201.4,214.4z"/>
		</g>
		<g id="foam_9_">
			
				<linearGradient id="SVGID_26_" gradientUnits="userSpaceOnUse" x1="34.4524" y1="10.859" x2="77.2815" y2="10.859" gradientTransform="matrix(5.4136 0 0 5.4136 6.849319e-03 10.8139)">
				<stop  offset="0" style="stop-color:#F2E5D3"/>
				<stop  offset="0.503" style="stop-color:#FFF7F0"/>
				<stop  offset="0.5521" style="stop-color:#FDF4EC"/>
				<stop  offset="0.8135" style="stop-color:#F5E9DA"/>
				<stop  offset="1" style="stop-color:#F2E5D3"/>
			</linearGradient>
			<path fill="url(#SVGID_26_)" d="M201.9,53.1l0.5,1.1c-1.1,5.9-2.2,12.4-3.3,18.9c-3.7-3.7-7-9.2-11.3-15.7c0.5-2.2,1.1-4.3,1.6-7
				C190.6,48.1,198.2,49.8,201.9,53.1z M422.8,79.6c0-0.5-1.1-2.7-1.1-2.7c-1.1-4.8-10.3-5.4-13-4.3c-0.5,0-1.6,0.5-2.2,0.5
				c0.5,2.2,1.1,8.1,2.2,16.8C414.6,86.6,420.1,82.3,422.8,79.6z M365.9,75.7c0.5,3.7,1.1,8.1,1.6,12.4c-2.2-1.1-4.8-2.2-7-3.3l0,0
				c-19.4-8.1-35.7-10.3-56.8-10.3c-41.7-0.5-62.8,12.4-82.8,8.7c-4.3-0.5-7.6-1.6-10.8-2.7c1.1-6.5,2.2-13,3.7-19.5
				c1.1,0,1.6,0.5,2.2,1.1c1.6,2.2,4.3,2.2,5.4,2.7c1.1-2.7,3.7-4.3,6.5-4.3c2.8,0,5.4,1.6,6.5,4.3c1.6-2.7,4.3-4.8,7.6-4.8
				c3.7,0,7,2.2,8.1,5.4c1.1-2.2,3.7-3.7,7-3.7c3.7,0,7,2.7,7.6,6.5c3.3-0.5,7-4.8,9.8-5.4c3.3-0.5,5.4,2.2,8.7,1.6
				c3.3-0.5,5.4-3.3,8.7-3.7c1.6,0,9.2,3.3,10.8,3.3c1.6,0,8.7-2.7,9.8-2.2c1.6,0,5.4,0.5,7,0.5c2.7,0.5,4.8,2.7,8.1,3.3
				c2.7,0.5,6.5-2.2,9.8-1.1c2.7,1.1,5.9,1.1,8.7,2.2c2.7,1.1,7,3.3,10.3,3.7c0.5,0,1.1,0.5,1.6,0.5l0,0l0,0l0,0l0,0
				c1.6,1.1,2.7,2.7,4.8,3.3C364.3,75.3,365.4,75.3,365.9,75.7z M231.7,68.2c0-2.2-1.6-3.7-3.7-3.7s-3.7,1.6-3.7,3.7
				s1.6,3.7,3.7,3.7C230.1,72,231.7,70.4,231.7,68.2z M247.4,68.7c0-2.7-2.2-4.8-4.8-4.8s-4.8,2.2-4.8,4.8s2.2,4.8,4.8,4.8
				S247.4,71.5,247.4,68.7z M261.5,69.3c0-2.2-1.6-4.3-4.3-4.3c-2.2,0-4.3,1.6-4.3,4.3c0,2.2,1.6,4.3,4.3,4.3
				C259.3,73.6,261.5,71.5,261.5,69.3z"/>
			<path fill="#FFFFFF" d="M402.2,74.2L402.2,74.2c-1.1,0-1.6,0.5-2.7,0.5c-3.3,0.5-5.4,5.4-8.7,5.4c-3.3,0.5-6.5-3.3-9.2-3.3
				c-3.3,0-5.9,0.5-9.2,0.5c-2.7,0-5.4-1.1-7.6-2.2c0.5,3.7,1.1,8.1,1.6,12.4c2.7,1.1,5.4,2.7,8.7,3.7c9.8,4.8,20.6,3.7,29.8-0.5
				l0,0c1.6-0.5,2.7-1.1,4.3-2.2c-0.5-5.4-1.1-10.8-2.2-16.8C405.5,73.1,403.9,73.6,402.2,74.2z"/>
			<path fill="#FFFFFF" d="M206.8,61.1c-2.2-1.6-2.7-4.8-4.3-7c-1.1,5.9-2.2,12.4-3.3,18.9c3.3,3.3,6.5,5.9,11.3,8.1
				c1.1-6.5,2.2-13,3.7-19.5C211.7,61.1,208.4,62.2,206.8,61.1z"/>
		</g>
		<g id="line_9_">
			
				<linearGradient id="SVGID_27_" gradientUnits="userSpaceOnUse" x1="34.6246" y1="11.7934" x2="23569.8418" y2="11.7934" gradientTransform="matrix(5.4136 0 0 5.4136 6.849319e-03 10.8139)">
				<stop  offset="0" style="stop-color:#C08329"/>
				<stop  offset="1" style="stop-color:#BA7228"/>
			</linearGradient>
			<path fill="url(#SVGID_27_)" d="M187.3,57.4c4.8,6.5,8.1,11.3,11.3,15.7c0,1.1,0,1.6-0.5,2.7c-3.3-3.7-6.5-8.7-11.3-15.2v-3.3
				L187.3,57.4L187.3,57.4z M360,84.4c-19.5-8.1-35.2-9.8-56.3-10.3c-41.7-0.5-63.3,12.4-83.3,8.7c-4.3-0.5-7.6-1.6-10.3-2.7
				c0,1.1-0.5,2.2-0.5,2.7c2.7,1.1,6.5,2.2,10.8,2.7c20,3.3,41.7-9.2,83.3-8.7c21.1,0.5,36.8,2.2,56.8,10.3c2.2,1.1,4.3,1.6,6.5,2.7
				c0-1.1,0-2.2-0.5-3.3C364.3,86.6,362.2,85.5,360,84.4z M409.3,89.4c0,1.1,0,2.2,0.5,2.7c5.4-2.7,9.2-5.9,11.3-8.1v-2.7
				C419,83.3,414.6,86.6,409.3,89.4z"/>
			<path fill="#DDD1C5" d="M405,90.9c-9.2,3.7-20,5.4-29.2,0.5c-3.3-1.6-5.9-2.7-8.7-4.3c0,1.1,0,2.2,0.5,3.3
				c2.7,1.1,5.4,2.7,8.1,3.7c9.8,4.8,20.6,3.3,29.8-0.5c1.6-0.5,2.7-1.1,4.3-2.2c0-1.1,0-2.2-0.5-2.7
				C407.6,89.8,406.6,90.4,405,90.9z"/>
			<path fill="#D8C3B0" d="M199.2,72.5c0,1.1,0,1.6-0.5,2.7c3.3,3.7,6.5,5.9,11.3,8.1c0-1.1,0.5-2.2,0.5-2.7
				C205.2,78.5,201.9,76.3,199.2,72.5z"/>
		</g>
		<g id="bottom_9_">
			
				<radialGradient id="SVGID_28_" cx="56.3732" cy="83.358" r="10.6909" gradientTransform="matrix(2.021978e-02 -5.4136 5.9517 2.223002e-02 -192.0991 765.4163)" gradientUnits="userSpaceOnUse">
				<stop  offset="0" style="stop-color:#FFFFFF;stop-opacity:0.17"/>
				<stop  offset="1" style="stop-color:#E0DFDE"/>
			</radialGradient>
			<path fill="url(#SVGID_28_)" d="M369.2,513.8c-5.4,2.2-9.2,2.7-9.2,2.7c-3.7-16.3-7-36.3-8.7-59.6c-37.9,9.2-88.3,7-118.1-5.4
				c-2.7,9.8-9.8,22.8-9.8,23.3c-1.1,3.7-1.6,8.1-2.7,12.4c-2.2,8.1-1.1,14.6,3.3,20c5.4,7,16.8,11.9,34.6,14.6
				c11.9,1.6,27,2.2,45,2.2c20,0,36.3-1.1,48.7-2.7c16.3-2.7,26.5-7.6,31.4-14.1c4.3-5.4,5.4-11.9,3.3-20c-0.5-2.7-1.6-5.4-2.2-8.1
				c-3.3-4.8-8.7-13.5-12.4-28.7c-2.2,1.1-5.4,2.2-7.6,3.3c2.2,18.4,5.9,37.4,11.9,56.8C376.8,509.4,374.1,512.1,369.2,513.8z
				 M248.5,497c-8.1-1.6-14.6-6.5-14.1-11.3c0.5-4.8,8.1-7.6,16.3-5.9c8.1,1.6,14.6,6.5,14.1,11.3
				C264.2,495.9,256.6,498.6,248.5,497z"/>
			
				<linearGradient id="SVGID_29_" gradientUnits="userSpaceOnUse" x1="67.2551" y1="93.4546" x2="67.2551" y2="81.5576" gradientTransform="matrix(5.4136 0 0 5.4136 6.849319e-03 10.8139)">
				<stop  offset="0" style="stop-color:#DFDAD7"/>
				<stop  offset="0.3787" style="stop-color:#ECE9E8"/>
				<stop  offset="1" style="stop-color:#FFFFFF"/>
			</linearGradient>
			<path fill="url(#SVGID_29_)" d="M350.8,456.4c2.2,23.3,4.8,43.9,8.7,60.1c0,0,4.3-0.5,9.8-2.7c4.3-1.6,8.1-4.3,8.1-4.3
				c-5.9-19.5-9.8-38.5-11.9-57.4C365.4,452.6,350.8,456.4,350.8,456.4z"/>
			<path fill="#FFFFFF" d="M248.5,497.5c8.7,1.6,16.3-1.1,17.4-6.5c0.5-4.8-5.9-10.3-14.6-11.9c-8.7-1.6-16.3,1.1-17.4,6.5
				C232.8,490.5,239.9,495.9,248.5,497.5z"/>
		</g>
		<g id="edge_19_">
			
				<linearGradient id="edge_4_" gradientUnits="userSpaceOnUse" x1="55.7373" y1="86.7096" x2="55.7373" y2="9.686806e-02" gradientTransform="matrix(5.4136 0 0 5.4136 6.849319e-03 10.8139)">
				<stop  offset="0" style="stop-color:#F2F0E8"/>
				<stop  offset="0.563" style="stop-color:#E2E0DA"/>
				<stop  offset="1" style="stop-color:#DBD9D4"/>
			</linearGradient>
			<path id="edge_21_" display="none" fill="url(#edge_4_)" d="M189,11.3h8.7l-1.1,3.3c-16.8,45.5-27.6,128.3-11.3,201.9
				c2.7,12.4,8.1,28.1,15.2,46.1c21.7,56.3,56.3,158.6,20.6,213.3c17.9-87.2-8.7-159.2-27.6-212.3c-6.5-17.9-12.4-33.5-15.2-47.1
				C161.9,141.8,172.1,57.9,189,11.3z M405,11.3l1.1,3.3c16.8,45.5,27,127.7,11.3,201.9c-2.7,12.4-8.1,28.7-15.2,47.1
				c-21.7,58.5-56.3,164.6-18.9,216.6c-3.3-15.2-5.4-30.3-6.5-44.4c-2.2-28.1,0-54.6,5.4-78.5c7-35.2,18.4-66.6,28.1-93.1
				c6.5-18.4,12.4-34.1,15.2-47.1c16.3-74.7,5.4-158.6-11.3-205.7C414.2,11.3,405,11.3,405,11.3z"/>
			
				<linearGradient id="edge_5_" gradientUnits="userSpaceOnUse" x1="55.9493" y1="86.3088" x2="55.9493" y2="0.4066" gradientTransform="matrix(5.4136 0 0 5.4136 6.849319e-03 10.8139)">
				<stop  offset="0" style="stop-color:#F2F0E8"/>
				<stop  offset="0.563" style="stop-color:#E2E0DA"/>
				<stop  offset="1" style="stop-color:#DBD9D4"/>
			</linearGradient>
			<path id="edge_20_" fill="url(#edge_5_)" d="M190.1,13h10.3l-1.1,3.3c-16.8,45-27,127.2-11.3,200.3c2.7,12.4,8.1,27.6,15.2,46.1
				c21.1,55.7,55.7,157.5,20.6,211.7c17.9-86.6-9.8-158.1-29.2-210.6c-6.5-17.9-12.4-35.7-15.7-48.2
				C158.1,144.6,173.2,59.6,190.1,13z M406.1,13l1.1,3.3c16.8,45,27,127.2,11.3,200.3c-2.7,12.4-8.1,28.1-15.2,46.6
				c-21.7,57.9-55.7,163.5-18.9,214.9c-3.3-15.2-5.4-29.8-6.5-44.4c-2.2-28.1,0-54.1,5.4-77.9c7-35.2,19.5-66.1,29.2-92
				c6.5-17.9,11.9-33.5,15.2-46.6c18.9-74.7,5.9-157.5-10.8-204.1L406.1,13L406.1,13z"/>
			
				<linearGradient id="SVGID_30_" gradientUnits="userSpaceOnUse" x1="34.8164" y1="-0.1035" x2="76.7016" y2="-0.1035" gradientTransform="matrix(5.4136 0 0 5.4136 6.849319e-03 10.8139)">
				<stop  offset="0" style="stop-color:#B1AEAB"/>
				<stop  offset="5.338116e-02" style="stop-color:#BAB6B3"/>
				<stop  offset="0.233" style="stop-color:#D1CECB"/>
				<stop  offset="0.3996" style="stop-color:#E0DCD9"/>
				<stop  offset="0.5394" style="stop-color:#E5E1DE"/>
				<stop  offset="0.652" style="stop-color:#D8D5D1"/>
				<stop  offset="0.8586" style="stop-color:#B7B4B0"/>
				<stop  offset="1" style="stop-color:#9C9A96"/>
			</linearGradient>
			<path display="none" fill="url(#SVGID_30_)" d="M413.6,11.3H190.1c-1.1,0-1.6-0.5-1.6-1.1s0.5-1.1,1.6-1.1h223.6
				c1.1,0,1.6,0.5,1.6,1.1S414.6,11.3,413.6,11.3L413.6,11.3z"/>
			
				<linearGradient id="SVGID_31_" gradientUnits="userSpaceOnUse" x1="35.3083" y1="0.2062" x2="76.8838" y2="0.2062" gradientTransform="matrix(5.4136 0 0 5.4136 6.849319e-03 10.8139)">
				<stop  offset="0" style="stop-color:#FFFFFF;stop-opacity:0"/>
				<stop  offset="0.5394" style="stop-color:#E5E1DE"/>
				<stop  offset="0.753" style="stop-color:#EFEDEB;stop-opacity:0.5362"/>
				<stop  offset="1" style="stop-color:#FFFFFF;stop-opacity:0"/>
			</linearGradient>
			<path fill="url(#SVGID_31_)" d="M414.6,13H192.7c-1.1,0-1.6-0.5-1.6-1.1s0.5-1.1,1.6-1.1h221.9c1.1,0,1.6,0.5,1.6,1.1
				S415.7,13,414.6,13L414.6,13z"/>
		</g>
		<g id="wings_9_">
			
				<linearGradient id="SVGID_32_" gradientUnits="userSpaceOnUse" x1="56.1052" y1="83.5942" x2="56.1052" y2="8.6051" gradientTransform="matrix(5.4136 0 0 5.4136 6.849319e-03 10.8139)">
				<stop  offset="0" style="stop-color:#8E591E"/>
				<stop  offset="8.625832e-03" style="stop-color:#9C6824"/>
				<stop  offset="2.725192e-02" style="stop-color:#B5832F"/>
				<stop  offset="4.762974e-02" style="stop-color:#C99837"/>
				<stop  offset="7.036991e-02" style="stop-color:#D6A73D"/>
				<stop  offset="9.734715e-02" style="stop-color:#DFAF40"/>
				<stop  offset="0.1394" style="stop-color:#E1B241"/>
				<stop  offset="0.3283" style="stop-color:#D09B39"/>
				<stop  offset="0.5091" style="stop-color:#BD8231"/>
				<stop  offset="0.6237" style="stop-color:#B3712C"/>
				<stop  offset="0.8" style="stop-color:#A75B26"/>
				<stop  offset="1" style="stop-color:#9E6425"/>
			</linearGradient>
			<path fill="url(#SVGID_32_)" d="M350.2,453.1c0,1.6,0.5,3.3,0.5,5.4l0,0c-14.6,3.3-30.9,4.8-47.6,4.8c-25.9,0-50.3-3.7-70.4-11.3
				c9.2-36.8,2.7-81.8-7.6-121.8c-22.2,17.9-70.9,27-108.3,9.8c-37.9-17.4-38.5-41.1-13.5-35.7c0.5,0,21.1,7,21.7,7
				c-63.8-23.8-85.4-75.7-37.8-54.1c0.5,0,21.1,8.7,21.1,8.7c-53.1-27-65.5-86.1-35.7-65.5c26.5,18.4,83.3,47.6,123.4,44.4
				c-3.7-10.8-6.5-20.6-8.7-28.1c-14.6-54.6-10.8-105,0-159.2c1.6,2.2,2.7,3.7,4.3,5.4c-10.8,66.6-11.9,137.5,21.1,209.5
				c25.9,56.8,37.9,130.5,25.9,179.7C257.1,459,304.8,466.1,350.2,453.1z M520.3,257.7c-0.5,0-21.1,8.7-21.1,8.7
				c53.1-27,65.5-86.1,35.7-65.5c-27,18.4-84.4,48.2-124,43.9c3.7-10.8,7-20,8.7-28.1c11.9-50.3,10.3-91.5,3.3-137
				c-2.7,2.2-4.3,3.7-4.8,4.3c8.7,55.7,7.6,121.2-23.3,188.4c-23.3,49.8-33.5,105-30.9,154.8c0.5,7,1.1,14.1,2.2,21.7l0,0l0,0
				c0,2.2,0.5,3.7,0.5,5.9l0,0c2.2-0.5,4.8-1.6,7-2.2c-8.7-36.3-2.2-81.2,8.7-121.8c22.2,17.9,70.9,27,108.8,9.8
				c37.9-17.4,38.5-41.1,13.5-35.7c-0.5,0-21.1,7-21.7,7C546.2,288,567.9,236,520.3,257.7z"/>
			<path fill="#D8BB9F" d="M350.8,453.1C350.8,453.1,350.2,453.1,350.8,453.1c0,1.6,0,3.3,0.5,5.4c5.4-1.1,10.3-2.2,15.2-3.7
				c0-2.2-0.5-3.7-0.5-5.9C360.6,450.4,355.7,452,350.8,453.1z"/>
		</g>
		<g id="shine_wings_9_">
			<g>
				<path fill="#A66B30" d="M434.7,286.4c12.4,24.4-2.2,42.8-31.4,24.4C433.7,337.3,454.8,308.6,434.7,286.4z"/>
				<path fill="#A66B30" d="M173.2,286.4c-11.9,24.4,2.2,42.8,31.4,24.4C174.3,337.3,153.2,308.6,173.2,286.4z"/>
			</g>
			<g>
				<path fill="#A66B30" d="M141.8,267.4c-7.6,16.8,20,22.2,30.9,18.9C160.3,286.9,141.3,283.2,141.8,267.4z"/>
				<path fill="#A66B30" d="M466.1,267.4c7.6,16.8-20,22.2-30.9,18.9C447.7,286.9,467.2,283.2,466.1,267.4z"/>
			</g>
			<g>
				<path fill="#E1B566" d="M430.4,285.8c15.2,23.9-4.3,39.6-29.8,21.1C431.5,333,450.5,308,430.4,285.8z"/>
				<path fill="#E1B566" d="M177.5,285.8c-15.2,23.9,4.3,39.6,29.8,21.1C177,333,158.1,308,177.5,285.8z"/>
			</g>
			<g>
				<path fill="#DCB16F" d="M464,265.3c7.6,17.4-20,22.2-30.9,18.4C443.3,284.7,464.5,279.9,464,265.3z"/>
				<path fill="#DCB16F" d="M144.6,265.3c-7.6,17.4,20,22.2,30.9,18.4C164.6,284.7,143.5,279.9,144.6,265.3z"/>
			</g>
			<g>
				<path fill="#EAC56E" d="M382.8,327c9.8,8.7,58.5,32.4,106.6,10.8C448.8,349.7,406.1,340,382.8,327z"/>
				<path fill="#EAC56E" d="M224.1,327c-9.8,8.7-58.5,32.4-106.6,10.8C158.6,349.7,200.8,340,224.1,327z"/>
			</g>
			<g>
				<path fill="#E1BE68" d="M487.2,313.4c4.3-1.6,8.7-3.3,13.5-4.3c28.1-5.9,12.4,9.2,10.3,12.4
					C514.3,312.4,508.3,308.6,487.2,313.4z"/>
				<path fill="#E1BE68" d="M119.6,313.4c-4.3-1.6-8.7-3.3-13.5-4.3c-28.1-5.9-12.4,9.2-10.3,12.4C92.6,312.4,99,308.6,119.6,313.4z
					"/>
			</g>
			<g>
				<path fill="#DEB162" d="M495.9,270.6c9.2-1.6,19.5-7,29.8-11.3c26.5-10.8,14.1,7,11.9,10.3c1.6-4.3,0-9.2-15.2-3.7
					C514.9,268.5,502.4,271.2,495.9,270.6z"/>
				<path fill="#DEB162" d="M111,270.6c-9.2-1.6-19.5-7-29.8-11.3c-26.5-10.8-14.1,7-11.9,10.3c-1.6-4.3,0-9.2,15.2-3.7
					C92.6,268.5,105,271.2,111,270.6z"/>
			</g>
			<g>
				<path fill="#DDA65F" d="M413.1,248.4c36.3,0,75.7-14.1,117-42.2c23.9-16.3,14.1,5.9,13,9.2c1.6-4.3-0.5-12.4-14.1-2.7
					C499.7,232.8,447.7,252.8,413.1,248.4z"/>
				<path fill="#DDA65F" d="M194.3,248.4c-36.3,0-75.7-14.1-117-42.2c-23.9-16.3-14.1,5.9-13,9.2c-1.6-4.3,0.5-12.4,14.1-2.7
					C107.7,232.8,159.7,252.8,194.3,248.4z"/>
			</g>
		</g>
		<g id="face_8_">
			<g>
				<g>
					
						<linearGradient id="SVGID_33_" gradientUnits="userSpaceOnUse" x1="64.2985" y1="37.3857" x2="69.4806" y2="22.0802" gradientTransform="matrix(5.4136 0 0 5.4136 6.849319e-03 10.8139)">
						<stop  offset="0" style="stop-color:#CA8B1F"/>
						<stop  offset="0.3172" style="stop-color:#B67A23"/>
						<stop  offset="0.903" style="stop-color:#89522D"/>
					</linearGradient>
					<path fill="url(#SVGID_33_)" d="M362.2,125.6c-25.4,0-46.1,20.6-46.1,46.1s20.6,46.1,46.1,46.1c25.4,0,46.1-20.6,46.1-46.1
						C408.7,146.2,387.6,125.6,362.2,125.6z M362.2,212.7c-21.7,0-39-17.4-39-39s17.4-39,39-39c21.7,0,39,17.4,39,39
						S383.9,212.7,362.2,212.7z"/>
					
						<linearGradient id="SVGID_34_" gradientUnits="userSpaceOnUse" x1="59.5113" y1="30.1034" x2="74.2281" y2="30.1034" gradientTransform="matrix(5.4136 0 0 5.4136 6.849319e-03 10.8139)">
						<stop  offset="0.3455" style="stop-color:#FFFFFF"/>
						<stop  offset="0.5208" style="stop-color:#FDFCFB"/>
						<stop  offset="0.676" style="stop-color:#F6F4F1"/>
						<stop  offset="0.8236" style="stop-color:#EAE5DF"/>
						<stop  offset="0.9657" style="stop-color:#D9D1C5"/>
						<stop  offset="1" style="stop-color:#D4CBBE"/>
					</linearGradient>
					<path fill="url(#SVGID_34_)" d="M401.7,173.8c0,22.2-17.9,40-40,40c-22.2,0-40.1-17.9-40.1-40s17.9-40,40-40
						S401.7,151.6,401.7,173.8z"/>
					<path fill="#2C2624" d="M358.9,194.3c-11.3,0-20.6-9.2-20.6-20.6c0-11.3,9.2-20.6,20.6-20.6c11.3,0,20.6,9.2,20.6,20.6
						S370.3,194.3,358.9,194.3L358.9,194.3z M358.9,157c-9.2,0-16.8,7.6-16.8,16.8s7.6,16.8,16.8,16.8c9.2,0,16.8-7.6,16.8-16.8
						C375.2,164.6,367.6,157,358.9,157L358.9,157z"/>
					
						<radialGradient id="SVGID_35_" cx="66.2653" cy="30.0923" r="3.1353" gradientTransform="matrix(5.4136 0 0 5.4136 6.849319e-03 10.8139)" gradientUnits="userSpaceOnUse">
						<stop  offset="0.1697" style="stop-color:#000000"/>
						<stop  offset="0.3148" style="stop-color:#0A0705"/>
						<stop  offset="0.564" style="stop-color:#261B12"/>
						<stop  offset="0.8853" style="stop-color:#523B28"/>
						<stop  offset="1" style="stop-color:#644830"/>
					</radialGradient>
					<circle fill="url(#SVGID_35_)" cx="358.9" cy="173.8" r="16.8"/>
					<path fill="#FFFFFF" d="M366.5,160.3c0,4.3-3.3,7.6-7.6,7.6c-4.3,0-7.6-3.3-7.6-7.6c0-4.3,3.3-7.6,7.6-7.6
						C362.7,152.7,366.5,156.4,366.5,160.3z"/>
					<path fill="#FFFFFF" d="M362.7,186.2c0,2.2-1.6,3.7-3.7,3.7s-3.7-1.6-3.7-3.7s1.6-3.7,3.7-3.7
						C361.1,182.5,362.7,184,362.7,186.2z"/>
				</g>
				<g>
					
						<linearGradient id="SVGID_36_" gradientUnits="userSpaceOnUse" x1="49.279" y1="38.4185" x2="46.1123" y2="21.1147" gradientTransform="matrix(5.4136 0 0 5.4136 6.849319e-03 10.8139)">
						<stop  offset="0" style="stop-color:#CA8B1F"/>
						<stop  offset="0.2273" style="stop-color:#BF8121"/>
						<stop  offset="0.6277" style="stop-color:#A16728"/>
						<stop  offset="0.903" style="stop-color:#89522D"/>
					</linearGradient>
					<path fill="url(#SVGID_36_)" d="M258.2,121.8c-27.6,0-49.8,22.2-49.8,49.8s22.2,49.8,49.8,49.8c27.6,0,49.8-22.2,49.8-49.8
						C307.5,144,285.3,121.8,258.2,121.8z M259.3,215.5c-23.3,0-41.7-18.4-41.7-41.7c0-22.8,18.4-41.7,41.7-41.7
						c23.3,0,41.7,18.9,41.7,41.7C301,197.1,282.6,215.5,259.3,215.5z"/>
					
						<linearGradient id="SVGID_37_" gradientUnits="userSpaceOnUse" x1="40.0998" y1="30.1034" x2="55.7892" y2="30.1034" gradientTransform="matrix(5.4136 0 0 5.4136 6.849319e-03 10.8139)">
						<stop  offset="0.3455" style="stop-color:#FFFFFF"/>
						<stop  offset="0.5208" style="stop-color:#FDFCFB"/>
						<stop  offset="0.676" style="stop-color:#F6F4F1"/>
						<stop  offset="0.8236" style="stop-color:#EAE5DF"/>
						<stop  offset="0.9657" style="stop-color:#D9D1C5"/>
						<stop  offset="1" style="stop-color:#D4CBBE"/>
					</linearGradient>
					<circle fill="url(#SVGID_37_)" cx="259.3" cy="173.8" r="42.2"/>
					<path fill="#2C2624" d="M256.1,195.4c-11.9,0-21.7-9.8-21.7-21.7s9.8-21.7,21.7-21.7c11.9,0,21.7,9.8,21.7,21.7
						C277.7,185.7,268,195.4,256.1,195.4L256.1,195.4z M256.1,155.9c-9.8,0-17.9,8.1-17.9,17.9s8.1,17.9,17.9,17.9
						c9.8,0,17.9-8.1,17.9-17.9C273.9,164,265.8,155.9,256.1,155.9L256.1,155.9z"/>
					
						<radialGradient id="SVGID_38_" cx="47.2963" cy="30.1172" r="3.348" gradientTransform="matrix(5.4136 0 0 5.4136 6.849319e-03 10.8139)" gradientUnits="userSpaceOnUse">
						<stop  offset="0.1697" style="stop-color:#000000"/>
						<stop  offset="0.3148" style="stop-color:#0A0705"/>
						<stop  offset="0.564" style="stop-color:#261B12"/>
						<stop  offset="0.8853" style="stop-color:#523B28"/>
						<stop  offset="1" style="stop-color:#644830"/>
					</radialGradient>
					<path fill="url(#SVGID_38_)" d="M273.9,173.8c0,9.8-8.1,17.9-17.9,17.9s-17.9-8.1-17.9-17.9c0-9.8,8.1-17.9,17.9-17.9
						C265.8,155.9,273.9,164,273.9,173.8z"/>
					<path fill="#FFFFFF" d="M264.2,159.7c0,4.3-3.7,8.1-8.1,8.1s-8.1-3.7-8.1-8.1s3.7-8.1,8.1-8.1S264.2,155.3,264.2,159.7z"/>
					<path fill="#FFFFFF" d="M260.4,186.8c0,2.2-1.6,4.3-4.3,4.3c-2.2,0-4.3-1.6-4.3-4.3c0-2.2,1.6-4.3,4.3-4.3
						C258.8,183,260.4,184.6,260.4,186.8z"/>
				</g>
			</g>
			<g>
				
					<linearGradient id="SVGID_39_" gradientUnits="userSpaceOnUse" x1="63.7173" y1="42.5582" x2="53.8851" y2="36.7971" gradientTransform="matrix(5.4136 0 0 5.4136 6.849319e-03 10.8139)">
					<stop  offset="0" style="stop-color:#D49927"/>
					<stop  offset="0.4515" style="stop-color:#C18226"/>
					<stop  offset="1" style="stop-color:#AE6B24"/>
				</linearGradient>
				<path fill="url(#SVGID_39_)" d="M335.6,204.1c-7-7-15.7-10.3-23.9-8.7c-8.1,1.6-12.4,5.9-16.3,10.3c-8.1,11.9-4.8,28.1,2.7,37.9
					c6.5,8.7,15.7,14.1,30.9,14.6c-1.6-9.8-0.5-22.8,1.1-28.7c7.6,1.1,13,4.8,15.7,9.2C349.2,223,342.6,211.7,335.6,204.1z
					 M324.3,254.5c-18.4-2.2-27.6-16.3-28.7-28.7c3.7,4.8,7.6,5.4,13,5.4c2.2,0,4.8-0.5,6.5-0.5c3.7-1.1,5.9-1.6,9.8-1.6l0,0
					C324.3,236.6,322.6,244.1,324.3,254.5z M339.4,227.9c-4.3-3.3-11.3-4.8-24.4-2.2c-14.6,3.3-22.8-7-17.9-15.2
					c0.5-1.1,1.6-2.2,2.2-3.3l0,0l0,0c2.7-3.3,6.5-5.9,12.4-7c15.7-3.3,30.3,14.1,29.2,29.8C341.6,229.5,339.4,227.9,339.4,227.9z"
					/>
				
					<linearGradient id="SVGID_40_" gradientUnits="userSpaceOnUse" x1="55.0794" y1="44.9494" x2="60.7804" y2="44.9494" gradientTransform="matrix(5.4136 8.120401e-03 -8.120401e-03 5.4136 -2.9371 -4.0923)">
					<stop  offset="0" style="stop-color:#FFFFFF"/>
					<stop  offset="0.2891" style="stop-color:#FFFEFC"/>
					<stop  offset="0.527" style="stop-color:#FDF9F2"/>
					<stop  offset="0.7467" style="stop-color:#FBF2E0"/>
					<stop  offset="0.9544" style="stop-color:#F9E9C8"/>
					<stop  offset="1" style="stop-color:#F8E6C2"/>
				</linearGradient>
				<path fill="url(#SVGID_40_)" d="M325.9,228.4L325.9,228.4c-4.3,0-6.5,1.1-10.3,1.6c-2.2,0.5-4.8,1.1-7,0.5
					c-5.9-0.5-9.8-1.1-13.5-5.9c1.1,13.5,10.8,27.6,29.8,30.3C323.7,244.7,324.8,236.6,325.9,228.4z"/>
				
					<linearGradient id="SVGID_41_" gradientUnits="userSpaceOnUse" x1="59.7415" y1="46.6352" x2="58.4832" y2="43.2521" gradientTransform="matrix(5.4136 8.120401e-03 -8.120401e-03 5.4136 -2.9371 -4.0923)">
					<stop  offset="0" style="stop-color:#AD6D29"/>
					<stop  offset="1" style="stop-color:#80551F"/>
				</linearGradient>
				<path fill="url(#SVGID_41_)" d="M320.5,248.4c-0.5-4.8,0.5-16.8,1.6-20l-2.2,0.5c-1.6,0.5-2.7,0.5-4.3,1.1
					c-2.2,0.5-6.5,1.1-11.3,0C305.4,238.2,310.8,245.8,320.5,248.4z"/>
				
					<linearGradient id="SVGID_42_" gradientUnits="userSpaceOnUse" x1="58.7445" y1="42.7806" x2="62.0959" y2="38.0165" gradientTransform="matrix(5.4136 8.120401e-03 -8.120401e-03 5.4136 -2.9371 -4.0923)">
					<stop  offset="4.242420e-02" style="stop-color:#E4C677"/>
					<stop  offset="0.197" style="stop-color:#EDD9A4"/>
					<stop  offset="0.3895" style="stop-color:#F7EDD5"/>
					<stop  offset="0.5361" style="stop-color:#FDFAF3"/>
					<stop  offset="0.6182" style="stop-color:#FFFFFF"/>
				</linearGradient>
				<path fill="url(#SVGID_42_)" d="M296.7,210.1c-4.8,8.7,4.8,18.4,18.4,15.7c16.3-3.7,24.4,2.2,28.1,5.4
					c0.5-16.3-14.6-35.2-30.9-32C303.7,200.8,299.3,205.7,296.7,210.1z"/>
				
					<linearGradient id="SVGID_43_" gradientUnits="userSpaceOnUse" x1="54.5512" y1="38.393" x2="63.1901" y2="38.393" gradientTransform="matrix(5.4136 0 0 5.4136 6.849319e-03 10.8139)">
					<stop  offset="0" style="stop-color:#FFEBC8"/>
					<stop  offset="0.1188" style="stop-color:#FFF0D5"/>
					<stop  offset="0.4384" style="stop-color:#FFFBF4"/>
					<stop  offset="0.6182" style="stop-color:#FFFFFF"/>
				</linearGradient>
				<path fill="url(#SVGID_43_)" d="M342.2,230.6c-2.7-7-12.4-10.3-27-7.6c-7.6,1.6-12.4-1.1-14.6-3.3c-2.2-2.2-4.3-7.6-1.1-13
					c-1.1,1.1-1.6,2.2-2.2,3.3c-4.8,8.7,3.3,18.9,18.4,15.7C330.2,222.5,338.3,226.8,342.2,230.6z"/>
			</g>
		</g>
		<g id="eyebrows_8_">
			
				<linearGradient id="SVGID_44_" gradientUnits="userSpaceOnUse" x1="-289.2794" y1="3.6796" x2="-271.6056" y2="3.6796" gradientTransform="matrix(-5.4077 -0.2577 -0.2577 5.4077 -1147.6523 22.9728)">
				<stop  offset="0" style="stop-color:#925727"/>
				<stop  offset="0.4545" style="stop-color:#854B22"/>
				<stop  offset="0.8008" style="stop-color:#8A4F24"/>
				<stop  offset="1" style="stop-color:#905326"/>
			</linearGradient>
			<path fill="url(#SVGID_44_)" d="M374.1,113.7c26.5,1.1,39-7.6,42.8-21.1c-8.1,9.2-15.7,11.3-24.4,11.9c-1.6,0,1.6-3.7,0-3.7
				c-5.9,2.7-11.3,4.3-14.6,4.3c1.6-1.6,1.6-4.3,1.1-7c-8.1,6.5-13.5,7-17.4,7c0.5-1.6-0.5-3.3-1.6-5.9c-7,8.1-13.5,9.2-17.9,10.3
				c-1.6,1.1-1.6-2.2-1.1-4.8c-14.1,5.9-19.5,23.9-22.2,33C324.3,131,337.8,112,374.1,113.7z"/>
			
				<linearGradient id="SVGID_45_" gradientUnits="userSpaceOnUse" x1="34.7446" y1="17.68" x2="55.1687" y2="17.68" gradientTransform="matrix(5.4077 -0.2577 0.2577 5.4077 1.099 22.9728)">
				<stop  offset="0" style="stop-color:#8D5525"/>
				<stop  offset="0.4545" style="stop-color:#824921"/>
				<stop  offset="0.8204" style="stop-color:#874D23"/>
				<stop  offset="1" style="stop-color:#8C5024"/>
			</linearGradient>
			<path fill="url(#SVGID_45_)" d="M239.9,109.4c-32,1.6-47.1-12.4-48.2-33c5.9,11.3,13,15.7,22.8,18.4c1.1,0.5-1.6-4.8,0-4.8
				c4.3,3.7,12.4,5.9,18.9,6.5c-1.1-1.1-2.2-4.3-1.1-7c9.8,8.1,17.9,8.7,21.7,9.2c-0.5-2.2-1.6-4.8,0.5-7.6
				c8.7,9.2,17.9,11.3,23.3,13c1.6,1.1,1.6-2.7,0.5-5.9c16.8,7.6,23.9,28.7,27,39.6C299.3,129.4,283.2,107.2,239.9,109.4z"/>
		</g>
		<g id="bubbles_8_">
			<g>
				<path fill="#E4A524" d="M285.3,395.7c-2.7,0-5.4,2.2-5.4,5.4s2.7,5.4,5.4,5.4c3.3,0,5.4-2.2,5.4-5.4
					C290.7,398.5,288,395.7,285.3,395.7z M285.3,405.5c-2.2,0-4.3-2.2-4.3-4.3c0-2.2,2.2-4.3,4.3-4.3c2.7,0,4.3,2.2,4.3,4.3
					C289.7,403.9,287.5,405.5,285.3,405.5z"/>
				<path fill="#E4A524" d="M274.5,294.5c-2.7,0-5.4,2.2-5.4,5.4c0,2.7,2.2,5.4,5.4,5.4s5.4-2.7,5.4-5.4S277.2,294.5,274.5,294.5z
					 M274.5,304.8c-2.2,0-4.3-2.2-4.3-4.3c0-2.7,2.2-4.3,4.3-4.3c2.7,0,4.3,2.2,4.3,4.3C278.8,302.6,276.7,304.8,274.5,304.8z"/>
				<path fill="#E4A524" d="M290.2,328c-4.3,0-7.6,3.3-7.6,7.6c0,4.3,3.3,7.6,7.6,7.6c4.3,0,7.6-3.3,7.6-7.6
					C297.8,331.3,294.5,328,290.2,328z M290.2,342.1c-3.3,0-6.5-2.7-6.5-6.5c0-3.3,2.7-6.5,6.5-6.5c3.3,0,6.5,2.7,6.5,6.5
					C296.7,338.9,293.9,342.1,290.2,342.1z"/>
				<path fill="#E4A524" d="M278.2,367c-2.7,0-5.4,2.2-5.4,5.4c0,2.7,2.2,5.4,5.4,5.4c2.7,0,5.4-2.2,5.4-5.4
					C283.7,369.2,281,367,278.2,367z M278.2,376.8c-2.7,0-4.3-2.2-4.3-4.3c0-2.2,2.2-4.3,4.3-4.3c2.7,0,4.3,2.2,4.3,4.3
					C282.6,374.6,280.4,376.8,278.2,376.8z"/>
				<path fill="#E4A524" d="M284.8,423.9c-2.2,0-3.7,1.6-3.7,3.7c0,2.2,1.6,3.7,3.7,3.7c2.2,0,3.7-1.6,3.7-3.7
					C289.1,426.1,286.9,423.9,284.8,423.9z M284.8,430.9c-1.6,0-2.7-1.1-2.7-2.7s1.1-3.3,2.7-3.3c1.6,0,2.7,1.1,2.7,3.3
					C288,429.3,286.4,430.9,284.8,430.9z"/>
			</g>
			<g>
				<path fill="#C59829" d="M286.4,358.9c0,0.5-0.5,1.6-1.6,1.6c-0.5,0-1.6-0.5-1.6-1.6c0-0.5,0.5-1.6,1.6-1.6
					C285.8,357.8,286.4,358.4,286.4,358.9z"/>
				<path fill="#C59829" d="M310.8,342.6c0,1.1-0.5,1.6-1.6,1.6c-1.1,0-1.6-0.5-1.6-1.6c0-0.5,0.5-1.6,1.6-1.6
					C310.2,341.1,310.8,341.6,310.8,342.6z"/>
				<circle fill="#DB9728" cx="293.9" cy="288" r="1.6"/>
				<path fill="#DB9728" d="M295,416.3c0,0.5-0.5,1.1-1.1,1.1c-0.5,0-1.1-0.5-1.1-1.1c0-0.5,0.5-1.1,1.1-1.1S295,415.7,295,416.3z"
					/>
				<path fill="#DB9728" d="M279.9,417.4c0,1.1-0.5,1.6-1.6,1.6c-1.1,0-1.6-0.5-1.6-1.6c0-1.1,0.5-1.6,1.6-1.6
					C279.3,415.7,279.9,416.3,279.9,417.4z"/>
				<circle fill="#DA9128" cx="294.5" cy="371.9" r="1.6"/>
				<circle fill="#E0A226" cx="309.1" cy="297.2" r="1.6"/>
				<path fill="#DA9128" d="M286.9,443.3c0,1.1-0.5,1.6-1.6,1.6c-1.1,0-1.6-0.5-1.6-1.6s0.5-1.6,1.6-1.6
					C286.4,441.8,286.9,442.3,286.9,443.3z"/>
				<path fill="#C59829" d="M297.8,384.9c0,0.5-0.5,1.6-1.6,1.6c-0.5,0-1.6-0.5-1.6-1.6c0-1.1,0.5-1.6,1.6-1.6
					C296.7,383.3,297.8,383.9,297.8,384.9z"/>
				<circle fill="#DB9528" cx="297.8" cy="314.5" r="1.6"/>
				<path fill="#DA9128" d="M278.8,388.1c0,1.1-0.5,1.6-1.6,1.6s-1.6-0.5-1.6-1.6s0.5-1.6,1.6-1.6
					C278.2,386.5,278.8,387,278.8,388.1z"/>
				<path fill="#DA9128" d="M301.5,355.2c0,0.5-0.5,1.1-1.1,1.1c-0.6,0-1.1-0.5-1.1-1.1c0-0.5,0.5-1.1,1.1-1.1
					C301,354.1,301.5,354.6,301.5,355.2z"/>
				<path fill="#C59829" d="M295.6,386.5c0,0.5-0.5,1.1-1.1,1.1c-0.6,0-1.1-0.5-1.1-1.1c0-0.5,0.5-1.1,1.1-1.1
					C295.1,385.4,295.6,386,295.6,386.5z"/>
				<path fill="#D09F2C" d="M273.4,326.5c0,1.1-0.5,1.6-1.6,1.6c-0.5,0-1.6-0.5-1.6-1.6c0-0.5,0.5-1.6,1.6-1.6
					C272.8,324.8,273.4,325.9,273.4,326.5z"/>
				<path fill="#D09F2C" d="M271.7,327.5c0,0.5-0.5,1.1-1.1,1.1c-0.5,0-1.1-0.5-1.1-1.1c0-0.5,0.5-1.1,1.1-1.1
					C271.2,326.5,271.7,327,271.7,327.5z"/>
				<path fill="#DA9128" d="M299.9,355.2c0,1.1-0.5,1.6-1.6,1.6s-1.6-0.5-1.6-1.6c0-1.1,0.5-1.6,1.6-1.6
					C298.9,353.5,299.9,354.1,299.9,355.2z"/>
				<circle fill="#DA9128" cx="272.8" cy="343.7" r="1.6"/>
			</g>
		</g>
	</g>
</g>
</svg>
