<?xml version="1.0" encoding="UTF-8" standalone="no"?>
<svg
   xmlns:dc="http://purl.org/dc/elements/1.1/"
   xmlns:cc="http://creativecommons.org/ns#"
   xmlns:rdf="http://www.w3.org/1999/02/22-rdf-syntax-ns#"
   xmlns:svg="http://www.w3.org/2000/svg"
   xmlns="http://www.w3.org/2000/svg"
   viewBox="0 0 302.85733 92.077202"
   height="92.077202"
   width="302.85733"
   xml:space="preserve"
   id="svg2"
   version="1.1"><metadata
     id="metadata8"><rdf:RDF><cc:Work
         rdf:about=""><dc:format>image/svg+xml</dc:format><dc:type
           rdf:resource="http://purl.org/dc/dcmitype/StillImage" /></cc:Work></rdf:RDF></metadata><defs
     id="defs6"><clipPath
       id="clipPath18"
       clipPathUnits="userSpaceOnUse"><path
         id="path16"
         d="m 11.75,44.536 c 0,-5.586 3.584,-7.649 9.371,-7.649 v 0 c -0.092,0.742 -1.23,1.406 -1.23,5.656 v 0 c 0,13.728 11.659,20.229 21.902,20.229 v 0 c 8.325,0 11.566,-4.244 11.566,-9 v 0 c 0,-6.238 -5.607,-13.483 -12.611,-13.483 v 0 H 40.214 L 44.334,58.766 31.371,57.104 19.45,4.166 h 12.622 l 7.179,31.874 c 1.579,0.175 3.331,0.252 4.032,0.252 v 0 c 6.401,0 8.319,-4.738 8.319,-10.575 v 0 c 0,-6.305 -2.262,-14.974 -8.672,-14.974 v 0 c -2.01,0 -3.679,0.844 -5.867,2.998 v 0 c -0.786,-1.91 -1.131,-3.49 -1.131,-4.814 v 0 c 0,-5.09 4.898,-6.177 8.67,-6.177 v 0 c 14.636,0 19.178,15.993 19.178,23.984 v 0 c 0,6.239 -2.89,11.978 -10.333,13.397 v 0 c 5.697,3.07 8.765,8.321 8.765,13.224 v 0 c 0,6.835 -5.784,13.236 -18.66,13.236 v 0 C 26.995,66.591 11.75,56.019 11.75,44.536" /></clipPath><linearGradient
       id="linearGradient36"
       spreadMethod="pad"
       gradientTransform="matrix(0,63.840797,63.840797,0,37.765156,2.75)"
       gradientUnits="userSpaceOnUse"
       y2="0"
       x2="1"
       y1="0"
       x1="0"><stop
         id="stop24"
         offset="0"
         style="stop-opacity:1;stop-color:#d0ccc9" /><stop
         id="stop26"
         offset="0.2"
         style="stop-opacity:1;stop-color:#b6b0ad" /><stop
         id="stop28"
         offset="0.45805387"
         style="stop-opacity:1;stop-color:#ebeaea" /><stop
         id="stop30"
         offset="0.939394"
         style="stop-opacity:1;stop-color:#ebeaea" /><stop
         id="stop32"
         offset="0.96994197"
         style="stop-opacity:1;stop-color:#ebeaea" /><stop
         id="stop34"
         offset="1"
         style="stop-opacity:1;stop-color:#ebeaea" /></linearGradient><clipPath
       id="clipPath46"
       clipPathUnits="userSpaceOnUse"><path
         id="path44"
         d="m 65.706,17.077 c 0,-9.909 5.69,-13.404 11.65,-13.404 v 0 c 6.216,0 10.34,3.83 13.053,7.661 v 0 c 0.527,-4.998 3.679,-7.661 8.594,-7.661 v 0 c 4.729,0 12.61,1.833 17.614,15.403 v 0 h -3.685 c -1.319,-4.16 -3.686,-7.831 -7.095,-7.831 v 0 c -2.45,0 -3.592,1.256 -3.592,3.579 v 0 c 0,0.745 0.077,1.579 0.345,2.668 v 0 l 6.312,28.301 H 96.283 l -0.958,-4.429 v 0.593 c 0,2.421 -2.109,4.244 -7.102,4.244 v 0 c -15.248,0 -22.517,-17.892 -22.517,-29.124 m 12.968,1.16 c 0,7.821 4.813,22.808 12.262,22.808 v 0 c 2.803,0 3.597,-2.169 3.597,-3.182 v 0 L 90.326,19.076 c -1.048,-4.834 -4.724,-7.332 -7.277,-7.332 v 0 c -1.571,0 -4.375,0.087 -4.375,6.493" /></clipPath><linearGradient
       id="linearGradient64"
       spreadMethod="pad"
       gradientTransform="matrix(0,42.527302,42.527302,0,91.161202,3.6729)"
       gradientUnits="userSpaceOnUse"
       y2="0"
       x2="1"
       y1="0"
       x1="0"><stop
         id="stop52"
         offset="0"
         style="stop-opacity:1;stop-color:#d0ccc9" /><stop
         id="stop54"
         offset="0.2"
         style="stop-opacity:1;stop-color:#b6b0ad" /><stop
         id="stop56"
         offset="0.45805387"
         style="stop-opacity:1;stop-color:#ebeaea" /><stop
         id="stop58"
         offset="0.939394"
         style="stop-opacity:1;stop-color:#ebeaea" /><stop
         id="stop60"
         offset="0.96994197"
         style="stop-opacity:1;stop-color:#ebeaea" /><stop
         id="stop62"
         offset="1"
         style="stop-opacity:1;stop-color:#ebeaea" /></linearGradient><clipPath
       id="clipPath74"
       clipPathUnits="userSpaceOnUse"><path
         id="path72"
         d="m 130.358,40.636 1.136,5.157 H 118.88 L 109.586,4.166 h 12.618 l 7.008,31.632 c 2.188,1.908 3.765,3.152 6.407,3.152 v 0 c 2.623,0 0.159,-5.492 5.071,-5.492 v 0 c 4.3,0 6.316,3.185 6.316,6.08 v 0 c 0,3.166 -2.096,6.255 -6.061,6.255 v 0 c -4.187,0 -7.523,-2.653 -10.587,-5.157" /></clipPath><linearGradient
       id="linearGradient92"
       spreadMethod="pad"
       gradientTransform="matrix(0,41.626999,41.626999,0,128.29594,4.1659999)"
       gradientUnits="userSpaceOnUse"
       y2="0"
       x2="1"
       y1="0"
       x1="0"><stop
         id="stop80"
         offset="0"
         style="stop-opacity:1;stop-color:#d0ccc9" /><stop
         id="stop82"
         offset="0.2"
         style="stop-opacity:1;stop-color:#b6b0ad" /><stop
         id="stop84"
         offset="0.45805387"
         style="stop-opacity:1;stop-color:#ebeaea" /><stop
         id="stop86"
         offset="0.939394"
         style="stop-opacity:1;stop-color:#ebeaea" /><stop
         id="stop88"
         offset="0.96994197"
         style="stop-opacity:1;stop-color:#ebeaea" /><stop
         id="stop90"
         offset="1"
         style="stop-opacity:1;stop-color:#ebeaea" /></linearGradient><linearGradient
       id="linearGradient120"
       spreadMethod="pad"
       gradientTransform="matrix(0,58.75,58.75,0,163.37599,3.6729)"
       gradientUnits="userSpaceOnUse"
       y2="0"
       x2="1"
       y1="0"
       x1="0"><stop
         id="stop108"
         offset="0"
         style="stop-opacity:1;stop-color:#d0ccc9" /><stop
         id="stop110"
         offset="0.2"
         style="stop-opacity:1;stop-color:#b6b0ad" /><stop
         id="stop112"
         offset="0.45805387"
         style="stop-opacity:1;stop-color:#ebeaea" /><stop
         id="stop114"
         offset="0.939394"
         style="stop-opacity:1;stop-color:#ebeaea" /><stop
         id="stop116"
         offset="0.96994197"
         style="stop-opacity:1;stop-color:#ebeaea" /><stop
         id="stop118"
         offset="1"
         style="stop-opacity:1;stop-color:#ebeaea" /></linearGradient><linearGradient
       id="linearGradient148"
       spreadMethod="pad"
       gradientTransform="matrix(0,42.681698,42.681698,0,201.02295,3.8369)"
       gradientUnits="userSpaceOnUse"
       y2="0"
       x2="1"
       y1="0"
       x1="0"><stop
         id="stop136"
         offset="0"
         style="stop-opacity:1;stop-color:#d0ccc9" /><stop
         id="stop138"
         offset="0.2"
         style="stop-opacity:1;stop-color:#b6b0ad" /><stop
         id="stop140"
         offset="0.45805387"
         style="stop-opacity:1;stop-color:#ebeaea" /><stop
         id="stop142"
         offset="0.939394"
         style="stop-opacity:1;stop-color:#ebeaea" /><stop
         id="stop144"
         offset="0.96994197"
         style="stop-opacity:1;stop-color:#ebeaea" /><stop
         id="stop146"
         offset="1"
         style="stop-opacity:1;stop-color:#ebeaea" /></linearGradient><linearGradient
       id="linearGradient168"
       spreadMethod="pad"
       gradientTransform="matrix(0,65.340797,65.340797,0,37.765156,2)"
       gradientUnits="userSpaceOnUse"
       y2="0"
       x2="1"
       y1="0"
       x1="0"><stop
         id="stop164"
         offset="0"
         style="stop-opacity:1;stop-color:#d0ccc9" /><stop
         id="stop166"
         offset="1"
         style="stop-opacity:1;stop-color:#ebeaea" /></linearGradient><linearGradient
       id="linearGradient188"
       spreadMethod="pad"
       gradientTransform="matrix(0,44.027302,44.027302,0,106.356,2.9229)"
       gradientUnits="userSpaceOnUse"
       y2="0"
       x2="1"
       y1="0"
       x1="0"><stop
         id="stop184"
         offset="0"
         style="stop-opacity:1;stop-color:#d0ccc9" /><stop
         id="stop186"
         offset="1"
         style="stop-opacity:1;stop-color:#ebeaea" /></linearGradient><linearGradient
       id="linearGradient208"
       spreadMethod="pad"
       gradientTransform="matrix(0,30.800795,30.800795,0,86.603546,10.994204)"
       gradientUnits="userSpaceOnUse"
       y2="0"
       x2="1"
       y1="0"
       x1="0"><stop
         id="stop204"
         offset="0"
         style="stop-opacity:1;stop-color:#d0ccc9" /><stop
         id="stop206"
         offset="1"
         style="stop-opacity:1;stop-color:#ebeaea" /></linearGradient><linearGradient
       id="linearGradient228"
       spreadMethod="pad"
       gradientTransform="matrix(0,60.380798,60.380798,0,163.37599,2.9229)"
       gradientUnits="userSpaceOnUse"
       y2="0"
       x2="1"
       y1="0"
       x1="0"><stop
         id="stop224"
         offset="0"
         style="stop-opacity:1;stop-color:#d0ccc9" /><stop
         id="stop226"
         offset="1"
         style="stop-opacity:1;stop-color:#ebeaea" /></linearGradient><linearGradient
       id="linearGradient248"
       spreadMethod="pad"
       gradientTransform="matrix(0,29.886696,29.886696,0,165.21394,10.994204)"
       gradientUnits="userSpaceOnUse"
       y2="0"
       x2="1"
       y1="0"
       x1="0"><stop
         id="stop244"
         offset="0"
         style="stop-opacity:1;stop-color:#d0ccc9" /><stop
         id="stop246"
         offset="1"
         style="stop-opacity:1;stop-color:#ebeaea" /></linearGradient><linearGradient
       id="linearGradient268"
       spreadMethod="pad"
       gradientTransform="matrix(0,44.181698,44.181698,0,201.02383,3.0869)"
       gradientUnits="userSpaceOnUse"
       y2="0"
       x2="1"
       y1="0"
       x1="0"><stop
         id="stop264"
         offset="0"
         style="stop-opacity:1;stop-color:#d0ccc9" /><stop
         id="stop266"
         offset="1"
         style="stop-opacity:1;stop-color:#ebeaea" /></linearGradient><linearGradient
       id="linearGradient288"
       spreadMethod="pad"
       gradientTransform="matrix(0,31.628899,31.628899,0,203.9615,10.584)"
       gradientUnits="userSpaceOnUse"
       y2="0"
       x2="1"
       y1="0"
       x1="0"><stop
         id="stop284"
         offset="0"
         style="stop-opacity:1;stop-color:#d0ccc9" /><stop
         id="stop286"
         offset="1"
         style="stop-opacity:1;stop-color:#ebeaea" /></linearGradient><clipPath
       id="clipPath298"
       clipPathUnits="userSpaceOnUse"><path
         id="path296"
         d="m 11.75,44.536 c 0,-5.586 3.584,-7.649 9.371,-7.649 v 0 c -0.092,0.742 -1.23,1.406 -1.23,5.656 v 0 c 0,13.728 11.659,20.229 21.902,20.229 v 0 c 8.325,0 11.566,-4.244 11.566,-9 v 0 c 0,-6.238 -5.607,-13.483 -12.611,-13.483 v 0 H 40.214 L 44.334,58.766 31.371,57.104 19.45,4.166 h 12.622 l 7.179,31.874 c 1.579,0.175 3.331,0.252 4.032,0.252 v 0 c 6.401,0 8.319,-4.738 8.319,-10.575 v 0 c 0,-6.305 -2.262,-14.974 -8.672,-14.974 v 0 c -2.01,0 -3.679,0.844 -5.867,2.998 v 0 c -0.786,-1.91 -1.131,-3.49 -1.131,-4.814 v 0 c 0,-5.09 4.898,-6.177 8.67,-6.177 v 0 c 14.636,0 19.178,15.993 19.178,23.984 v 0 c 0,6.239 -2.89,11.978 -10.333,13.397 v 0 c 5.697,3.07 8.765,8.321 8.765,13.224 v 0 c 0,6.835 -5.784,13.236 -18.66,13.236 v 0 C 26.995,66.591 11.75,56.019 11.75,44.536 m 143.478,16.23 -9.377,-41.69 c -0.439,-1.746 -0.616,-3.331 -0.616,-4.75 v 0 c 0,-6.662 4.22,-10.653 12.271,-10.653 v 0 c 18.582,0 24.011,18.401 24.011,28.129 v 0 c 0,10.565 -4.208,14.235 -10.35,14.235 v 0 c -1.753,0 -3.589,-0.244 -7.177,-2.344 v 0 l 4.213,18.73 z m 2.534,-45.197 c 0,0.579 0.097,1.255 0.269,1.923 v 0 l 4.817,21.134 c 0.97,1.092 3.945,1.505 5.177,1.505 v 0 c 3.142,0 4.641,-3.916 4.641,-7.993 v 0 c 0,-8.735 -4.562,-20.394 -10.252,-20.394 v 0 c -3.164,0 -4.652,1.41 -4.652,3.825 m 25.758,1.426 c 0,-9.492 5.879,-13.158 14.023,-13.158 v 0 c 11.039,0 19.605,10.099 20.842,26.053 v 0 c 0.319,4.067 0,5.405 0,5.405 v 0 c -0.514,7.409 -4.196,11.223 -11.119,11.223 v 0 c -18.051,0 -23.746,-19.962 -23.746,-29.523 m 13.053,1.092 c 0,8.139 5.171,23.376 11.4,23.376 v 0 c 2.187,0 3.111,-1.252 3.324,-4.753 v 0 c 0.188,-3.107 -0.164,-6.718 -0.35,-8.067 v 0 c -1.365,-9.81 -5.598,-17.309 -9.898,-17.309 v 0 c -3.326,0 -4.476,1.254 -4.476,6.753 M 65.706,17.077 c 0,-9.909 5.69,-13.404 11.65,-13.404 v 0 c 6.216,0 10.34,3.83 13.053,7.661 v 0 c 0.527,-4.998 3.679,-7.661 8.594,-7.661 v 0 c 3.087,0 7.516,0.783 11.612,5.098 v 0 l -1.029,-4.605 h 12.618 l 7.008,31.632 c 2.188,1.908 3.765,3.152 6.407,3.152 v 0 c 2.623,0 0.159,-5.492 5.071,-5.492 v 0 c 4.3,0 6.316,3.185 6.316,6.08 v 0 c 0,3.166 -2.096,6.255 -6.061,6.255 v 0 c -4.187,0 -7.523,-2.653 -10.587,-5.157 v 0 l 1.136,5.157 H 118.88 l -5.999,-26.868 c -1.328,-4.097 -3.678,-7.68 -7.044,-7.68 v 0 c -2.45,0 -3.592,1.256 -3.592,3.579 v 0 c 0,0.745 0.077,1.579 0.345,2.668 v 0 l 6.312,28.301 H 96.283 l -0.958,-4.429 v 0.593 c 0,2.421 -2.109,4.244 -7.102,4.244 v 0 c -15.248,0 -22.517,-17.892 -22.517,-29.124 m 12.968,1.16 c 0,7.821 4.813,22.808 12.262,22.808 v 0 c 2.803,0 3.597,-2.169 3.597,-3.182 v 0 L 90.326,19.076 c -1.048,-4.834 -4.724,-7.332 -7.277,-7.332 v 0 c -1.571,0 -4.375,0.087 -4.375,6.493" /></clipPath></defs><g
     transform="matrix(1.3333333,0,0,-1.3333333,0,92.0772)"
     id="g10"><g
       id="g12"><g
         clip-path="url(#clipPath18)"
         id="g14"><g
           id="g20"><g
             id="g22"><path
               id="path38"
               style="fill:url(#linearGradient36);stroke:none"
               d="m 11.75,44.536 c 0,-5.586 3.584,-7.649 9.371,-7.649 v 0 c -0.092,0.742 -1.23,1.406 -1.23,5.656 v 0 c 0,13.728 11.659,20.229 21.902,20.229 v 0 c 8.325,0 11.566,-4.244 11.566,-9 v 0 c 0,-6.238 -5.607,-13.483 -12.611,-13.483 v 0 H 40.214 L 44.334,58.766 31.371,57.104 19.45,4.166 h 12.622 l 7.179,31.874 c 1.579,0.175 3.331,0.252 4.032,0.252 v 0 c 6.401,0 8.319,-4.738 8.319,-10.575 v 0 c 0,-6.305 -2.262,-14.974 -8.672,-14.974 v 0 c -2.01,0 -3.679,0.844 -5.867,2.998 v 0 c -0.786,-1.91 -1.131,-3.49 -1.131,-4.814 v 0 c 0,-5.09 4.898,-6.177 8.67,-6.177 v 0 c 14.636,0 19.178,15.993 19.178,23.984 v 0 c 0,6.239 -2.89,11.978 -10.333,13.397 v 0 c 5.697,3.07 8.765,8.321 8.765,13.224 v 0 c 0,6.835 -5.784,13.236 -18.66,13.236 v 0 C 26.995,66.591 11.75,56.019 11.75,44.536" /></g></g></g></g><g
       id="g40"><g
         clip-path="url(#clipPath46)"
         id="g42"><g
           id="g48"><g
             id="g50"><path
               id="path66"
               style="fill:url(#linearGradient64);stroke:none"
               d="m 65.706,17.077 c 0,-9.909 5.69,-13.404 11.65,-13.404 v 0 c 6.216,0 10.34,3.83 13.053,7.661 v 0 c 0.527,-4.998 3.679,-7.661 8.594,-7.661 v 0 c 4.729,0 12.61,1.833 17.614,15.403 v 0 h -3.685 c -1.319,-4.16 -3.686,-7.831 -7.095,-7.831 v 0 c -2.45,0 -3.592,1.256 -3.592,3.579 v 0 c 0,0.745 0.077,1.579 0.345,2.668 v 0 l 6.312,28.301 H 96.283 l -0.958,-4.429 v 0.593 c 0,2.421 -2.109,4.244 -7.102,4.244 v 0 c -15.248,0 -22.517,-17.892 -22.517,-29.124 m 12.968,1.16 c 0,7.821 4.813,22.808 12.262,22.808 v 0 c 2.803,0 3.597,-2.169 3.597,-3.182 v 0 L 90.326,19.076 c -1.048,-4.834 -4.724,-7.332 -7.277,-7.332 v 0 c -1.571,0 -4.375,0.087 -4.375,6.493" /></g></g></g></g><g
       id="g68"><g
         clip-path="url(#clipPath74)"
         id="g70"><g
           id="g76"><g
             id="g78"><path
               id="path94"
               style="fill:url(#linearGradient92);stroke:none"
               d="m 130.358,40.636 1.136,5.157 H 118.88 L 109.586,4.166 h 12.618 l 7.008,31.632 c 2.188,1.908 3.765,3.152 6.407,3.152 v 0 c 2.623,0 0.159,-5.492 5.071,-5.492 v 0 c 4.3,0 6.316,3.185 6.316,6.08 v 0 c 0,3.166 -2.096,6.255 -6.061,6.255 v 0 c -4.187,0 -7.523,-2.653 -10.587,-5.157" /></g></g></g></g><g
       id="g96"><g
         id="g98"><g
           id="g104"><g
             id="g106"><path
               id="path122"
               style="fill:url(#linearGradient120);stroke:none"
               d="m 155.228,60.766 -9.377,-41.69 c -0.439,-1.746 -0.616,-3.331 -0.616,-4.75 v 0 c 0,-6.662 4.22,-10.653 12.271,-10.653 v 0 c 18.582,0 24.011,18.401 24.011,28.129 v 0 c 0,10.565 -4.208,14.235 -10.35,14.235 v 0 c -1.753,0 -3.589,-0.244 -7.177,-2.344 v 0 l 4.213,18.73 z m 2.534,-45.197 c 0,0.579 0.097,1.255 0.269,1.923 v 0 l 4.817,21.134 c 0.97,1.092 3.945,1.505 5.177,1.505 v 0 c 3.142,0 4.641,-3.916 4.641,-7.993 v 0 c 0,-8.735 -4.562,-20.394 -10.252,-20.394 v 0 c -3.164,0 -4.652,1.41 -4.652,3.825" /></g></g></g></g><g
       id="g124"><g
         id="g126"><g
           id="g132"><g
             id="g134"><path
               id="path150"
               style="fill:url(#linearGradient148);stroke:none"
               d="m 183.52,16.995 c 0,-9.492 5.879,-13.158 14.023,-13.158 v 0 c 11.039,0 19.605,10.099 20.842,26.053 v 0 c 0.319,4.067 0,5.405 0,5.405 v 0 c -0.514,7.409 -4.196,11.223 -11.119,11.223 v 0 c -18.051,0 -23.746,-19.962 -23.746,-29.523 m 13.053,1.092 c 0,8.139 5.171,23.376 11.4,23.376 v 0 c 2.187,0 3.111,-1.252 3.324,-4.753 v 0 c 0.188,-3.107 -0.164,-6.718 -0.35,-8.067 v 0 c -1.365,-9.81 -5.598,-17.309 -9.898,-17.309 v 0 c -3.326,0 -4.476,1.254 -4.476,6.753" /></g></g></g></g><g
       id="g152"><g
         id="g154"><g
           id="g160"><g
             id="g162"><path
               id="path170"
               style="fill:url(#linearGradient168);stroke:none"
               d="m 11.75,44.536 c 0,-5.586 3.584,-7.649 9.371,-7.649 v 0 c -0.092,0.742 -1.23,1.406 -1.23,5.656 v 0 c 0,13.728 11.659,20.229 21.902,20.229 v 0 c 8.325,0 11.566,-4.244 11.566,-9 v 0 c 0,-6.238 -5.607,-13.483 -12.611,-13.483 v 0 H 40.214 L 44.334,58.766 31.371,57.104 19.45,4.166 h 12.622 l 7.179,31.874 c 1.579,0.175 3.331,0.252 4.032,0.252 v 0 c 6.401,0 8.319,-4.738 8.319,-10.575 v 0 c 0,-6.305 -2.262,-14.974 -8.672,-14.974 v 0 c -2.01,0 -3.679,0.844 -5.867,2.998 v 0 c -0.786,-1.91 -1.131,-3.49 -1.131,-4.814 v 0 c 0,-5.09 4.898,-6.177 8.67,-6.177 v 0 c 14.636,0 19.178,15.993 19.178,23.984 v 0 c 0,6.239 -2.89,11.978 -10.333,13.397 v 0 c 5.697,3.07 8.765,8.321 8.765,13.224 v 0 c 0,6.835 -5.784,13.236 -18.66,13.236 v 0 C 26.995,66.591 11.75,56.019 11.75,44.536 m 0.75,0 c 0,11.151 14.801,21.304 31.052,21.304 v 0 c 13.219,0 17.911,-6.725 17.911,-12.485 v 0 c 0,-4.967 -3.207,-9.781 -8.371,-12.564 v 0 l -1.858,-1.002 2.073,-0.394 c 6.179,-1.179 9.724,-5.793 9.724,-12.661 v 0 C 63.031,20.706 59.645,3.5 44.602,3.5 v 0 c -3.613,0 -7.921,0.941 -7.921,5.427 v 0 c 0,1.014 0.232,2.188 0.686,3.503 v 0 c 1.948,-1.719 3.614,-2.436 5.563,-2.436 v 0 c 6.475,0 9.423,8.151 9.423,15.723 v 0 c 0,9.36 -4.933,11.325 -9.07,11.325 v 0 c -0.745,0 -2.517,-0.079 -4.115,-0.257 v 0 L 38.637,36.726 31.472,4.916 H 20.388 l 11.599,51.513 11.382,1.459 -4.09,-18.349 h 1.469 c 7.524,0 13.362,7.652 13.362,14.233 v 0 c 0,6.106 -4.605,9.751 -12.317,9.751 v 0 c -11.257,0 -22.653,-7.205 -22.653,-20.98 v 0 c 0,-2.701 0.444,-4.053 0.823,-4.876 v 0 C 14.879,37.948 12.5,40.149 12.5,44.536" /></g></g></g></g><g
       id="g172"><g
         id="g174"><g
           id="g180"><g
             id="g182"><path
               id="path190"
               style="fill:url(#linearGradient188);stroke:none"
               d="m 65.706,17.077 c 0,-9.909 5.69,-13.404 11.65,-13.404 v 0 c 6.216,0 10.34,3.83 13.053,7.661 v 0 c 0.527,-4.998 3.679,-7.661 8.594,-7.661 v 0 c 3.087,0 7.516,0.783 11.612,5.098 v 0 l -1.029,-4.605 h 12.618 l 7.008,31.632 c 2.188,1.908 3.765,3.152 6.407,3.152 v 0 c 2.623,0 0.159,-5.492 5.071,-5.492 v 0 c 4.3,0 6.316,3.185 6.316,6.08 v 0 c 0,3.166 -2.096,6.255 -6.061,6.255 v 0 c -4.187,0 -7.523,-2.653 -10.587,-5.157 v 0 l 1.136,5.157 H 118.88 l -5.999,-26.868 c -1.328,-4.097 -3.678,-7.68 -7.044,-7.68 v 0 c -2.45,0 -3.592,1.256 -3.592,3.579 v 0 c 0,0.745 0.077,1.579 0.345,2.668 v 0 l 6.312,28.301 H 96.283 l -0.958,-4.429 v 0.593 c 0,2.421 -2.109,4.244 -7.102,4.244 v 0 c -15.248,0 -22.517,-17.892 -22.517,-29.124 m 0.75,0 c 0,9.893 6.385,28.373 21.767,28.373 v 0 c 2.372,0 6.353,-0.454 6.353,-3.493 v 0 -0.593 l 1.483,-0.158 0.83,3.837 h 11.077 l -6.104,-27.372 c -0.25,-1.018 -0.368,-1.923 -0.368,-2.847 v 0 c 0,-2.792 1.542,-4.329 4.343,-4.329 v 0 c 3.288,0 6.044,2.911 7.776,8.266 v 0 l 5.867,26.282 h 11.08 l -1.4,-6.354 1.672,1.366 c 2.861,2.338 6.106,4.988 10.113,4.988 v 0 c 3.649,0 5.311,-2.854 5.311,-5.505 v 0 c 0,-2.567 -1.742,-5.33 -5.566,-5.33 v 0 c -2.12,0 -2.444,1.058 -2.797,2.782 v 0 c -0.233,1.144 -0.555,2.71 -2.274,2.71 v 0 c -2.857,0 -4.588,-1.321 -6.9,-3.336 v 0 l -0.186,-0.162 -6.93,-31.286 h -11.081 l 1.416,6.339 -1.868,-1.967 C 107.006,6.06 103.283,4.423 99.003,4.423 v 0 c -4.587,0 -7.374,2.483 -7.848,6.989 v 0 l -0.209,1.979 -1.149,-1.623 C 86.346,6.894 82.16,4.423 77.356,4.423 v 0 c -3.278,0 -10.9,1.233 -10.9,12.654" /></g></g></g></g><g
       id="g192"><g
         id="g194"><g
           id="g200"><g
             id="g202"><path
               id="path210"
               style="fill:url(#linearGradient208);stroke:none"
               d="m 77.924,18.237 c 0,-6.42 2.739,-7.243 5.125,-7.243 v 0 c 3.094,0 6.936,2.963 8.009,7.917 v 0 l 4.208,18.788 0.017,0.164 c 0,1.521 -1.179,3.932 -4.347,3.932 v 0 c -8.073,0 -13.012,-15.253 -13.012,-23.558 m 0.75,0 c 0,7.821 4.813,22.808 12.262,22.808 v 0 c 2.803,0 3.597,-2.169 3.597,-3.182 v 0 L 90.326,19.076 c -1.048,-4.834 -4.724,-7.332 -7.277,-7.332 v 0 c -1.571,0 -4.375,0.087 -4.375,6.493" /></g></g></g></g><g
       id="g212"><g
         id="g214"><g
           id="g220"><g
             id="g222"><path
               id="path230"
               style="fill:url(#linearGradient228);stroke:none"
               d="m 155.228,60.766 -9.377,-41.69 c -0.439,-1.746 -0.616,-3.331 -0.616,-4.75 v 0 c 0,-6.662 4.22,-10.653 12.271,-10.653 v 0 c 18.582,0 24.011,18.401 24.011,28.129 v 0 c 0,10.565 -4.208,14.235 -10.35,14.235 v 0 c -1.753,0 -3.589,-0.244 -7.177,-2.344 v 0 l 4.213,18.73 z m -9.244,-46.44 c 0,1.461 0.199,2.997 0.6,4.584 v 0 l 9.262,41.179 11.39,1.455 -4.355,-19.369 1.488,0.871 c 3.538,2.069 5.234,2.241 6.798,2.241 v 0 c 6.46,0 9.601,-4.411 9.601,-13.485 v 0 c 0,-7.615 -4.18,-27.379 -23.262,-27.379 v 0 c -7.43,0 -11.522,3.517 -11.522,9.903" /></g></g></g></g><g
       id="g232"><g
         id="g234"><g
           id="g240"><g
             id="g242"><path
               id="path250"
               style="fill:url(#linearGradient248);stroke:none"
               d="m 162.287,39.124 -0.127,-0.143 -4.855,-21.304 c -0.192,-0.749 -0.293,-1.478 -0.293,-2.108 v 0 c 0,-1.709 0.701,-4.575 5.402,-4.575 v 0 c 6.613,0 11.003,12.726 11.003,21.144 v 0 c 0,4.352 -1.669,8.743 -5.392,8.743 v 0 c -0.882,0 -4.443,-0.298 -5.738,-1.757 m -4.525,-23.555 c 0,0.579 0.097,1.255 0.269,1.923 v 0 l 4.817,21.134 c 0.97,1.092 3.945,1.505 5.177,1.505 v 0 c 3.142,0 4.641,-3.916 4.641,-7.993 v 0 c 0,-8.735 -4.562,-20.394 -10.252,-20.394 v 0 c -3.164,0 -4.652,1.41 -4.652,3.825" /></g></g></g></g><g
       id="g252"><g
         id="g254"><g
           id="g260"><g
             id="g262"><path
               id="path270"
               style="fill:url(#linearGradient268);stroke:none"
               d="m 183.52,16.995 c 0,-9.492 5.879,-13.158 14.023,-13.158 v 0 c 11.039,0 19.605,10.099 20.842,26.053 v 0 c 0.319,4.067 0,5.405 0,5.405 v 0 c -0.514,7.409 -4.196,11.223 -11.119,11.223 v 0 c -18.051,0 -23.746,-19.962 -23.746,-29.523 m 0.75,0 c 0,9.388 5.621,28.774 22.996,28.774 v 0 c 6.486,0 9.879,-3.444 10.371,-10.526 v 0 l 0.017,-0.115 c 0.002,-0.013 0.284,-1.351 -0.017,-5.181 v 0 c -1.174,-15.169 -9.25,-25.36 -20.094,-25.36 v 0 c -6.055,0 -13.273,2.152 -13.273,12.408" /></g></g></g></g><g
       id="g272"><g
         id="g274"><g
           id="g280"><g
             id="g282"><path
               id="path290"
               style="fill:url(#linearGradient288);stroke:none"
               d="m 195.822,18.087 c 0,-5.68 1.27,-7.503 5.227,-7.503 v 0 c 4.719,0 9.193,7.552 10.641,17.957 v 0 c 0.204,1.487 0.543,5.115 0.357,8.215 v 0 c -0.173,2.834 -0.787,5.457 -4.074,5.457 v 0 c -7.02,0 -12.151,-15.867 -12.151,-24.126 m 0.751,0 c 0,8.139 5.171,23.376 11.4,23.376 v 0 c 2.187,0 3.111,-1.252 3.324,-4.753 v 0 c 0.188,-3.107 -0.164,-6.718 -0.35,-8.067 v 0 c -1.365,-9.81 -5.598,-17.309 -9.898,-17.309 v 0 c -3.326,0 -4.476,1.254 -4.476,6.753" /></g></g></g></g><g
       id="g292"><g
         clip-path="url(#clipPath298)"
         id="g294"><g
           transform="translate(237.8868,29.4883)"
           id="g300"><path
             id="path302"
             style="fill:#ebeaea;fill-opacity:1;fill-rule:nonzero;stroke:none"
             d="m 0,0 c -3.818,-16.779 -49.369,-20.714 -101.738,-8.793 -52.37,11.924 -91.729,35.189 -87.908,51.97 3.82,16.777 49.371,20.713 101.74,8.793 C -35.537,40.046 3.82,16.779 0,0" /></g></g></g></g></svg>