<?xml version="1.0" encoding="utf-8"?>
<!-- Generator: Adobe Illustrator 17.1.0, SVG Export Plug-In . SVG Version: 6.00 Build 0)  -->
<!DOCTYPE svg PUBLIC "-//W3C//DTD SVG 1.1//EN" "http://www.w3.org/Graphics/SVG/1.1/DTD/svg11.dtd">
<svg version="1.1" id="Layer_1" xmlns="http://www.w3.org/2000/svg" xmlns:xlink="http://www.w3.org/1999/xlink" x="0px" y="0px"
	 viewBox="0 0 612 792" enable-background="new 0 0 612 792" xml:space="preserve">
<g>
	<g id="top_9_">
		
			<linearGradient id="SVGID_1_" gradientUnits="userSpaceOnUse" x1="23.567" y1="751.3271" x2="67.0553" y2="751.3271" gradientTransform="matrix(-6.4578 2.6448 -2.6448 -6.4578 2583.0449 5067.5747)">
			<stop  offset="0" style="stop-color:#F2F0E8"/>
			<stop  offset="0.102" style="stop-color:#B7B4AE"/>
			<stop  offset="0.1995" style="stop-color:#87827E"/>
			<stop  offset="0.2909" style="stop-color:#615C58"/>
			<stop  offset="0.3745" style="stop-color:#46403D"/>
			<stop  offset="0.4479" style="stop-color:#362F2D"/>
			<stop  offset="0.503" style="stop-color:#302927"/>
			<stop  offset="0.5582" style="stop-color:#362F2D"/>
			<stop  offset="0.6303" style="stop-color:#463F3C"/>
			<stop  offset="0.7118" style="stop-color:#605A57"/>
			<stop  offset="0.8001" style="stop-color:#85807B"/>
			<stop  offset="0.894" style="stop-color:#B4B0AA"/>
			<stop  offset="0.9912" style="stop-color:#ECEAE2"/>
			<stop  offset="1" style="stop-color:#F2F0E8"/>
		</linearGradient>
		<path display="none" fill="url(#SVGID_1_)" d="M178.6,432.2c-10.5-33.5-13.3-85.1-13.3-85.1l249.1-102.6c0,0,20.9,23,32.1,40.5
			c-2.8-2.1-11.9,3.5-14,9.8c0,0.7,0,1.4-0.7,2.1c-7.7-11.9-15.4-22.3-23-31.4l-15.4,5.6c9.1,11.9,18.8,24.4,27.9,38.4
			c-0.7,0.7-2.1,1.4-2.1,2.1c-0.7,2.8-4.2,4.9-4.9,5.6c-2.8-2.1-6.3-2.8-10.5-1.4c-3.5,2.1-5.6,5.6-5.6,9.1
			c-2.8-2.8-7.7-3.5-11.9-2.1c-4.2,2.1-7,6.3-7,10.5c-2.8-2.1-6.3-2.8-10.5-1.4c-4.9,2.1-7,7-5.6,11.9c-4.2,1.4-11.2-2.1-14.7-1.4
			c-4.2,0.7-5.6,5.6-9.8,6.3c-4.2,0.7-8.4-0.7-12.6,0c-2.1,0.7-9.8,8.4-11.9,9.1c-1.4,0.7-11.2,1.4-13.3,2.1
			c-2.1,0.7-6.3,2.8-8.4,4.2c-3.5,2.1-4.2,5.6-7.7,8.4c-2.8,2.1-9.1,0.7-12.6,3.5c-2.8,2.8-6.3,4.2-9.8,7c-2.8,2.1-7,7.7-10.5,9.8
			c-0.7,0.7-2.1,1.4-2.1,2.1c1.4,5.6-2.1,4.9-5.6,9.1c-7-27.2-11.2-46.1-14-65.6l-48.8,19.5c2.8,21.6,7,41.9,11.9,60.7
			c-0.7,0-2.1,0.7-2.8,0.7C189.1,418.9,180,423.8,178.6,432.2z M368.4,342.8c1.4,2.8,4.2,4.2,7,2.8c2.8-1.4,4.2-4.2,2.8-7
			c-1.4-2.8-4.2-4.2-7-2.8S367,340.1,368.4,342.8z M388,326.1c3.5-1.4,7.7,0,9.1,3.5c1.4,3.5,0,7.7-3.5,9.1s-7.7,0-9.1-3.5
			C383.1,331.7,384.5,327.5,388,326.1z M406.1,319.8c2.8-1.4,5.6,0,7,2.8c1.4,2.8,0,5.6-2.8,7c-2.8,1.4-5.6,0-7-2.8
			C401.9,324,403.3,321.2,406.1,319.8z"/>
		
			<linearGradient id="SVGID_2_" gradientUnits="userSpaceOnUse" x1="24.0881" y1="751.0433" x2="67.2512" y2="751.0433" gradientTransform="matrix(-6.4578 2.6448 -2.6448 -6.4578 2583.0449 5067.5747)">
			<stop  offset="0" style="stop-color:#F2F0E8"/>
			<stop  offset="4.271757e-03" style="stop-color:#F2F0E8;stop-opacity:0.9915"/>
			<stop  offset="0.2887" style="stop-color:#FCFBF9;stop-opacity:0.426"/>
			<stop  offset="0.503" style="stop-color:#FFFFFF;stop-opacity:0"/>
			<stop  offset="0.7133" style="stop-color:#FCFBF9;stop-opacity:0.4231"/>
			<stop  offset="0.9871" style="stop-color:#F3F1E9;stop-opacity:0.9741"/>
			<stop  offset="1" style="stop-color:#F2F0E8"/>
		</linearGradient>
		<path fill="url(#SVGID_2_)" d="M403.3,322.6c2.8-1.4,5.6,0,7,2.8c1.4,2.8,0,5.6-2.8,7s-5.6,0-7-2.8
			C399.8,326.8,401.2,324,403.3,322.6z M382.4,338c1.4,3.5,5.6,4.9,9.1,3.5c3.5-1.4,4.9-5.6,3.5-9.1s-5.6-4.9-9.1-3.5
			C383.1,331,381,334.5,382.4,338z M177.9,434.3c1.4-7.7,10.5-12.6,14-12.6c0.7,0,2.1-0.7,2.8-0.7c-4.9-18.8-9.1-39.1-11.9-60
			l48.2-19.5c2.8,18.8,7,37.7,14,64.9c2.8-4.2,7-3.5,5.6-9.1c0.7-0.7,1.4-1.4,2.1-2.1c3.5-2.1,7-7.7,10.5-9.8c2.8-2.8,6.3-4.2,9.8-7
			c3.5-2.8,9.8-1.4,12.6-3.5c3.5-2.8,4.9-6.3,7.7-7.7c2.1-1.4,6.3-3.5,8.4-4.2c1.4-0.7,11.2-1.4,13.3-2.1c2.1-0.7,9.1-8.4,11.2-9.1
			c3.5-0.7,8.4,0.7,11.9,0c3.5-0.7,5.6-5.6,9.1-6.3s10.5,2.8,14,1.4c-1.4-4.9,0.7-9.8,5.6-11.9c3.5-1.4,7-0.7,9.8,1.4
			c0-4.9,2.8-9.1,7-10.5c4.2-1.4,8.4-0.7,11.2,2.1c0-3.5,2.8-7,6.3-8.4c3.5-1.4,7.7-0.7,9.8,1.4c0.7-0.7,4.2-2.8,4.9-5.6
			c0-1.4,1.4-2.1,2.1-2.1c-9.1-14-18.8-26.5-27.9-38.4l15.4-6.3c7,9.1,14.7,19.5,22.3,31.4c0-0.7,0-1.4,0.7-2.1
			c2.8-5.6,11.9-11.2,14-9.8c-9.8-16.1-28.6-37-31.4-39.8L165.4,349.8C165.4,353.3,168.1,402.2,177.9,434.3z M366.3,345.6
			c1.4,2.8,4.2,4.2,7,2.8c2.8-1.4,4.2-4.2,2.8-7c-1.4-2.8-4.2-4.2-7-2.8C366.3,340.1,364.9,342.8,366.3,345.6z"/>
		
			<linearGradient id="SVGID_3_" gradientUnits="userSpaceOnUse" x1="59.7053" y1="702.4044" x2="59.7053" y2="758.2274" gradientTransform="matrix(-6.4578 2.6448 -2.6448 -6.4578 2583.0449 5067.5747)">
			<stop  offset="0" style="stop-color:#C6C4C3"/>
			<stop  offset="0.1049" style="stop-color:#C9C6C5"/>
			<stop  offset="1" style="stop-color:#DDD8D5"/>
		</linearGradient>
		<path fill="url(#SVGID_3_)" d="M232.3,340.8c2.8,18.8,8.4,44,15.4,70.5c-4.2,5.6-9.8,9.8-9.8,9.8c3.5,22.3-30,9.1-37,0
			c-2.1,0-4.2,0.7-6.3,0.7c-4.9-18.8-8.4-39.1-11.9-60L232.3,340.8z"/>
		
			<linearGradient id="SVGID_4_" gradientUnits="userSpaceOnUse" x1="28.5201" y1="748.5669" x2="28.5201" y2="753.0266" gradientTransform="matrix(-6.4578 2.6448 -2.6448 -6.4578 2583.0449 5067.5747)">
			<stop  offset="0" style="stop-color:#EAE4E0"/>
			<stop  offset="1" style="stop-color:#EAE4E0"/>
		</linearGradient>
		<path fill="url(#SVGID_4_)" d="M406.8,268.2c7,9.1,14.7,19.5,22.3,30.7c-0.7,3.5,0,7-2.1,10.5c-1.4,2.8-5.6,2.1-8.4,3.5
			c-9.1-14-18.8-26.5-27.9-38.4L406.8,268.2z"/>
	</g>
	<g id="owl_body_15_">
		
			<linearGradient id="SVGID_5_" gradientUnits="userSpaceOnUse" x1="45.3324" y1="673.945" x2="45.3324" y2="747.619" gradientTransform="matrix(-6.4578 2.6448 -2.6448 -6.4578 2583.0449 5067.5747)">
			<stop  offset="0" style="stop-color:#E8A223"/>
			<stop  offset="2.812459e-02" style="stop-color:#ECAE30"/>
			<stop  offset="9.454300e-02" style="stop-color:#F3C648"/>
			<stop  offset="0.1557" style="stop-color:#F7D457"/>
			<stop  offset="0.2061" style="stop-color:#F9D95C"/>
			<stop  offset="0.3159" style="stop-color:#F3CB46"/>
			<stop  offset="0.4667" style="stop-color:#E8B321"/>
			<stop  offset="0.5726" style="stop-color:#D59824"/>
			<stop  offset="0.7008" style="stop-color:#C17C27"/>
			<stop  offset="0.7758" style="stop-color:#BA7228"/>
			<stop  offset="0.8399" style="stop-color:#BC7527"/>
			<stop  offset="0.8882" style="stop-color:#C37F26"/>
			<stop  offset="0.9314" style="stop-color:#D08F22"/>
			<stop  offset="0.9713" style="stop-color:#E1A61E"/>
			<stop  offset="1" style="stop-color:#F1BB1A"/>
		</linearGradient>
		<path fill="url(#SVGID_5_)" d="M331.4,622c-34.2-48.8-64.9-130.5-83.7-199.6c24.4-25.1,55.8-41.9,74.7-49.5
			c23-9.8,79.6-18.8,93.5-24.4c7.7-2.8,14.7-8.4,18.8-13.3c27.9,46.1,52.3,101.2,61.4,157.7c14.7,93.5,8.4,205.2,65.6,297.3
			c-54.4-92.1-44.7-237.3-55.1-299.4c-10.5-63.5-37.7-122.8-64.9-168.2c4.2-9.1,5.6-18.8,5.6-18.8c38.4,62.8,82.3,149.3,77.5,261
			c-3.5,80.3,19.5,168.9,57.2,226.1c0,0-11.9,14.7-66.3,40.5c-23,9.1-48.2,16.7-70.5,19.5C425.6,785.3,388.7,702.9,331.4,622z
			 M305.6,654.8c59.3,54.4,104,127.7,120,195.4v1.4h1.4c0.7,0,2.8-0.7,2.8-0.7c-22.3-83.7-64.2-148.6-80.9-171.7
			c-30.7-42.6-67.7-69.1-97.7-118.6c-9.8-16.1-31.4-57.9-48.8-117.2c-8.4-0.7-16.1-2.1-16.1-2.1v0.7l0,0l0,0
			C207.9,530.6,247,599.6,305.6,654.8z"/>
		
			<linearGradient id="SVGID_6_" gradientUnits="userSpaceOnUse" x1="59.5515" y1="674.0301" x2="59.5515" y2="747.6664" gradientTransform="matrix(-6.4578 2.6448 -2.6448 -6.4578 2583.0449 5067.5747)">
			<stop  offset="0" style="stop-color:#EFDCC6"/>
			<stop  offset="4.773070e-02" style="stop-color:#F1DCB7"/>
			<stop  offset="0.1476" style="stop-color:#F5DC9B"/>
			<stop  offset="0.2061" style="stop-color:#F7DC91"/>
			<stop  offset="0.3677" style="stop-color:#F4D07B"/>
			<stop  offset="0.4667" style="stop-color:#F1C76B"/>
			<stop  offset="0.6459" style="stop-color:#EBC081"/>
			<stop  offset="0.7627" style="stop-color:#E9BD89"/>
			<stop  offset="0.8934" style="stop-color:#F2D29D"/>
			<stop  offset="1" style="stop-color:#F8DEA8"/>
		</linearGradient>
		<path fill="url(#SVGID_6_)" d="M200.2,443.3c7.7,0.7,18.1,0.7,25.8-2.8c5.6-2.1,12.6-6.3,16.1-10.5c2.8-2.8,4.9-5.6,7.7-8.4
			c4.2,15.4,9.1,30.7,14,46.8c-23,14.7-32.8,44.7-22.3,70.5c10.5,25.8,37.7,39.8,64.2,34.9c9.1,17.4,18.1,33.5,27.2,47.5
			c57.2,80.9,93.5,162.6,114.4,228.2c-7,0.7-13.3,2.1-19.5,2.1c-23-83.7-64.9-148.6-81.6-172.4c-30.7-42.6-67.7-69.1-97.7-118.6
			C239.3,544.5,217.7,502.6,200.2,443.3z"/>
		
			<linearGradient id="SVGID_7_" gradientUnits="userSpaceOnUse" x1="30.6846" y1="673.9462" x2="30.6846" y2="747.6726" gradientTransform="matrix(-6.4578 2.6448 -2.6448 -6.4578 2583.0449 5067.5747)">
			<stop  offset="0" style="stop-color:#F0B534"/>
			<stop  offset="4.431041e-02" style="stop-color:#F2C047"/>
			<stop  offset="0.1509" style="stop-color:#F7D76F"/>
			<stop  offset="0.2061" style="stop-color:#F9E07F"/>
			<stop  offset="0.4114" style="stop-color:#F3CA6E"/>
			<stop  offset="0.4667" style="stop-color:#F1C369"/>
			<stop  offset="0.6459" style="stop-color:#E2B87F"/>
			<stop  offset="0.7627" style="stop-color:#DDB487"/>
			<stop  offset="0.8606" style="stop-color:#E2BB8C"/>
			<stop  offset="1" style="stop-color:#EFCE9A"/>
		</linearGradient>
		<path fill="url(#SVGID_7_)" d="M508.7,489.4c10.5,62.1,0,200.3,53.7,300.8c-61.4-92.8-52.3-203.1-67-296.6
			c-9.1-56.5-33.5-111-61.4-157.7c4.2-4.9,7.7-10.5,9.8-15.4C471,366.6,498.2,425.9,508.7,489.4z"/>
	</g>
	<g id="foam_9_">
		
			<linearGradient id="SVGID_8_" gradientUnits="userSpaceOnUse" x1="23.6639" y1="746.4921" x2="66.493" y2="746.4921" gradientTransform="matrix(-6.4578 2.6448 -2.6448 -6.4578 2583.0449 5067.5747)">
			<stop  offset="0" style="stop-color:#F2E5D3"/>
			<stop  offset="0.503" style="stop-color:#FFF7F0"/>
			<stop  offset="0.5521" style="stop-color:#FDF4EC"/>
			<stop  offset="0.8135" style="stop-color:#F5E9DA"/>
			<stop  offset="1" style="stop-color:#F2E5D3"/>
		</linearGradient>
		<path fill="url(#SVGID_8_)" d="M443.8,288.4c2.1,2.8,3.5,4.9,5.6,7.7c-2.8,9.8-4.2,17.4-6.3,24.4c-4.2-7-9.1-14-13.3-20.9
			c0-0.7,0-1.4,0.7-1.4C432.6,291.2,441,286.3,443.8,288.4z M200.2,441.9c-3.5-11.2-4.9-18.1-5.6-20.9c-0.7,0-2.1,0-2.8,0
			c-3.5,0-14.7,5.6-13.3,11.9c0,0.7,0,3.5,0.7,4.2C183.5,439.1,191.9,441.2,200.2,441.9z M247,402.9c2.8-1.4,2.8-4.2,4.2-6.3l0,0
			l0,0c0,0,0,0,0-0.7l0,0c0.7-0.7,0.7-1.4,1.4-1.4c3.5-2.1,7-7.7,10.5-9.8c2.8-2.8,6.3-4.2,9.8-7c3.5-2.8,9.8-1.4,12.6-3.5
			c3.5-2.8,4.9-6.3,7.7-7.7c2.1-1.4,6.3-3.5,8.4-4.2c1.4-0.7,11.2-1.4,13.3-2.1c2.1-0.7,9.1-8.4,11.2-9.1c3.5-0.7,8.4,0.7,11.9,0
			c3.5-0.7,5.6-5.6,9.1-6.3c3.5-0.7,10.5,2.8,14,2.1c-1.4-4.9,1.4-9.8,6.3-11.9c3.5-1.4,7-0.7,9.8,1.4c0-4.2,2.8-9.1,7-10.5
			c4.2-1.4,8.4-0.7,11.2,2.1c0-3.5,2.8-7,6.3-8.4s7.7-0.7,9.8,1.4c0.7-0.7,4.2-2.8,4.9-5.6c0-1.4,1.4-2.1,2.1-2.1
			c4.9,7,9.1,14,14,21.6c-2.8,2.8-7,5.6-11.2,8.4c-22.3,14-53.7,9.1-103.3,30c-25.1,10.5-43.3,20.9-62.8,39.8l0,0
			c-2.1,2.1-4.2,4.9-6.3,7c-1.4-4.9-2.8-10.5-4.2-15.4C245.6,403.6,246.3,402.9,247,402.9z M407.5,332.4c2.8-1.4,4.2-4.2,2.8-7
			c-1.4-2.8-4.2-4.2-7-2.8c-2.8,1.4-4.2,4.2-2.8,7C401.9,332.4,404.7,333.8,407.5,332.4z M391.5,341.4c3.5-1.4,4.9-4.9,3.5-8.4
			s-4.9-4.9-8.4-3.5c-3.5,1.4-4.9,4.9-3.5,8.4C383.8,341.4,388,342.8,391.5,341.4z M373.3,348.4c2.8-1.4,4.2-4.2,2.8-7
			c-1.4-2.8-4.2-4.2-7-2.8c-2.8,1.4-4.2,4.2-2.8,7C367.7,348.4,370.5,349.8,373.3,348.4z"/>
		<path fill="#FFFFFF" d="M200.2,420.3L200.2,420.3c1.4,0,2.1,0,3.5-0.7c4.2-0.7,9.1,3.5,12.6,2.8c4.2-1.4,6.3-7,9.8-8.4
			s7.7-2.1,11.2-4.2c2.8-1.4,5.6-4.2,8.4-6.3c1.4,4.9,2.8,10.5,4.2,15.4c-2.8,2.8-5.6,5.6-8.4,9.1c-9.1,10.5-22.3,14-35.6,14l0,0
			c-2.1,0-4.2,0-6.3,0c-2.1-7-3.5-14-5.6-20.9C196.8,420.3,198.9,420.3,200.2,420.3z"/>
		<path fill="#FFFFFF" d="M427.7,309.3c2.1-2.8,0.7-7,2.1-10.5c4.2,6.3,9.1,13.3,13.3,20.9c-2.1,5.6-4.9,10.5-9.8,14.7
			c-4.9-7.7-9.1-14.7-14-21.6C421.5,311.4,425.6,311.4,427.7,309.3z"/>
	</g>
	<g id="line_9_">
		
			<linearGradient id="SVGID_9_" gradientUnits="userSpaceOnUse" x1="23.8623" y1="745.6005" x2="23559.0801" y2="745.6005" gradientTransform="matrix(-6.4578 2.6448 -2.6448 -6.4578 2583.0449 5067.5747)">
			<stop  offset="0" style="stop-color:#C08329"/>
			<stop  offset="1" style="stop-color:#BA7228"/>
		</linearGradient>
		<path fill="url(#SVGID_9_)" d="M450.1,298.9c-2.8,9.8-4.2,16.7-6.3,23c-0.7-0.7-1.4-2.1-2.1-2.8c2.1-6.3,3.5-14,6.3-24.4
			L450.1,298.9z M249.8,418.9c0.7,1.4,0.7,2.8,1.4,4.2c2.1-2.1,4.2-4.2,6.3-6.3c19.5-18.8,37.7-29.3,62.8-39.8
			c49.5-20.9,81.6-16.1,103.3-30c4.9-2.8,8.4-5.6,11.2-8.4c-0.7-1.4-1.4-2.1-2.1-3.5c-2.8,2.8-6.3,5.6-11.2,8.4
			c-22.3,14-54.4,9.1-103.3,30c-25.1,10.5-42.6,20.9-62.1,39.8C254,414,251.9,416.8,249.8,418.9z M182.1,437.8l1.4,3.5
			c3.5,1.4,9.8,3.5,17.4,4.2c0-1.4-0.7-2.1-0.7-3.5C191.9,441.2,185.6,439.1,182.1,437.8z"/>
		<path fill="#DDD1C5" d="M205.8,441.9c12.6,0,26.5-3.5,35.6-14c2.8-3.5,5.6-6.3,8.4-9.1c0.7,1.4,0.7,2.8,1.4,4.2
			c-2.8,2.8-4.9,5.6-7.7,8.4c-9.1,10.5-23,14-35.6,14c-2.1,0-4.2,0-6.3,0c0-1.4-0.7-2.1-0.7-3.5
			C201.6,441.9,203.7,441.9,205.8,441.9z"/>
		<path fill="#D8C3B0" d="M442.4,319.1c0.7,0.7,1.4,2.1,2.1,2.8c-2.1,5.6-4.9,10.5-9.8,15.4c-0.7-1.4-1.4-2.1-2.1-3.5
			C437.5,329.6,440.3,324.7,442.4,319.1z"/>
	</g>
	<g id="bottom_9_">
		
			<radialGradient id="SVGID_10_" cx="16.832" cy="704.8405" r="10.6909" gradientTransform="matrix(-2.6692 -6.448 7.0886 -2.9344 -4445.2847 3012.416)" gradientUnits="userSpaceOnUse">
			<stop  offset="0" style="stop-color:#FFFFFF;stop-opacity:0.17"/>
			<stop  offset="1" style="stop-color:#E0DFDE"/>
		</radialGradient>
		<path fill="url(#SVGID_10_)" d="M443.8,926.9c-2.1-25.8-7-50.2-13.3-73.3c-2.8,0-7.7,0-10.5,0c2.8,19.5,0.7,32.8-0.7,40.5
			c0.7,3.5,1.4,7,1.4,10.5c1.4,10.5,6.3,18.1,13.3,22.3c9.8,5.6,23.7,6.3,44.7,1.4c16.1-3.5,35.6-10.5,59.3-20.2
			c21.6-9.1,39.1-16.7,52.3-24.4c20.2-11.9,30.7-23,34.2-34.2c2.1-8.4,0.7-16.7-5.6-25.1c-3.5-4.2-6.3-9.1-9.1-13.3
			c0-0.7-15.4-12.6-23-23c-29.3,29.3-88.6,56.5-138.2,64.2c9.1,29.3,15.4,54.4,18.8,75.4c0,0-5.6,1.4-12.6,1.4
			C448.7,929,443.8,926.9,443.8,926.9z M568.7,850.2c-2.8-5.6,2.1-14.7,11.2-20.2c9.1-5.6,19.5-6.3,22.3-0.7
			c2.8,5.6-2.1,14.7-11.2,20.2C582,855.8,571.5,855.8,568.7,850.2z"/>
		
			<linearGradient id="SVGID_11_" gradientUnits="userSpaceOnUse" x1="56.3693" y1="663.902" x2="56.3693" y2="675.7957" gradientTransform="matrix(-6.4578 2.6448 -2.6448 -6.4578 2583.0449 5067.5747)">
			<stop  offset="0" style="stop-color:#DFDAD7"/>
			<stop  offset="0.3787" style="stop-color:#ECE9E8"/>
			<stop  offset="1" style="stop-color:#FFFFFF"/>
		</linearGradient>
		<path fill="url(#SVGID_11_)" d="M449.4,850.9c9.1,29.3,15.4,55.1,18.8,76.1c0,0-5.6,1.4-12.6,1.4c-6.3,0-11.9-1.4-11.9-1.4
			c-2.1-25.8-7-50.9-14-74C429.1,853.7,448.7,851.6,449.4,850.9z"/>
		<path fill="#FFFFFF" d="M591,850.2c-9.8,6.3-20.2,6.3-23.7,0.7c-3.5-5.6,2.1-15.4,11.9-21.6c9.8-6.3,20.2-6.3,23.7-0.7
			C606.4,834.1,600.8,843.9,591,850.2z"/>
	</g>
	<g id="edge_19_">
		
			<linearGradient id="edge_1_" gradientUnits="userSpaceOnUse" x1="44.9731" y1="670.6882" x2="44.9731" y2="757.3502" gradientTransform="matrix(-6.4578 2.6448 -2.6448 -6.4578 2583.0449 5067.5747)">
			<stop  offset="0" style="stop-color:#F2F0E8"/>
			<stop  offset="0.563" style="stop-color:#E2E0DA"/>
			<stop  offset="1" style="stop-color:#DBD9D4"/>
		</linearGradient>
		<path id="edge_21_" display="none" fill="url(#edge_1_)" d="M538,481c2.8,17.4,4.2,38.4,4.9,63.5c2.8,73.3,7,171.7,70.5,267.3
			c-69.1-48.2-78.2-187-79.6-264.5c-0.7-25.1-1.4-46.8-4.9-62.8c-16.7-96.3-69.8-189.8-112.4-235.9l-2.8-3.5l10.5-4.2
			C467.5,289.1,520.6,383.3,538,481z M155.6,351.2c2.8,64.2,30.7,168.9,86.5,250.5c9.8,14.7,24.4,30,41.2,48.8
			c24.4,26.5,53.7,58.6,78.9,97c18.1,26.5,34.2,56.5,44.7,91.4c5.6,17.4,10.5,36.3,14,56.5c18.8-80.3-73.3-189.8-128.4-249.1
			c-17.4-18.8-31.4-34.9-41.2-48.8c-55.1-80.3-82.3-184.2-85.1-246.3v-4.9L155.6,351.2z"/>
		
			<linearGradient id="edge_2_" gradientUnits="userSpaceOnUse" x1="45.1504" y1="670.9491" x2="45.1504" y2="756.965" gradientTransform="matrix(-6.4578 2.6448 -2.6448 -6.4578 2583.0449 5067.5747)">
			<stop  offset="0" style="stop-color:#F2F0E8"/>
			<stop  offset="0.563" style="stop-color:#E2E0DA"/>
			<stop  offset="1" style="stop-color:#DBD9D4"/>
		</linearGradient>
		<path id="edge_20_" fill="url(#edge_2_)" d="M537.3,478.9c2.1,17.4,3.5,41.2,4.9,65.6c2.1,72.6,4.2,171,67.7,265.9
			C540.8,762.9,532.4,624.8,531,548c-0.7-25.1-1.4-46.1-4.9-62.1c-16.7-95.6-69.8-187.7-111.7-233.8l-2.8-3.5l12.6-4.9
			C466.8,291.2,526.1,384.7,537.3,478.9z M153.5,354.7c2.8,63.5,27.9,168.9,86.5,249.1c10.5,14,24.4,30,41.2,48.2
			c24.4,26.5,54.4,57.2,79.6,95.6c17.4,26.5,33.5,56.5,44.7,90.7c5.6,17.4,10.5,36.3,14,55.8c18.8-79.6-73.3-188.4-127-247
			c-17.4-18.8-31.4-34.9-40.5-48.2c-55.1-80.3-83-183.5-85.1-244.9v-4.9L153.5,354.7z"/>
		
			<linearGradient id="SVGID_12_" gradientUnits="userSpaceOnUse" x1="23.9904" y1="757.5069" x2="65.9182" y2="757.5069" gradientTransform="matrix(-6.4578 2.6448 -2.6448 -6.4578 2583.0449 5067.5747)">
			<stop  offset="0" style="stop-color:#B1AEAB"/>
			<stop  offset="5.338116e-02" style="stop-color:#BAB6B3"/>
			<stop  offset="0.233" style="stop-color:#D1CECB"/>
			<stop  offset="0.3996" style="stop-color:#E0DCD9"/>
			<stop  offset="0.5394" style="stop-color:#E5E1DE"/>
			<stop  offset="0.652" style="stop-color:#D8D5D1"/>
			<stop  offset="0.8586" style="stop-color:#B7B4B0"/>
			<stop  offset="1" style="stop-color:#9C9A96"/>
		</linearGradient>
		<path display="none" fill="url(#SVGID_12_)" d="M156.3,350.5l266.6-108.9c1.4-0.7,2.1-1.4,1.4-2.1c0-0.7-0.7-0.7-2.8-0.7
			L155.6,348.4c-1.4,0.7-2.1,1.4-1.4,2.1C154.2,351.2,154.9,351.2,156.3,350.5L156.3,350.5z"/>
		
			<linearGradient id="SVGID_13_" gradientUnits="userSpaceOnUse" x1="24.5195" y1="757.1029" x2="66.1328" y2="757.1029" gradientTransform="matrix(-6.4578 2.6448 -2.6448 -6.4578 2583.0449 5067.5747)">
			<stop  offset="0" style="stop-color:#FFFFFF;stop-opacity:0"/>
			<stop  offset="0.5394" style="stop-color:#E5E1DE"/>
			<stop  offset="0.753" style="stop-color:#EFEDEB;stop-opacity:0.5362"/>
			<stop  offset="1" style="stop-color:#FFFFFF;stop-opacity:0"/>
		</linearGradient>
		<path fill="url(#SVGID_13_)" d="M156.3,353.3l264.5-108.2c1.4-0.7,2.1-1.4,1.4-2.1c-0.7-0.7-0.7-0.7-2.1,0L155.6,351.2
			c-1.4,0.7-2.1,1.4-1.4,2.1C154.9,354,154.9,354,156.3,353.3L156.3,353.3z"/>
	</g>
	<g id="wings_9_">
		<g>
			
				<image overflow="visible" opacity="0.75" width="643" height="592" xlink:href="4A714EC7051DEF0C.png"  transform="matrix(1 0 0 1 78 288)">
			</image>
			<g>
				
					<linearGradient id="SVGID_14_" gradientUnits="userSpaceOnUse" x1="45.276" y1="673.7438" x2="45.276" y2="748.7458" gradientTransform="matrix(-6.4578 2.6448 -2.6448 -6.4578 2583.0449 5067.5747)">
					<stop  offset="0" style="stop-color:#8E591E"/>
					<stop  offset="8.625832e-03" style="stop-color:#9C6824"/>
					<stop  offset="2.725192e-02" style="stop-color:#B5832F"/>
					<stop  offset="4.762974e-02" style="stop-color:#C99837"/>
					<stop  offset="7.036991e-02" style="stop-color:#D6A73D"/>
					<stop  offset="9.734715e-02" style="stop-color:#DFAF40"/>
					<stop  offset="0.1394" style="stop-color:#E1B241"/>
					<stop  offset="0.3283" style="stop-color:#D09B39"/>
					<stop  offset="0.5091" style="stop-color:#BD8231"/>
					<stop  offset="0.6237" style="stop-color:#B3712C"/>
					<stop  offset="0.8" style="stop-color:#A75B26"/>
					<stop  offset="1" style="stop-color:#9E6425"/>
				</linearGradient>
				<path fill="url(#SVGID_14_)" d="M580.6,791.6c-38.4-53.7-60.7-146.5-57.2-227.5c4.2-101.9-31.4-185.6-76.8-259.6
					c0.7-2.8,1.4-5.6,2.1-8.4c39.8,59.3,69.1,117.2,78.2,189.8c1.4,10.5,2.8,23.7,3.5,38.4c49.5-15.4,102.6-78.2,125.6-113
					c25.1-39.1,39.8,37-10.5,95.6c0.7-0.7,20.9-20.9,20.9-20.9c46.1-48.8,46.1,23.7-18.8,83c0.7,0,21.6-18.8,22.3-18.8
					c27.2-18.8,38.4,9.8,1.4,49.5c-36.3,39.1-99.1,51.6-134,41.2c7,53,20.9,109.6,50.2,149.3c-20.2,18.1-47.5,34.9-78.2,47.5
					c-19.5,8.4-39.8,14-59.3,17.4l0,0c-0.7-2.1-1.4-4.2-2.1-6.3C508.7,839.7,561.7,808.3,580.6,791.6z M221.2,742.7
					c-0.7,0-28.6,2.1-29.3,2.1c-32.8,5.6-20.2,33.5,33.5,36.3c53,2.1,107.5-32.8,124.9-64.9c32.8,43.3,62.8,94.2,69.8,141
					c2.8,0,6.3-0.7,9.8-0.7l0,0c-0.7-2.8-1.4-4.9-2.1-7.7l0,0l0,0c-2.8-9.1-4.9-18.1-8.4-26.5c-20.9-60.7-60.7-121.4-112.4-169.6
					c-69.8-64.9-103.3-142.4-120-213.5c-0.7,0-3.5-1.4-7.7-2.8c14,57.9,32.8,108.2,71.2,161.9c6.3,8.4,14.7,18.8,24.4,29.3
					c-45.4,24.4-128.4,16.7-169.6,8.4c-45.4-9.8-2.1,54.4,74.7,60.7c-0.7,0-29.3,0-30,0C82.3,693.9,133.3,745.5,221.2,742.7z"/>
			</g>
		</g>
		<path fill="#D8BB9F" d="M448,847.4L448,847.4c0.7,2.1,1.4,4.2,2.1,6.3c-7,1.4-13.3,2.1-19.5,2.8c-0.7-2.8-1.4-4.9-2.1-7.7
			C434.7,848.8,441,848.1,448,847.4z"/>
	</g>
	<g id="shine_wings_9_">
		<g>
			<path fill="#A66B30" d="M265.8,689.7c-2.8,34.9,23,50.2,49.5,14C291.7,749.7,252.6,726,265.8,689.7z"/>
			<path fill="#A66B30" d="M577.8,562c26.5,23,18.8,51.6-25.8,44.7C601.5,622.7,612.7,578.7,577.8,562z"/>
		</g>
		<g>
			<path fill="#A66B30" d="M605.7,523.6c17.4,16.1-13.3,36.3-27.2,37C593.1,555.7,614.8,541.7,605.7,523.6z"/>
			<path fill="#A66B30" d="M218.4,682c-0.7,23.7,34.9,16.7,45.4,7C250.5,695.9,225.4,701.5,218.4,682z"/>
		</g>
		<g>
			<path fill="#E1B566" d="M270.7,686.2c-6.3,35.6,24.4,44.7,45.4,10.5C292.4,743.4,258.2,723.2,270.7,686.2z"/>
			<path fill="#E1B566" d="M572.2,563.4c30,20.9,14,48.8-25.1,39.1C595.9,619.2,606.4,580.1,572.2,563.4z"/>
		</g>
		<g>
			<path fill="#DCB16F" d="M220.5,678.5c-0.7,24.4,34.9,16.7,45.4,7C254.7,691.1,227.5,695.9,220.5,678.5z"/>
			<path fill="#DCB16F" d="M602.2,522.2c17.4,16.7-13.3,36.3-27.2,37C586.8,555,609.9,539.6,602.2,522.2z"/>
		</g>
		<g>
			<path fill="#EAC56E" d="M347.5,712.7c-7,14.7-53.7,67.7-122.1,64.9C279.8,772,325.9,739.9,347.5,712.7z"/>
			<path fill="#EAC56E" d="M536.6,634.5c15.4,5.6,85.8,10.5,132.6-39.8C626.6,629.7,570.8,639.4,536.6,634.5z"/>
		</g>
		<g>
			<path fill="#E1BE68" d="M216.3,746.9c-6.3,0-12.6,0-18.1,1.4c-36.3,6.3-10.5,17.4-6.3,19.5C183.5,759.5,189.1,751.8,216.3,746.9z
				"/>
			<path fill="#E1BE68" d="M654.5,567.5c4.2-4.2,9.1-8.4,14-11.9c30.7-20.9,19.5,4.9,18.1,9.8C686.6,552.9,676.9,551.5,654.5,567.5z
				"/>
		</g>
		<g>
			<path fill="#DEB162" d="M184.9,700.8c-11.9,2.1-26.5,1.4-41.2,1.4c-37,0-13.3,15.4-9.1,18.1c-4.2-4.2-4.9-10.5,16.7-11.9
				C161.9,707.1,177.9,704.3,184.9,700.8z"/>
			<path fill="#DEB162" d="M644.1,512.4c9.8-6.3,19.5-17.4,30-27.9c26.5-25.8,20.2,1.4,19.5,6.3c0-6.3-4.2-11.2-20.2,2.8
				C665,500.6,651.7,510.3,644.1,512.4z"/>
		</g>
		<g>
			<path fill="#DDA65F" d="M272.8,633.8c-43.3,17.4-97,20.2-160.5,7c-36.3-7.7-14,14-10.5,17.4c-4.2-4.9-5.6-14.7,15.4-10.5
				C161.9,657.6,233.7,655.5,272.8,633.8z"/>
			<path fill="#DDA65F" d="M533.8,527.1c43.3-17.4,83.7-53.7,119.3-107.5c20.2-30.7,20.2,0,19.5,4.9c-0.7-6.3-7-14.7-18.1,3.5
				C630.1,465.7,577.1,514.5,533.8,527.1z"/>
		</g>
	</g>
	<g id="face_8_">
		<g>
			<g>
				
					<linearGradient id="SVGID_15_" gradientUnits="userSpaceOnUse" x1="53.5758" y1="719.9486" x2="58.758" y2="735.2541" gradientTransform="matrix(-6.4578 2.6448 -2.6448 -6.4578 2583.0449 5067.5747)">
					<stop  offset="0" style="stop-color:#CA8B1F"/>
					<stop  offset="0.3172" style="stop-color:#B67A23"/>
					<stop  offset="0.903" style="stop-color:#89522D"/>
				</linearGradient>
				<path fill="url(#SVGID_15_)" d="M240.7,539.6c12.6,30.7,47.5,44.7,77.5,32.8c30.7-12.6,44.7-47.5,32.8-77.5
					c-12.6-30.7-47.5-44.7-77.5-32.8C242.8,474,228.2,508.9,240.7,539.6z M251.2,538.2c-10.5-25.8,2.1-55.1,27.2-65.6
					c25.8-10.5,55.1,2.1,65.6,27.2c10.5,25.8-2.1,55.1-27.2,65.6C291,576.6,261.7,564.1,251.2,538.2z"/>
				
					<linearGradient id="SVGID_16_" gradientUnits="userSpaceOnUse" x1="48.7228" y1="727.2751" x2="63.4318" y2="727.2751" gradientTransform="matrix(-6.4578 2.6448 -2.6448 -6.4578 2583.0449 5067.5747)">
					<stop  offset="0.3455" style="stop-color:#FFFFFF"/>
					<stop  offset="0.5208" style="stop-color:#FDFCFB"/>
					<stop  offset="0.676" style="stop-color:#F6F4F1"/>
					<stop  offset="0.8236" style="stop-color:#EAE5DF"/>
					<stop  offset="0.9657" style="stop-color:#D9D1C5"/>
					<stop  offset="1" style="stop-color:#D4CBBE"/>
				</linearGradient>
				<path fill="url(#SVGID_16_)" d="M249.8,538.9c10.5,26.5,40.5,39.1,67,27.9c26.5-10.5,39.1-40.5,27.9-67
					c-10.5-26.5-40.5-39.1-67-27.9C251.9,482.4,239.3,512.4,249.8,538.9z"/>
				<path fill="#2C2624" d="M311.2,542.4c-13.3,5.6-29.3-0.7-34.2-14.7c-5.6-13.3,0.7-29.3,14.7-34.2c13.3-5.6,29.3,0.7,34.2,14.7
					C331.4,521.5,325.2,536.8,311.2,542.4L311.2,542.4z M293.1,497.8c-11.2,4.2-16.1,16.7-11.9,27.9c4.2,11.2,16.7,16.1,27.9,11.9
					s16.1-16.7,11.9-27.9C316.8,499.2,304.2,493.6,293.1,497.8L293.1,497.8z"/>
				
					<radialGradient id="SVGID_17_" cx="55.4737" cy="727.2643" r="3.1368" gradientTransform="matrix(-6.4578 2.6448 -2.6448 -6.4578 2583.0449 5067.5747)" gradientUnits="userSpaceOnUse">
					<stop  offset="0.1697" style="stop-color:#000000"/>
					<stop  offset="0.3148" style="stop-color:#0A0705"/>
					<stop  offset="0.564" style="stop-color:#261B12"/>
					<stop  offset="0.8853" style="stop-color:#523B28"/>
					<stop  offset="1" style="stop-color:#644830"/>
				</radialGradient>
				<circle fill="url(#SVGID_17_)" cx="301.4" cy="518" r="21.6"/>
				<path fill="#FFFFFF" d="M286.1,505.4c2.1,4.9,7.7,7.7,12.6,5.6c4.9-2.1,7.7-7.7,5.6-13.3c-2.1-4.9-7.7-7.7-12.6-5.6
					C286.8,494.3,284,500.6,286.1,505.4z"/>
				<path fill="#FFFFFF" d="M302.8,534.7c0.7,2.8,4.2,3.5,6.3,2.8c2.8-0.7,3.5-4.2,2.8-6.3c-0.7-2.8-4.2-3.5-6.3-2.8
					C302.8,529.2,301.4,532,302.8,534.7z"/>
			</g>
			<g>
				
					<linearGradient id="SVGID_18_" gradientUnits="userSpaceOnUse" x1="38.4803" y1="718.9362" x2="35.3137" y2="736.2399" gradientTransform="matrix(-6.4578 2.6448 -2.6448 -6.4578 2583.0449 5067.5747)">
					<stop  offset="0" style="stop-color:#CA8B1F"/>
					<stop  offset="0.2273" style="stop-color:#BF8121"/>
					<stop  offset="0.6277" style="stop-color:#A16728"/>
					<stop  offset="0.903" style="stop-color:#89522D"/>
				</linearGradient>
				<path fill="url(#SVGID_18_)" d="M361.4,490.1c13.3,32.8,50.9,48.2,83,34.9c32.8-13.3,48.2-50.9,34.9-83
					c-13.3-32.8-50.9-48.2-83-34.9C363.5,420.3,347.5,457.3,361.4,490.1z M369.8,490.1c-11.2-27.2,2.1-58.6,29.3-69.8
					s58.6,2.1,69.8,29.3c11.2,27.2-2.1,58.6-29.3,69.8C412.4,530.6,381,517.3,369.8,490.1z"/>
				
					<linearGradient id="SVGID_19_" gradientUnits="userSpaceOnUse" x1="29.287" y1="727.2677" x2="44.9764" y2="727.2677" gradientTransform="matrix(-6.4578 2.6448 -2.6448 -6.4578 2583.0449 5067.5747)">
					<stop  offset="0.3455" style="stop-color:#FFFFFF"/>
					<stop  offset="0.5208" style="stop-color:#FDFCFB"/>
					<stop  offset="0.676" style="stop-color:#F6F4F1"/>
					<stop  offset="0.8236" style="stop-color:#EAE5DF"/>
					<stop  offset="0.9657" style="stop-color:#D9D1C5"/>
					<stop  offset="1" style="stop-color:#D4CBBE"/>
				</linearGradient>
				<circle fill="url(#SVGID_19_)" cx="420.1" cy="469.2" r="54.4"/>
				<path fill="#2C2624" d="M434.7,493.6c-14,5.6-30.7-0.7-36.3-15.4c-5.6-14,0.7-30.7,15.4-36.3c14.7-5.6,30.7,0.7,36.3,15.4
					C455.7,471.2,448.7,488,434.7,493.6L434.7,493.6z M415.2,446.8c-11.9,4.9-17.4,18.1-12.6,30c4.9,11.9,18.1,17.4,30,12.6
					c11.9-4.9,17.4-18.1,12.6-30C440.3,447.5,427,441.9,415.2,446.8L415.2,446.8z"/>
				
					<radialGradient id="SVGID_20_" cx="36.5153" cy="727.2394" r="3.3442" gradientTransform="matrix(-6.4578 2.6448 -2.6448 -6.4578 2583.0449 5067.5747)" gradientUnits="userSpaceOnUse">
					<stop  offset="0.1697" style="stop-color:#000000"/>
					<stop  offset="0.3148" style="stop-color:#0A0705"/>
					<stop  offset="0.564" style="stop-color:#261B12"/>
					<stop  offset="0.8853" style="stop-color:#523B28"/>
					<stop  offset="1" style="stop-color:#644830"/>
				</radialGradient>
				<path fill="url(#SVGID_20_)" d="M401.9,476.8c4.9,11.9,18.8,17.4,30.7,12.6c11.9-4.9,17.4-18.8,12.6-30.7
					c-4.9-11.9-18.8-17.4-30.7-12.6C403.3,451,397,465,401.9,476.8z"/>
				<path fill="#FFFFFF" d="M407.5,455.2c2.1,5.6,8.4,7.7,14,5.6s7.7-8.4,5.6-14c-2.1-5.6-8.4-7.7-14-5.6
					C407.5,443.3,405.4,449.6,407.5,455.2z"/>
				<path fill="#FFFFFF" d="M424.9,485.9c1.4,2.8,4.2,4.2,7,2.8s4.2-4.2,2.8-7c-1.4-2.8-4.2-4.2-7-2.8
					C425.6,479.6,424.3,483.1,424.9,485.9z"/>
			</g>
		</g>
		<g>
			
				<linearGradient id="SVGID_21_" gradientUnits="userSpaceOnUse" x1="52.9316" y1="714.8032" x2="43.0994" y2="720.5643" gradientTransform="matrix(-6.4578 2.6448 -2.6448 -6.4578 2583.0449 5067.5747)">
				<stop  offset="0" style="stop-color:#D49927"/>
				<stop  offset="0.4515" style="stop-color:#C18226"/>
				<stop  offset="1" style="stop-color:#AE6B24"/>
			</linearGradient>
			<path fill="url(#SVGID_21_)" d="M348.9,589.2c0.7-6.3,5.6-14,14-18.8c4.9,6.3,12.6,21.6,15.4,34.2c17.4-7.7,25.8-18.8,29.3-32.1
				c4.2-15.4,0.7-37-15.4-46.8c-6.3-4.2-14-6.3-24.4-4.9c-10.5,2.1-19.5,9.8-24.4,21.6C339.1,555,337,572.4,348.9,589.2z
				 M368.4,566.9L368.4,566.9c4.9-2.1,7.7-2.1,12.6-2.8c2.8-0.7,6.3-1.4,8.4-2.1c7-3.5,10.5-5.6,13.3-13.3
				c4.2,15.4,0.7,36.3-20.2,48.2C378.9,584.3,373.3,575.9,368.4,566.9z M348.9,576.6c-8.4-18.1,0-46.8,20.2-50.2
				c7.7-1.4,14,0,18.8,2.8l0,0l0,0c1.4,0.7,2.8,2.1,4.2,2.8c9.8,7.7,4.9,23-13.3,26.5c-16.7,2.8-24.4,9.1-27.9,14.7
				C350.3,572.4,348.9,575.9,348.9,576.6z"/>
			
				<linearGradient id="SVGID_22_" gradientUnits="userSpaceOnUse" x1="44.3365" y1="712.4186" x2="50.0366" y2="712.4186" gradientTransform="matrix(-6.4536 2.6546 -2.6546 -6.4536 2587.0037 5045.1519)">
				<stop  offset="0" style="stop-color:#FFFFFF"/>
				<stop  offset="0.2891" style="stop-color:#FFFEFC"/>
				<stop  offset="0.527" style="stop-color:#FDF9F2"/>
				<stop  offset="0.7467" style="stop-color:#FBF2E0"/>
				<stop  offset="0.9544" style="stop-color:#F9E9C8"/>
				<stop  offset="1" style="stop-color:#F8E6C2"/>
			</linearGradient>
			<path fill="url(#SVGID_22_)" d="M367.7,566.9L367.7,566.9c4.9-2.1,8.4-2.1,13.3-2.8c2.8-0.7,6.3-1.4,8.4-2.8
				c7-3.5,10.5-6.3,13.3-14c5.6,16.7,0.7,38.4-20.9,50.2C378.2,585,372.6,575.9,367.7,566.9z"/>
			
				<linearGradient id="SVGID_23_" gradientUnits="userSpaceOnUse" x1="48.9856" y1="710.7141" x2="47.7273" y2="714.0973" gradientTransform="matrix(-6.4536 2.6546 -2.6546 -6.4536 2587.0037 5045.1519)">
				<stop  offset="0" style="stop-color:#AD6D29"/>
				<stop  offset="1" style="stop-color:#80551F"/>
			</linearGradient>
			<path fill="url(#SVGID_23_)" d="M383.8,588.5c-1.4-6.3-9.1-19.5-11.9-23l2.8-0.7c2.1,0,3.5-0.7,5.6-0.7c2.8-0.7,8.4-2.1,14-5.6
				C396.3,568.9,394.2,580.1,383.8,588.5z"/>
			
				<linearGradient id="SVGID_24_" gradientUnits="userSpaceOnUse" x1="48.0084" y1="714.5687" x2="51.3598" y2="719.3328" gradientTransform="matrix(-6.4536 2.6546 -2.6546 -6.4536 2587.0037 5045.1519)">
				<stop  offset="4.242420e-02" style="stop-color:#E4C677"/>
				<stop  offset="0.197" style="stop-color:#EDD9A4"/>
				<stop  offset="0.3895" style="stop-color:#F7EDD5"/>
				<stop  offset="0.5361" style="stop-color:#FDFAF3"/>
				<stop  offset="0.6182" style="stop-color:#FFFFFF"/>
			</linearGradient>
			<path fill="url(#SVGID_24_)" d="M392.8,531.3c10.5,7.7,3.5,24.4-14,27.2c-20.9,3.5-27.9,14.7-30.7,20.2c-9.1-18.8,0-49.5,20.9-53
				C380.3,523.6,388,527.1,392.8,531.3z"/>
			
				<linearGradient id="SVGID_25_" gradientUnits="userSpaceOnUse" x1="43.7627" y1="718.9486" x2="52.4016" y2="718.9486" gradientTransform="matrix(-6.4578 2.6448 -2.6448 -6.4578 2583.0449 5067.5747)">
				<stop  offset="0" style="stop-color:#FFEBC8"/>
				<stop  offset="0.1188" style="stop-color:#FFF0D5"/>
				<stop  offset="0.4384" style="stop-color:#FFFBF4"/>
				<stop  offset="0.6182" style="stop-color:#FFFFFF"/>
			</linearGradient>
			<path fill="url(#SVGID_25_)" d="M348.9,577.3c0-9.8,9.8-18.8,28.6-21.6c9.8-2.1,14-7,16.1-11.2c1.4-3.5,1.4-11.2-4.9-16.1
				c1.4,0.7,3.5,2.1,4.2,2.8c10.5,7.7,5.6,24.4-14,27.9C359.4,562,351.7,571,348.9,577.3z"/>
		</g>
	</g>
	<g id="eyebrows_8_">
		
			<linearGradient id="SVGID_26_" gradientUnits="userSpaceOnUse" x1="-299.2066" y1="753.7726" x2="-281.536" y2="753.7726" gradientTransform="matrix(6.3245 -2.9497 -2.9497 -6.3245 4321.314 4362.522)">
			<stop  offset="0" style="stop-color:#925727"/>
			<stop  offset="0.4545" style="stop-color:#854B22"/>
			<stop  offset="0.8008" style="stop-color:#8A4F24"/>
			<stop  offset="1" style="stop-color:#905326"/>
		</linearGradient>
		<path fill="url(#SVGID_26_)" d="M253.3,453.8c-31.4,14.7-50.2,10.5-61.4-4.9c14,7,24.4,6.3,34.9,2.8c2.1-0.7-3.5-4.2-2.1-4.9
			c8.4,0.7,15.4-0.7,19.5-2.1c-2.8-0.7-4.2-4.2-4.9-7.7c13.3,3.5,19.5,1.4,23.7,0c-1.4-1.4-1.4-4.2-0.7-7.7
			c12.6,5.6,20.9,4.2,26.5,3.5c2.1,0,0.7-3.5-1.4-6.3c20.2,0.7,34.9,18.8,42.6,28.6C321.7,449.6,295.8,434.3,253.3,453.8z"/>
		
			<linearGradient id="SVGID_27_" gradientUnits="userSpaceOnUse" x1="22.5365" y1="739.7775" x2="42.9554" y2="739.7775" gradientTransform="matrix(-6.5764 2.335 -2.335 -6.5764 2342.6006 5173.062)">
			<stop  offset="0" style="stop-color:#8D5525"/>
			<stop  offset="0.4545" style="stop-color:#824921"/>
			<stop  offset="0.8204" style="stop-color:#874D23"/>
			<stop  offset="1" style="stop-color:#8C5024"/>
		</linearGradient>
		<path fill="url(#SVGID_27_)" d="M411.7,382.6c38.4-14,50.2-37.7,41.2-62.8c-1.4,16.1-7.7,25.1-18.1,32.8c-1.4,0.7-0.7-7-2.1-5.6
			c-3.5,7-11.9,13.3-19.5,17.4c0.7-1.4,0-5.6-2.1-8.4c-7.7,14-16.7,18.8-21.6,21.6c0-2.8-0.7-6.3-4.2-9.1
			c-5.6,15.4-15.4,22.3-20.9,27.2c-1.4,2.1-2.8-2.1-3.5-7c-16.7,16.7-14.7,45.4-13.3,60C350.3,436.4,359.4,401.5,411.7,382.6z"/>
	</g>
	<g id="bubbles_8_">
		<g>
			<path fill="#E4A524" d="M493.3,756c1.4,3.5,5.6,5.6,9.1,3.5c3.5-1.4,5.6-5.6,3.5-9.1c-1.4-3.5-5.6-4.9-9.1-3.5
				C494,748.3,491.9,752.5,493.3,756z M494.7,755.3c-1.4-2.8,0-6.3,2.8-7.7c2.8-1.4,6.3,0,7.7,2.8c1.4,2.8,0,6.3-2.8,7.7
				C499.6,759.5,496.1,758.8,494.7,755.3z"/>
			<path fill="#E4A524" d="M457,629.7c1.4,3.5,5.6,5.6,9.1,3.5c3.5-1.4,5.6-5.6,3.5-9.1c-1.4-3.5-5.6-5.6-9.1-3.5
				C457.7,622,455.7,626.2,457,629.7z M458.4,629.7c-1.4-2.8,0-6.3,2.8-7.7c2.8-1.4,6.3,0,7.7,2.8c1.4,2.8,0,6.3-2.8,7.7
				C463.3,633.8,459.8,632.4,458.4,629.7z"/>
			<path fill="#E4A524" d="M452.9,681.3c2.1,4.9,7.7,7.7,12.6,5.6c4.9-2.1,7.7-7.7,5.6-12.6c-2.1-4.9-7.7-7.7-12.6-5.6
				C453.6,670.1,450.8,676.4,452.9,681.3z M454.3,680.6c-1.4-4.2,0-9.1,4.2-10.5s9.1,0,10.5,4.2c1.4,4.2,0,9.1-4.2,10.5
				C461.2,686.9,456.4,684.8,454.3,680.6z"/>
			<path fill="#E4A524" d="M487.8,717.6c1.4,3.5,5.6,4.9,9.1,3.5c3.5-1.4,4.9-5.6,3.5-9.1c-1.4-3.5-5.6-4.9-9.1-3.5
				C488.5,710.6,486.4,714.1,487.8,717.6z M489.1,717.6c-1.4-2.8,0-6.3,3.5-7.7c2.8-1.4,6.3,0,7.7,3.5c1.4,2.8,0,6.3-2.8,7.7
				C493.3,721.8,490.5,720.4,489.1,717.6z"/>
			<path fill="#E4A524" d="M508.7,787.4c1.4,2.8,4.2,4.2,7,2.8c2.8-1.4,4.2-4.2,2.8-7c-1.4-2.8-4.2-4.2-7-2.8
				C509.4,781.8,508,784.6,508.7,787.4z M510.1,786c-0.7-2.1,0-4.2,2.1-4.9c2.1-0.7,4.2,0,4.9,2.1s0,4.2-2.1,4.9
				C512.9,789.5,510.8,788.1,510.1,786z"/>
		</g>
		<g>
			<path fill="#C59829" d="M478,703.6c0.7,0.7,1.4,1.4,2.8,0.7c0.7-0.7,1.4-1.4,0.7-2.1c-0.7-0.7-1.4-1.4-2.1-0.7
				C478,701.5,478,702.2,478,703.6z"/>
			<path fill="#C59829" d="M441,695.9c0.7,0.7,1.4,1.4,2.8,0.7c0.7-0.7,1.4-1.4,1.4-2.8c-0.7-0.7-1.4-1.4-2.8-1.4
				C441,693.9,441,694.6,441,695.9z"/>
			<circle fill="#DB9728" cx="434.7" cy="622" r="2.1"/>
			<path fill="#DB9728" d="M495.4,776.2c0,0.7,1.4,1.4,2.1,0.7c0.7,0,1.4-1.4,0.7-2.1c0-0.7-1.4-1.4-2.1-0.7
				C495.4,774.1,495.4,775.5,495.4,776.2z"/>
			<path fill="#DB9728" d="M514.3,769.9c0.7,1.4,2.1,1.4,2.8,1.4c1.4-0.7,1.4-2.1,1.4-2.8c-0.7-1.4-2.1-1.4-2.8-1.4
				C514.3,767.1,513.6,768.5,514.3,769.9z"/>
			<circle fill="#DA9128" cx="475.2" cy="722.5" r="2.1"/>
			<circle fill="#E0A226" cx="420.8" cy="640.8" r="2.1"/>
			<path fill="#DA9128" d="M518.5,804.1c0.7,1.4,1.4,1.4,2.8,1.4c1.4-0.7,1.4-1.4,1.4-2.8c-0.7-1.4-1.4-1.4-2.8-1.4
				C518.5,802,518.5,803.4,518.5,804.1z"/>
			<circle fill="#C59829" cx="479.4" cy="739.2" r="2.1"/>
			<circle fill="#DB9528" cx="442.4" cy="656.2" r="2.1"/>
			<path fill="#DA9128" d="M501,734.3c0.7,1.4,1.4,1.4,2.8,1.4c0.7-0.7,1.4-1.4,1.4-2.8c-0.7-0.7-1.4-1.4-2.8-1.4
				C501,732.2,501,733.6,501,734.3z"/>
			<path fill="#DA9128" d="M457.7,706.4c0,0.7,1.4,1.4,2.1,0.7c0.7-0.7,1.4-1.4,0.7-2.1c0-0.7-1.4-1.4-2.1-0.7
				C457.7,704.3,457.7,705.7,457.7,706.4z"/>
			<path fill="#C59829" d="M480.8,740.6c0,0.7,1.4,1.4,2.1,0.7c0.7,0,1.4-1.4,0.7-2.1c0-0.7-1.4-1.4-2.1-0.7
				C480.8,739.2,480.8,739.9,480.8,740.6z"/>
			<path fill="#D09F2C" d="M477.3,658.3c0.7,0.7,1.4,1.4,2.8,1.4c0.7-0.7,1.4-1.4,0.7-2.8c-0.7-0.7-1.4-1.4-2.1-0.7
				C477.3,656.2,477.3,657.6,477.3,658.3z"/>
			<path fill="#D09F2C" d="M480.1,659c0,0.7,1.4,1.4,2.1,0.7c0.7,0,1.4-1.4,0.7-2.1c0-0.7-1.4-1.4-2.1-0.7S480.1,658.3,480.1,659z"
				/>
			<path fill="#DA9128" d="M460.5,705.7c0.7,1.4,2.1,1.4,2.8,1.4c1.4-0.7,1.4-2.1,1.4-2.8c-0.7-1.4-2.1-1.4-2.8-1.4
				C460.5,702.9,459.8,704.3,460.5,705.7z"/>
			<circle fill="#DA9128" cx="487.1" cy="678.5" r="2.1"/>
		</g>
	</g>
</g>
</svg>
